<svg width="384" height="83" viewBox="0 0 384 83" fill="none" xmlns="http://www.w3.org/2000/svg">
<g clip-path="url(#clip0_197_217)">
<path fill-rule="evenodd" clip-rule="evenodd" d="M169.498 48.2597C169.41 48.0599 169.235 47.965 169.059 47.9877C168.883 47.965 168.708 48.0599 168.621 48.2597L151.391 83.0348H161.046L162.962 78.8972H175.156L177.072 83.0348H186.727L169.498 48.2597ZM165.854 72.424L169.059 65.346L172.264 72.424H165.854ZM203.213 83.2595C193.393 83.2595 185.013 76.0156 185.013 65.7044C185.013 55.3924 193.34 48.2001 202.696 48.2001C210.253 48.2001 214.88 51.3186 217.812 55.5439L210.768 60.2213C209.432 58.2102 207.272 56.1475 202.853 56.1475C197.712 56.1475 194.574 60.3222 194.574 65.7044C194.574 71.0867 197.814 75.3109 203.16 75.3109C207.684 75.3109 209.894 73.2996 211.385 70.5829L218.582 75.11C215.139 80.7951 210.306 83.2595 203.213 83.2595ZM222.178 48.8316H246.701V56.5278H231.536V62.1026H244.183V69.396H231.536V75.3397H247.42V83.0348H222.178V48.8316ZM287.723 48.8316H302.014C308.953 48.8316 314.117 51.9502 314.117 57.181C314.117 62.4046 311.794 64.0529 309.533 65.109C313.337 66.166 315.643 68.7397 315.643 72.7743C315.643 79.3136 311.319 83.0348 302.631 83.0348H287.723V48.8316ZM301.293 62.2612C304.222 62.2612 304.874 60.9085 304.874 58.8407C304.874 56.7802 303.454 56.0745 301.398 56.0745H296.771V62.2612H301.293ZM302.425 75.7919C306.023 75.7919 306.477 73.6314 306.477 71.9192C306.477 70.3912 305.968 68.5975 302.425 68.5975H296.771V75.7919H302.425ZM320.52 48.8316H329.874V75.3397H344.733V83.0348H320.52V48.8316ZM349.049 48.8316H373.571V56.5278H358.405V62.1933H371.051V69.4877H358.405V75.3397H374.289V83.0348H349.049V48.8316ZM267.954 48.2597C267.867 48.0599 267.693 47.965 267.517 47.9877C267.341 47.965 267.165 48.0599 267.076 48.2597L249.847 83.0348H259.504L261.42 78.8972H273.613L275.528 83.0348H285.184L267.954 48.2597ZM264.31 72.424L267.517 65.346L270.721 72.424H264.31Z" fill="white"/>
<mask id="mask0_197_217" style="mask-type:alpha" maskUnits="userSpaceOnUse" x="0" y="18" width="62" height="36">
<path d="M0.0638428 18.1323H61.0595V53.2508H0.0638428V18.1323Z" fill="white"/>
</mask>
<g mask="url(#mask0_197_217)">
<path fill-rule="evenodd" clip-rule="evenodd" d="M51.267 38.0601H4.74817C6.86151 43.4373 9.5647 48.5252 12.7726 53.2511H43.8039L51.267 38.0601Z" fill="white"/>
<path fill-rule="evenodd" clip-rule="evenodd" d="M61.0588 18.1323H1.26174C0.507879 18.1323 -0.0840665 18.7818 0.00950923 19.5196C0.604609 24.2266 1.62343 28.802 3.02602 33.2125H53.6495L61.0588 18.1323Z" fill="white"/>
</g>
<path fill-rule="evenodd" clip-rule="evenodd" d="M41.0051 58.0996H15.7712C20.3794 63.9177 25.7927 69.0752 31.8385 73.4165C32.4902 73.883 33.4054 73.6623 33.7555 72.947L41.0051 58.0996Z" fill="white"/>
<path fill-rule="evenodd" clip-rule="evenodd" d="M105.141 38.3872H151.403C149.301 43.896 146.614 49.1082 143.425 53.9497H112.564L105.141 38.3872Z" fill="white"/>
<path fill-rule="evenodd" clip-rule="evenodd" d="M95.6786 17.6372H155.4C156.153 17.6372 156.744 18.3075 156.651 19.0687C156.056 23.9264 155.039 28.6482 153.638 33.1998H103.078L95.6786 17.6372Z" fill="white"/>
<path fill-rule="evenodd" clip-rule="evenodd" d="M114.91 58.0977H139.989C135.409 63.8445 130.029 68.9386 124.02 73.2265C123.373 73.6871 122.463 73.4693 122.115 72.7628L114.91 58.0977Z" fill="white"/>
<path fill-rule="evenodd" clip-rule="evenodd" d="M79.2913 1.52189C79.0883 1.05398 78.6803 0.830913 78.2725 0.884863C77.8635 0.830913 77.4564 1.05398 77.2525 1.52189L37.2253 82.9999H59.6581L64.1078 73.3044H92.437L96.8866 82.9999H119.318L79.2913 1.52189ZM70.8263 58.1372L78.2725 41.5538L85.7175 58.1372H70.8263Z" fill="white"/>
</g>
<defs>
<clipPath id="clip0_197_217">
<rect width="384" height="83" fill="white"/>
</clipPath>
</defs>
</svg>
