<svg xmlns="http://www.w3.org/2000/svg" version="1.1" viewBox="-5.0 -10.0 110.0 135.0">
 <path d="m50 4.125c12.668 0 24.137 5.1367 32.438 13.438s13.438 19.773 13.438 32.438c0 12.668-5.1367 24.137-13.438 32.438s-19.773 13.438-32.438 13.438c-12.668 0-24.137-5.1328-32.438-13.438-8.3008-8.3008-13.438-19.773-13.438-32.438 0-12.668 5.1367-24.137 13.438-32.438s19.773-13.438 32.438-13.438zm4.2188 37.223c2.7773-3.7812 5.9609-7.2461 9.4844-10.309 3.3828-2.9453 7.0977-5.543 11.086-7.7344-2.2812-2.1211-4.8398-3.9531-7.6055-5.4375-0.48438-0.25781-0.66797-0.86328-0.41016-1.3477 0.25781-0.48438 0.86328-0.66797 1.3477-0.41016 3.3359 1.7891 6.3789 4.0547 9.0312 6.7031l0.019531 0.019531c2.2305 2.2305 4.1836 4.7266 5.8125 7.4453 3.457 5.7656 5.4414 12.512 5.4414 19.715 0 10.609-4.3008 20.219-11.254 27.168-6.9492 6.9531-16.559 11.254-27.168 11.254s-20.219-4.3008-27.168-11.254c-6.9531-6.9492-11.254-16.559-11.254-27.168 0-10.609 4.3008-20.219 11.254-27.168 6.9492-6.9531 16.559-11.254 27.168-11.254 1.9023 0 3.7773 0.14063 5.6172 0.41016 1.8711 0.27344 3.7031 0.6875 5.4805 1.2227 0.52734 0.15625 0.82813 0.71484 0.67188 1.2422-0.15625 0.52734-0.71484 0.82813-1.2422 0.67188-1.6797-0.50781-3.4219-0.89453-5.1992-1.1562-1.7305-0.25391-3.5117-0.38672-5.3281-0.38672-9.5742 0-18.281 3.6914-24.785 9.7305 3.9844 2.1914 7.6992 4.7852 11.082 7.7305 3.5234 3.0625 6.7031 6.5234 9.4844 10.309 1.2734-0.625 2.707-0.97266 4.2188-0.97266 1.5117 0 2.9414 0.35156 4.2188 0.97266zm22.055-16.582c-4.043 2.1719-7.8164 4.7852-11.258 7.7812-3.3828 2.9414-6.4375 6.2539-9.0977 9.8594 0.3125 0.24219 0.60938 0.50781 0.88672 0.78516 1.75 1.75 2.8242 4.1562 2.8242 6.8086s-1.0781 5.0586-2.8203 6.8008c-0.28125 0.28125-0.57812 0.54297-0.89453 0.78906 2.6602 3.6094 5.7148 6.9141 9.0977 9.8594 3.4414 2.9922 7.2109 5.6055 11.254 7.7773 6.2891-6.543 10.156-15.438 10.156-25.23 0-6.8359-1.8828-13.234-5.1523-18.691-1.418-2.3672-3.0977-4.5586-5-6.5391zm-32.18 17.645c-2.6602-3.6094-5.7148-6.9141-9.0977-9.8594-3.4414-2.9922-7.2109-5.6055-11.254-7.7773-6.2891 6.543-10.156 15.438-10.156 25.23 0 9.7969 3.8672 18.688 10.156 25.23 1.3711-0.73828 2.7148-1.5273 4.0234-2.3633 1.5117-0.96484 2.9844-2.0039 4.418-3.1055 0.43359-0.33594 1.0625-0.25391 1.3984 0.17969 0.33594 0.43359 0.25391 1.0625-0.17969 1.3984-1.4609 1.1289-2.9883 2.1992-4.5625 3.207-1.1719 0.75-2.3789 1.4688-3.6133 2.1406 6.5 6.0391 15.211 9.7305 24.781 9.7305 9.5742 0 18.281-3.6914 24.785-9.7305-3.9844-2.1914-7.6992-4.7852-11.082-7.7305-3.5234-3.0625-6.7031-6.5234-9.4844-10.309-1.2734 0.625-2.707 0.97266-4.2188 0.97266-1.5117 0-2.9414-0.35156-4.2188-0.97266-0.92578 1.2617-1.8984 2.4883-2.918 3.6797-1.2109 1.4141-2.4844 2.7812-3.8086 4.0781-0.39453 0.38281-1.0273 0.38281-1.4102-0.011718-0.38281-0.39453-0.38281-1.0273 0.011718-1.4102 1.2891-1.2617 2.5234-2.5859 3.6914-3.9531 0.94922-1.1094 1.8633-2.2617 2.7344-3.4453-0.3125-0.24219-0.60938-0.50781-0.88672-0.78516-1.75-1.75-2.8242-4.1562-2.8242-6.8086s1.0781-5.0586 2.8203-6.8008c0.28125-0.28125 0.57812-0.54297 0.89453-0.78906zm-8.8867 24.855c0.41797-0.36328 1.0469-0.31641 1.4102 0.097656 0.36328 0.41797 0.31641 1.0469-0.097657 1.4102l-0.42578 0.37109c-0.41797 0.36328-1.0469 0.31641-1.4102-0.097656-0.36328-0.41797-0.31641-1.0469 0.097656-1.4102zm20.191-22.66c-1.3789-1.3789-3.2852-2.2305-5.3945-2.2305s-4.0156 0.85156-5.3906 2.2305c-1.3789 1.3789-2.2305 3.2891-2.2305 5.3945 0 2.1094 0.85156 4.0156 2.2305 5.3906 1.3789 1.3789 3.2891 2.2305 5.3945 2.2305 2.1055 0 4.0156-0.85156 5.3906-2.2305 1.3789-1.3789 2.2305-3.2891 2.2305-5.3945 0-2.1055-0.85156-4.0156-2.2305-5.3945zm8.2734-28.379c-0.50781-0.21094-0.75-0.79297-0.54297-1.3008 0.21094-0.50781 0.79297-0.75 1.3008-0.54297l0.52344 0.21484c0.50781 0.21094 0.75 0.79297 0.54297 1.3008-0.21094 0.50781-0.79297 0.75-1.3008 0.54297zm17.359 2.75c-7.9375-7.9375-18.91-12.848-31.023-12.848-12.117 0-23.086 4.9102-31.023 12.848s-12.848 18.91-12.848 31.023c0 12.117 4.9102 23.086 12.848 31.023s18.91 12.848 31.023 12.848c12.117 0 23.086-4.9102 31.023-12.848s12.848-18.91 12.848-31.023-4.9102-23.086-12.848-31.023z"/>
<text x="0.0" y="117.5" font-size="5.0" font-weight="bold" font-family="Arbeit Regular, Helvetica, Arial-Unicode, Arial, Sans-serif" fill="#000000">Created by marwati</text><text x="0.0" y="122.5" font-size="5.0" font-weight="bold" font-family="Arbeit Regular, Helvetica, Arial-Unicode, Arial, Sans-serif" fill="#000000">from Noun Project</text></svg>