<svg width="92" height="92" viewBox="0 0 92 92" fill="none" xmlns="http://www.w3.org/2000/svg">
<path d="M46 0.125C58.668 0.125 70.137 5.2617 78.438 13.563C86.739 21.8643 91.876 33.336 91.876 46.001C91.876 58.669 86.7393 70.138 78.438 78.439C70.1367 86.74 58.665 91.877 46 91.877C33.332 91.877 21.863 86.7442 13.562 78.439C5.26119 70.1382 0.123993 58.666 0.123993 46.001C0.123993 33.333 5.26069 21.864 13.562 13.563C21.8633 5.262 33.335 0.125 46 0.125ZM50.2188 37.348C52.9961 33.5668 56.1797 30.1019 59.7032 27.039C63.086 24.0937 66.8009 21.496 70.7892 19.3046C68.508 17.1835 65.9494 15.3515 63.1837 13.8671C62.6993 13.6093 62.5157 13.0038 62.7735 12.5194C63.0313 12.035 63.6368 11.8514 64.1212 12.1092C67.4571 13.8983 70.5001 16.1639 73.1524 18.8123L73.172 18.8319C75.4025 21.0624 77.3556 23.5585 78.9845 26.2772C82.4415 32.0428 84.4259 38.7892 84.4259 45.9922C84.4259 56.6012 80.1251 66.2112 73.1719 73.1602C66.2227 80.1133 56.6129 84.4142 46.0039 84.4142C35.3949 84.4142 25.7849 80.1134 18.8359 73.1602C11.8828 66.211 7.58186 56.6012 7.58186 45.9922C7.58186 35.3832 11.8827 25.7732 18.8359 18.8242C25.7851 11.8711 35.3949 7.57017 46.0039 7.57017C47.9062 7.57017 49.7812 7.7108 51.6211 7.98033C53.4922 8.25377 55.3242 8.66783 57.1016 9.20303C57.6289 9.35928 57.9297 9.91787 57.7734 10.4452C57.6172 10.9726 57.0586 11.2734 56.5312 11.1171C54.8515 10.6093 53.1093 10.2226 51.332 9.96091C49.6015 9.707 47.8203 9.57419 46.0039 9.57419C36.4297 9.57419 27.7229 13.2656 21.2189 19.3047C25.2033 21.4961 28.9181 24.0899 32.3009 27.0352C35.8243 30.0977 39.004 33.5586 41.7853 37.3442C43.0587 36.7192 44.4923 36.3715 46.0041 36.3715C47.5158 36.3715 48.9455 36.7231 50.2229 37.3442L50.2188 37.348ZM72.2738 20.766C68.2308 22.9379 64.4574 25.5512 61.0158 28.5472C57.633 31.4886 54.5783 34.8011 51.9181 38.4066C52.2306 38.6488 52.5275 38.9144 52.8048 39.1918C54.5548 40.9418 55.629 43.348 55.629 46.0004C55.629 48.6528 54.5509 51.059 52.8087 52.8012C52.5275 53.0824 52.2306 53.3441 51.9142 53.5902C54.5744 57.1996 57.629 60.5043 61.0119 63.4496C64.4533 66.4418 68.2228 69.0551 72.2659 71.2269C78.555 64.6839 82.4219 55.7889 82.4219 45.9969C82.4219 39.161 80.5391 32.7629 77.2696 27.3059C75.8516 24.9387 74.1719 22.7473 72.2696 20.7668L72.2738 20.766ZM40.0938 38.411C37.4336 34.8016 34.379 31.4969 30.9961 28.5516C27.5547 25.5594 23.7852 22.9461 19.7421 20.7743C13.453 27.3173 9.58609 36.2123 9.58609 46.0043C9.58609 55.8012 13.4533 64.6923 19.7421 71.2343C21.1132 70.496 22.4569 69.707 23.7655 68.871C25.2772 67.9062 26.7499 66.8671 28.1835 65.7655C28.6171 65.4296 29.246 65.5116 29.5819 65.9452C29.9178 66.3788 29.8358 67.0077 29.4022 67.3436C27.9413 68.4725 26.4139 69.5428 24.8397 70.5506C23.6678 71.3006 22.4608 72.0194 21.2264 72.6912C27.7264 78.7303 36.4374 82.4217 46.0074 82.4217C55.5816 82.4217 64.2884 78.7303 70.7924 72.6912C66.808 70.4998 63.0932 67.906 59.7104 64.9607C56.187 61.8982 53.0073 58.4373 50.226 54.6517C48.9526 55.2767 47.519 55.6244 46.0072 55.6244C44.4955 55.6244 43.0658 55.2728 41.7884 54.6517C40.8626 55.9134 39.89 57.14 38.8704 58.3314C37.6595 59.7455 36.386 61.1126 35.0618 62.4095C34.6673 62.7923 34.0345 62.7923 33.6516 62.3978C33.2688 62.0032 33.2688 61.3705 33.6633 60.9876C34.9524 59.7259 36.1867 58.4017 37.3547 57.0345C38.3039 55.9251 39.218 54.7728 40.0891 53.5892C39.7766 53.347 39.4797 53.0814 39.2024 52.804C37.4524 51.054 36.3782 48.6478 36.3782 45.9954C36.3782 43.343 37.4563 40.9368 39.1985 39.1946C39.4798 38.9134 39.7766 38.6516 40.093 38.4056L40.0938 38.411ZM31.2071 63.266C31.6251 62.9027 32.254 62.9496 32.6173 63.3637C32.9806 63.7816 32.9337 64.4106 32.5196 64.7739L32.0939 65.1449C31.6759 65.5082 31.047 65.4614 30.6837 65.0473C30.3204 64.6293 30.3672 64.0004 30.7813 63.6371L31.2071 63.266ZM51.3981 40.606C50.0192 39.2271 48.1129 38.3755 46.0036 38.3755C43.8943 38.3755 41.988 39.2271 40.613 40.606C39.2341 41.9849 38.3825 43.8951 38.3825 46.0005C38.3825 48.1099 39.2341 50.0161 40.613 51.3911C41.9919 52.77 43.9021 53.6216 46.0075 53.6216C48.113 53.6216 50.0231 52.77 51.3981 51.3911C52.777 50.0122 53.6286 48.102 53.6286 45.9966C53.6286 43.8911 52.777 41.981 51.3981 40.6021V40.606ZM59.6715 12.227C59.1637 12.0161 58.9215 11.434 59.1285 10.9262C59.3395 10.4184 59.9215 10.1762 60.4293 10.3832L60.9528 10.5981C61.4606 10.809 61.7028 11.391 61.4957 11.8989C61.2848 12.4067 60.7028 12.6489 60.1949 12.4418L59.6715 12.227ZM77.0305 14.977C69.093 7.0395 58.1205 2.129 46.0075 2.129C33.8905 2.129 22.9215 7.0392 14.9845 14.977C7.04749 22.9148 2.13649 33.887 2.13649 46C2.13649 58.117 7.04669 69.086 14.9845 77.023C22.9223 84.96 33.8945 89.871 46.0075 89.871C58.1245 89.871 69.0935 84.9608 77.0305 77.023C84.9675 69.0852 89.8785 58.113 89.8785 46C89.8785 33.887 84.9683 22.914 77.0305 14.977Z" fill="#AC0000"/>
</svg>
