<svg width="301" height="263" viewBox="0 0 301 263" fill="none" xmlns="http://www.w3.org/2000/svg">
<path d="M215.689 101.006L215.347 91.067C223.088 81.6654 223.381 56.0242 216.079 42.9368H218.741C222.16 42.9368 224.932 40.1529 224.932 36.7462C224.932 33.3273 222.148 30.5557 218.729 30.5557H210.939C206.153 18.2359 198.082 0.421631 191.538 0.421631H109.903C103.358 0.421631 95.2872 18.2359 90.501 30.5557H82.711C79.2921 30.5557 76.5205 33.3395 76.5205 36.7584C76.5205 40.1648 79.3044 42.9489 82.711 42.9489H85.3606C78.1811 55.8304 78.3521 80.9111 85.7391 90.6666L85.3972 100.679C85.3972 106.32 85.3972 112.718 95.3605 112.718C105.324 112.718 105.324 106.32 105.324 100.691L105.348 92.7055H195.714L195.738 101.082C195.738 106.723 195.738 113.121 205.701 113.121C215.689 113.096 215.689 106.696 215.689 101.006ZM218.753 33.6805C220.438 33.6805 221.818 35.0602 221.83 36.7452C221.83 38.4424 220.451 39.8099 218.766 39.8099H214.382C213.87 38.3325 213.113 36.1959 212.172 33.6684L218.753 33.6805ZM79.6704 36.7452C79.6704 35.048 81.0501 33.6683 82.7351 33.6683H89.3285C88.3883 36.1957 87.6313 38.3325 87.1185 39.8097H82.7353C81.0503 39.8097 79.6704 38.4301 79.6704 36.7452ZM89.4871 42.3128C89.5237 42.2639 89.5359 42.2029 89.5603 42.154C89.6092 42.0808 89.658 42.0075 89.6824 41.922C89.6946 41.9098 89.7068 41.8976 89.7068 41.8854C90.6836 39.0161 91.7947 35.9393 93.0036 32.8258C93.0524 32.7403 93.0768 32.6548 93.1012 32.5571C98.5835 18.4303 105.861 3.53398 109.914 3.53398H191.549C195.615 3.53398 202.892 18.4422 208.375 32.5693C208.399 32.6548 208.423 32.7281 208.46 32.8013C209.669 35.9271 210.78 39.004 211.757 41.8732C211.769 41.8854 211.781 41.8976 211.781 41.9098C211.818 41.9953 211.867 42.0685 211.916 42.154C211.94 42.2028 211.952 42.2517 211.989 42.3005C220.035 53.1797 220.255 81.3473 212.538 89.5524H88.9495C81.2326 81.3595 81.4408 53.1778 89.4871 42.3128ZM95.3966 109.579C88.559 109.579 88.559 106.6 88.559 100.727L88.8399 92.6926H102.271L102.246 100.678C102.234 106.6 102.234 109.579 95.3966 109.579ZM198.899 101.056L198.875 92.6923H212.282L212.575 101.068C212.575 107.002 212.575 109.982 205.737 109.982C198.899 109.969 198.899 106.99 198.899 101.056Z" fill="#AC0000"/>
<path d="M193.359 68.7704C193.359 73.7522 197.424 77.8179 202.406 77.8179C204.824 77.8179 207.095 76.8777 208.804 75.1683C210.514 73.4589 211.454 71.188 211.454 68.7702C211.454 63.7762 207.4 59.7228 202.406 59.7228C197.424 59.7228 193.359 63.7889 193.359 68.7704ZM202.406 62.8487C205.666 62.8487 208.328 65.5105 208.328 68.7704C208.328 70.3455 207.717 71.8351 206.594 72.9461C205.483 74.0694 203.981 74.6799 202.406 74.6799C199.146 74.6799 196.484 72.0182 196.484 68.7582C196.484 65.5102 199.134 62.8487 202.406 62.8487Z" fill="#AC0000"/>
<path d="M173.835 59.687H124.983C122.565 59.687 120.282 60.6272 118.572 62.3488C116.851 64.0582 115.911 66.3413 115.911 68.7712C115.911 73.7774 119.989 77.8431 124.995 77.8553H173.847C178.853 77.8553 182.919 73.7771 182.931 68.7834C182.906 63.765 178.829 59.687 173.835 59.687ZM173.823 74.7297H124.97C121.686 74.7297 119.012 72.0557 119.012 68.7714C119.012 67.1841 119.635 65.6823 120.758 64.5588C121.881 63.4353 123.371 62.8128 124.971 62.8128H173.823C177.107 62.8128 179.769 65.4868 179.769 68.7589C179.781 72.0556 177.107 74.7297 173.823 74.7297Z" fill="#AC0000"/>
<path d="M100.292 41.9702C100.341 42.0801 100.414 42.1655 100.475 42.2632C100.524 42.3365 100.561 42.4097 100.622 42.4708C100.903 42.7638 101.294 42.9348 101.733 42.9348H199.753C200.193 42.9348 200.584 42.7516 200.864 42.4708C200.925 42.4097 200.962 42.3121 201.023 42.2388C201.084 42.1533 201.157 42.0679 201.206 41.9702C201.365 41.6039 201.377 41.1643 201.206 40.7614L188.728 11.0303C188.642 10.8349 188.532 10.664 188.386 10.5296C188.361 10.5052 188.325 10.493 188.288 10.4686C188.019 10.2366 187.678 10.0901 187.287 10.0901L114.235 10.0779C114.028 10.0779 113.808 10.1145 113.625 10.2C113.564 10.2244 113.515 10.2732 113.454 10.3099C113.344 10.3709 113.222 10.432 113.124 10.5297C112.978 10.6762 112.855 10.8471 112.782 11.0303L100.304 40.7492C100.218 40.9324 100.181 41.1399 100.181 41.3597C100.169 41.5795 100.219 41.7871 100.292 41.9702ZM115.262 13.2036H186.226L197.398 39.809H104.088L115.262 13.2036Z" fill="#AC0000"/>
<path d="M99.0734 77.8068C99.0856 77.8068 99.0856 77.8068 99.0734 77.8068H99.0856C101.503 77.8068 103.774 76.8666 105.484 75.1572C107.193 73.4478 108.133 71.1769 108.133 68.7591C108.133 63.7651 104.067 59.7117 99.0858 59.7117C94.1043 59.7117 90.0383 63.7654 90.0383 68.7591C90.0383 71.1767 90.9785 73.4477 92.6879 75.1572C94.3973 76.8667 96.6678 77.8068 99.0734 77.8068ZM99.0856 62.8495C102.358 62.8495 105.007 65.5112 105.007 68.7712C105.007 70.3585 104.397 71.8359 103.274 72.9591C102.15 74.0822 100.685 74.7051 99.0856 74.6929C97.5105 74.6929 96.0209 74.0824 94.8978 72.9591C93.7745 71.848 93.1639 70.3584 93.1639 68.7712C93.1639 65.511 95.8134 62.8495 99.0856 62.8495Z" fill="#AC0000"/>
<path d="M74.2019 123.68C73.4327 123.277 72.4925 123.57 72.0896 124.339L0.894562 260.003C0.491622 260.76 0.784673 261.712 1.55391 262.115C1.7859 262.237 2.03008 262.298 2.2743 262.298C2.83596 262.298 3.3854 261.993 3.65403 261.456L74.8491 125.792C75.2642 125.023 74.959 124.083 74.2019 123.68Z" fill="#AC0000"/>
<path d="M96.1162 123.596C95.3103 123.303 94.4068 123.718 94.1137 124.536L45.0896 260.2C44.7965 261.018 45.2117 261.909 46.0297 262.202C46.2007 262.263 46.3838 262.288 46.567 262.288C47.2019 262.288 47.8002 261.885 48.0322 261.262L97.0689 125.598C97.3497 124.78 96.9343 123.889 96.1162 123.596Z" fill="#AC0000"/>
<path d="M300.596 260.003L229.401 124.34C228.998 123.571 228.046 123.29 227.289 123.681C226.532 124.083 226.227 125.024 226.63 125.793L297.825 261.456C298.105 261.994 298.643 262.299 299.204 262.299C299.449 262.299 299.693 262.238 299.925 262.116C300.706 261.713 300.999 260.773 300.596 260.003Z" fill="#AC0000"/>
<path d="M207.374 124.533C207.081 123.715 206.177 123.3 205.372 123.593C204.553 123.886 204.138 124.778 204.431 125.596L253.456 261.259C253.688 261.894 254.286 262.285 254.933 262.285C255.116 262.285 255.287 262.248 255.47 262.199C256.288 261.906 256.703 261.003 256.41 260.197L207.374 124.533Z" fill="#AC0000"/>
<path d="M152.089 130.226C151.222 130.226 150.526 130.922 150.526 131.788V146.929C150.526 147.796 151.222 148.492 152.089 148.492C152.956 148.492 153.652 147.796 153.652 146.929V131.788C153.652 130.934 152.956 130.226 152.089 130.226Z" fill="#AC0000"/>
<path d="M152.089 159.101C151.222 159.101 150.526 159.797 150.526 160.664V176.085C150.526 176.952 151.222 177.648 152.089 177.648C152.956 177.648 153.652 176.952 153.652 176.085V160.664C153.652 159.797 152.956 159.101 152.089 159.101Z" fill="#AC0000"/>
<path d="M152.089 188.54C151.222 188.54 150.526 189.236 150.526 190.102V211.409C150.526 212.276 151.222 212.972 152.089 212.972C152.956 212.972 153.652 212.276 153.652 211.409V190.102C153.652 189.236 152.956 188.54 152.089 188.54Z" fill="#AC0000"/>
<path d="M152.089 230.859C151.222 230.859 150.526 231.555 150.526 232.422V256.805C150.526 257.672 151.222 258.368 152.089 258.368C152.956 258.368 153.652 257.672 153.652 256.805V232.422C153.652 231.567 152.956 230.859 152.089 230.859Z" fill="#AC0000"/>
</svg>
