<svg xmlns="http://www.w3.org/2000/svg" version="1.1" viewBox="-5.0 -10.0 110.0 135.0">
 <path d="m70.777 40.375-0.10938-3.1797c2.4766-3.0078 2.5703-11.211 0.23438-15.398h0.85156c1.0938 0 1.9805-0.89062 1.9805-1.9805 0-1.0938-0.89062-1.9805-1.9844-1.9805h-2.4922c-1.5312-3.9414-4.1133-9.6406-6.207-9.6406h-26.117c-2.0938 0-4.6758 5.6992-6.207 9.6406h-2.4922c-1.0938 0-1.9805 0.89062-1.9805 1.9844 0 1.0898 0.89062 1.9805 1.9805 1.9805h0.84766c-2.2969 4.1211-2.2422 12.145 0.12109 15.266l-0.10938 3.2031c0 1.8047 0 3.8516 3.1875 3.8516s3.1875-2.0469 3.1875-3.8477l0.007812-2.5547h28.91l0.007812 2.6797c0 1.8047 0 3.8516 3.1875 3.8516 3.1953-0.007812 3.1953-2.0547 3.1953-3.875zm0.98047-21.539c0.53906 0 0.98047 0.44141 0.98438 0.98047 0 0.54297-0.44141 0.98047-0.98047 0.98047h-1.4023c-0.16406-0.47266-0.40625-1.1562-0.70703-1.9648zm-44.496 0.98047c0-0.54297 0.44141-0.98438 0.98047-0.98438h2.1094c-0.30078 0.80859-0.54297 1.4922-0.70703 1.9648h-1.4023c-0.53906 0-0.98047-0.44141-0.98047-0.98047zm3.1406 1.7812c0.011718-0.015625 0.015625-0.035156 0.023437-0.050781 0.015625-0.023437 0.03125-0.046875 0.039063-0.074219 0.003906-0.003906 0.007812-0.007812 0.007812-0.011718 0.3125-0.91797 0.66797-1.9023 1.0547-2.8984 0.015625-0.027344 0.023437-0.054688 0.03125-0.085938 1.7539-4.5195 4.082-9.2852 5.3789-9.2852h26.117c1.3008 0 3.6289 4.7695 5.3828 9.2891 0.007812 0.027343 0.015625 0.050781 0.027344 0.074219 0.38672 1 0.74219 1.9844 1.0547 2.9023 0.003907 0.003907 0.007813 0.007813 0.007813 0.011719 0.011718 0.027344 0.027344 0.050781 0.042968 0.078125 0.007813 0.015625 0.011719 0.03125 0.023438 0.046875 2.5742 3.4805 2.6445 12.492 0.17578 15.117h-39.539c-2.4688-2.6211-2.4023-11.637 0.17188-15.113zm1.8906 21.52c-2.1875 0-2.1875-0.95313-2.1875-2.832l0.089843-2.5703h4.2969l-0.007813 2.5547c-0.003906 1.8945-0.003906 2.8477-2.1914 2.8477zm33.113-2.7266-0.007812-2.6758h4.2891l0.09375 2.6797c0 1.8984 0 2.8516-2.1875 2.8516-2.1875-0.003906-2.1875-0.95703-2.1875-2.8555z"/>
 <path d="m63.633 30.062c0 1.5938 1.3008 2.8945 2.8945 2.8945 0.77344 0 1.5-0.30078 2.0469-0.84766s0.84766-1.2734 0.84766-2.0469c0-1.5977-1.2969-2.8945-2.8945-2.8945-1.5938 0-2.8945 1.3008-2.8945 2.8945zm2.8945-1.8945c1.043 0 1.8945 0.85156 1.8945 1.8945 0 0.50391-0.19531 0.98047-0.55469 1.3359-0.35547 0.35937-0.83594 0.55469-1.3398 0.55469-1.043 0-1.8945-0.85156-1.8945-1.8945 0-1.0391 0.84766-1.8906 1.8945-1.8906z"/>
 <path d="m57.387 27.156h-15.629c-0.77344 0-1.5039 0.30078-2.0508 0.85156-0.55078 0.54688-0.85156 1.2773-0.85156 2.0547 0 1.6016 1.3047 2.9023 2.9062 2.9062h15.629c1.6016 0 2.9023-1.3047 2.9062-2.9023-0.007813-1.6055-1.3125-2.9102-2.9102-2.9102zm-0.003907 4.8125h-15.629c-1.0508 0-1.9062-0.85547-1.9062-1.9062 0-0.50781 0.19922-0.98828 0.55859-1.3477s0.83594-0.55859 1.3477-0.55859h15.629c1.0508 0 1.9023 0.85547 1.9023 1.9023 0.003906 1.0547-0.85156 1.9102-1.9023 1.9102z"/>
 <path d="m33.859 21.488c0.015625 0.035157 0.039063 0.0625 0.058594 0.09375 0.015625 0.023438 0.027343 0.046875 0.046875 0.066407 0.089844 0.09375 0.21484 0.14844 0.35547 0.14844h31.359c0.14062 0 0.26562-0.058594 0.35547-0.14844 0.019532-0.019532 0.03125-0.050782 0.050782-0.074219 0.019531-0.027344 0.042968-0.054688 0.058593-0.085938 0.050781-0.11719 0.054688-0.25781 0-0.38672l-3.9922-9.5117c-0.027344-0.0625-0.0625-0.11719-0.10938-0.16016-0.007813-0.007813-0.019531-0.011719-0.03125-0.019532-0.085938-0.074218-0.19531-0.12109-0.32031-0.12109l-23.371-0.003906c-0.066406 0-0.13672 0.011719-0.19531 0.039063-0.019531 0.007812-0.035156 0.023437-0.054688 0.035156-0.035156 0.019531-0.074218 0.039063-0.10547 0.070313-0.046875 0.046874-0.085938 0.10156-0.10938 0.16016l-3.9922 9.5078c-0.027343 0.058594-0.039062 0.125-0.039062 0.19531-0.003907 0.070312 0.011719 0.13672 0.035156 0.19531zm4.7891-9.2031h22.703l3.5742 8.5117h-29.852z"/>
 <path d="m33.469 32.953c0.003906 0 0.003906 0 0 0h0.003906c0.77344 0 1.5-0.30078 2.0469-0.84766s0.84766-1.2734 0.84766-2.0469c0-1.5977-1.3008-2.8945-2.8945-2.8945s-2.8945 1.2969-2.8945 2.8945c0 0.77344 0.30078 1.5 0.84766 2.0469s1.2734 0.84766 2.043 0.84766zm0.003906-4.7852c1.0469 0 1.8945 0.85156 1.8945 1.8945 0 0.50781-0.19531 0.98047-0.55469 1.3398s-0.82812 0.55859-1.3398 0.55469c-0.50391 0-0.98047-0.19531-1.3398-0.55469-0.35937-0.35547-0.55469-0.83203-0.55469-1.3398 0-1.043 0.84766-1.8945 1.8945-1.8945z"/>
 <path d="m25.512 47.629c-0.24609-0.12891-0.54688-0.035156-0.67578 0.21094l-22.777 43.402c-0.12891 0.24219-0.035156 0.54687 0.21094 0.67578 0.074219 0.039062 0.15234 0.058593 0.23047 0.058593 0.17969 0 0.35547-0.097656 0.44141-0.26953l22.777-43.402c0.13281-0.24609 0.035156-0.54688-0.20703-0.67578z"/>
 <path d="m32.523 47.602c-0.25781-0.09375-0.54688 0.039063-0.64063 0.30078l-15.684 43.402c-0.09375 0.26172 0.039062 0.54687 0.30078 0.64062 0.054688 0.019532 0.11328 0.027344 0.17188 0.027344 0.20312 0 0.39453-0.12891 0.46875-0.32812l15.688-43.402c0.089844-0.26172-0.042969-0.54688-0.30469-0.64063z"/>
 <path d="m97.941 91.242-22.777-43.402c-0.12891-0.24609-0.43359-0.33594-0.67578-0.21094-0.24219 0.12891-0.33984 0.42969-0.21094 0.67578l22.777 43.402c0.089843 0.17188 0.26172 0.26953 0.44141 0.26953 0.078125 0 0.15625-0.019531 0.23047-0.058593 0.25-0.12891 0.34375-0.42969 0.21484-0.67578z"/>
 <path d="m68.117 47.902c-0.09375-0.26172-0.38281-0.39453-0.64063-0.30078-0.26172 0.09375-0.39453 0.37891-0.30078 0.64063l15.684 43.402c0.074219 0.20312 0.26562 0.32812 0.47266 0.32812 0.058594 0 0.11328-0.011718 0.17188-0.027344 0.26172-0.09375 0.39453-0.38281 0.30078-0.64062z"/>
 <path d="m50.43 49.723c-0.27734 0-0.5 0.22266-0.5 0.5v4.8438c0 0.27734 0.22266 0.5 0.5 0.5 0.27734 0 0.5-0.22266 0.5-0.5v-4.8438c0-0.27344-0.22266-0.5-0.5-0.5z"/>
 <path d="m50.43 58.961c-0.27734 0-0.5 0.22266-0.5 0.5v4.9336c0 0.27734 0.22266 0.5 0.5 0.5 0.27734 0 0.5-0.22266 0.5-0.5v-4.9336c0-0.27734-0.22266-0.5-0.5-0.5z"/>
 <path d="m50.43 68.379c-0.27734 0-0.5 0.22266-0.5 0.5v6.8164c0 0.27734 0.22266 0.5 0.5 0.5 0.27734 0 0.5-0.22266 0.5-0.5v-6.8164c0-0.27734-0.22266-0.5-0.5-0.5z"/>
 <path d="m50.43 81.918c-0.27734 0-0.5 0.22266-0.5 0.5v7.8008c0 0.27734 0.22266 0.5 0.5 0.5 0.27734 0 0.5-0.22266 0.5-0.5v-7.8008c0-0.27344-0.22266-0.5-0.5-0.5z"/>
<text x="0.0" y="117.5" font-size="5.0" font-weight="bold" font-family="Arbeit Regular, Helvetica, Arial-Unicode, Arial, Sans-serif" fill="#000000">Created by Houda Mbarki</text><text x="0.0" y="122.5" font-size="5.0" font-weight="bold" font-family="Arbeit Regular, Helvetica, Arial-Unicode, Arial, Sans-serif" fill="#000000">from Noun Project</text></svg>