<svg width="666" height="251" viewBox="0 0 666 251" fill="none" xmlns="http://www.w3.org/2000/svg">
<path d="M82.9108 88.5763L55.3689 90.7966L80.4977 92.5615L72.3731 106.441H142.791L152.877 88.5763H82.9108ZM182.665 95.9603C180.561 99.5015 178.303 103.048 176.347 106.589H247.371C250.075 101.864 251.728 98.9151 252.031 98.619C254.289 95.2202 255.942 91.8271 257.445 88.7243H186.427C185.375 90.9446 184.02 93.4553 182.665 95.9603ZM165.512 125.935C165.512 125.935 164.609 127.557 163.105 130.364H233.672C237.891 122.98 241.951 116.04 245.113 110.575H174.083C169.12 119.143 165.512 125.935 165.512 125.935ZM159.195 137.008C154.975 144.239 149.263 153.985 143.694 162.696C138.731 170.376 134.518 175.244 128.497 175.244C118.417 175.244 104.575 174.657 104.575 174.657L125.638 137.008H54.4715L31.5952 138.927L52.6647 140.253L38.8165 163.732L0 165.651L37.0156 166.977L14.8942 204.626C14.8942 204.626 111.796 205.366 156.336 204.626C193.952 203.886 203.883 182.184 203.883 182.184C203.883 182.184 217.125 159.007 229.761 137.15H159.195V137.008ZM69.966 110.427L31.1495 111.759L68.1592 113.677L58.3823 130.359H129.406L140.538 110.432L69.966 110.427ZM230.516 39.854H111.35L103.82 52.6978H255.341C249.172 44.4313 239.092 39.854 230.516 39.854ZM261.213 68.4964C260.816 63.5568 259.273 58.7644 256.696 54.4684H102.916L74.7802 56.5407L100.961 57.7192L94.6431 68.4964H261.213ZM93.288 70.7111L54.3169 72.6297L91.6357 73.5178L84.563 85.6272H154.38L159.943 75.7324H180.864C187.479 75.7324 188.686 80.1617 187.331 85.6272H258.652C260.613 80.3098 261.511 75.2884 261.511 70.7111H93.288ZM464.419 108.542V108.4L450.018 109.561L463.201 111.298L455.926 127.671H524.882L531.092 108.542H464.419ZM473.81 87.3921H473.661L459.415 88.5478L472.597 89.7035L466.083 104.631H532.305L537.761 87.3864L473.81 87.3921ZM552.762 40.7251H552.614L552.762 39.854H494.731L489.578 51.5933H549.285L552.762 40.7251ZM488.811 53.3298L469.566 55.3622L487.45 56.3756L482.755 66.9536H544.429L548.828 53.3298H488.811ZM522.908 134.19L522.76 134.338V134.196H453.049L439.409 135.932L451.688 137.094L441.382 160.282L421.983 161.728L440.319 162.741L424.105 199.263H552.614L598.836 134.19H522.908ZM481.845 69.1283L464.11 71.0071L480.633 71.8782L475.022 84.4886H538.676L543.669 69.1283H481.845ZM587.923 53.3298L572.316 54.7815L586.253 55.5046L576.863 66.9536H646.419L656.118 53.3298H587.923ZM665.057 39.854H598.681L589.29 51.5933H657.331L665.663 39.854M575.193 69.1283L558.979 70.8648L573.225 71.5935L562.765 84.4886H633.991L644.903 69.1283H575.193ZM560.643 87.3921H560.495L543.675 88.3998L558.979 89.2708L546.7 104.631H619.745L632.024 87.3864L560.643 87.3921ZM528.061 127.671H603.382L617.017 108.542H543.526L528.061 127.671ZM371.107 41.1634H370.959L371.113 39.854H308.939L301.985 51.5933H370.65L371.107 41.1634Z" fill="black"/>
<path d="M252.833 134.188H252.685L239.223 135.782L251.169 136.807L237.107 160.422L215.628 161.874L235.597 162.888L213.963 199.261H280.815L307.887 150.425L306.681 197.525L356.439 153.613L331.786 199.261H402.429L432.224 134.188H252.833ZM268.108 108.541L250.414 109.412L266.598 111.006L256.613 127.67H435.243L444.015 108.541H268.108ZM280.666 87.3903L264.179 88.6884L279.002 89.9978L270.384 104.629H445.834L453.691 87.3847L280.666 87.3903ZM475.474 39.8523H412.706L401.817 51.5916H470.03L475.474 39.8523ZM291.555 69.1266L269.172 71.0054L289.891 71.8764L282.331 84.4868H369.598L370.056 69.1266H291.555ZM301.688 53.328L276.583 55.0702L299.269 56.2259L292.767 66.9518H370.204L370.656 53.328H301.688ZM400.153 53.328L374.436 55.3605L397.27 56.3739L387.44 66.9518H462.916L469.269 53.328H400.153ZM385.788 69.1266L373.378 70.14L383.969 70.7207L371.113 84.4868H454.904L462.012 69.1266H385.788ZM17.8304 216.643H26.9119C35.2327 216.643 40.5343 222.336 40.5343 229.822C40.5343 237.315 35.0841 243.008 26.9119 243.008H17.8304V216.643ZM27.0605 240.161C33.5745 240.161 37.3545 235.516 37.3545 229.97C37.3545 224.277 33.7231 219.637 27.0605 219.637H21.3132V240.161H27.0605ZM54.7628 223.531C60.6646 223.531 63.993 228.029 63.993 233.722V234.468H48.4034C48.7065 238.066 51.1314 241.061 55.369 241.061C57.6394 241.061 59.7553 240.161 61.2709 238.67L62.7864 240.611C60.8192 242.558 58.2457 243.606 55.06 243.606C49.3127 243.606 45.2296 239.563 45.2296 233.568C45.2296 228.029 49.3127 223.531 54.7628 223.531ZM48.4034 232.373H61.1223C61.1223 229.526 59.1491 225.928 54.7628 225.928C50.6737 225.928 48.5579 229.373 48.4034 232.373ZM69.4431 250.352V223.981H72.4742V226.828C73.8353 224.881 76.2542 223.531 78.9823 223.531C84.1233 223.531 87.6062 227.278 87.6062 233.568C87.6062 239.717 84.1233 243.606 78.9823 243.606C76.4088 243.606 73.9898 242.41 72.4742 240.315V250.5H69.4431V250.352ZM78.2215 226.082C75.8025 226.082 73.5262 227.426 72.4742 229.077V237.764C73.5322 239.415 75.8025 240.913 78.2215 240.913C82.1561 240.913 84.4264 237.764 84.4264 233.568C84.4264 229.225 82.1561 226.082 78.2215 226.082ZM105.163 240.913C103.499 242.712 101.379 243.609 98.8036 243.606C95.4753 243.606 91.9984 241.362 91.9984 237.315C91.9984 232.971 95.4812 231.024 98.8095 231.024C101.383 231.024 103.653 231.923 105.169 233.568V230.124C105.169 227.579 103.047 226.082 100.319 226.082C98.0488 226.082 96.0815 226.98 94.4173 228.775L93.0563 226.68C94.0326 225.656 95.2272 224.845 96.5592 224.302C97.8913 223.758 99.3296 223.496 100.777 223.531C104.86 223.531 108.194 225.33 108.194 229.976V243.161H105.163V240.913ZM105.163 235.368C103.957 233.717 101.989 232.976 99.8734 232.976C97.1394 232.976 95.1781 234.77 95.1781 237.167C95.1781 239.558 97.1394 241.362 99.8734 241.362C101.989 241.362 103.957 240.611 105.163 238.966V235.368ZM114.702 223.981H117.733V227.129C119.243 225.182 121.513 223.679 124.235 223.679V226.68C123.938 226.526 123.481 226.526 123.023 226.526C121.21 226.526 118.637 228.029 117.733 229.526V243.008H114.702V223.981ZM129.079 239.114V226.68H125.9V224.129H129.079V218.738H132.111V223.981H136.045V226.526H132.111V238.368C132.111 239.865 132.711 240.759 134.072 240.759C134.981 240.759 135.736 240.463 136.045 240.013L136.948 242.262C136.194 243.008 135.136 243.458 133.323 243.458C130.589 243.606 129.079 241.96 129.079 239.114ZM164.193 230.124C164.193 227.727 163.135 226.23 160.568 226.23C158.594 226.23 156.479 227.727 155.415 229.225V243.161H152.389V230.124C152.389 227.727 151.332 226.23 148.758 226.23C146.791 226.23 144.669 227.727 143.611 229.225V243.161H140.58V223.981H143.611V226.68C144.366 225.484 146.939 223.378 149.816 223.378C152.847 223.378 154.511 225.029 154.963 226.976C155.652 225.907 156.607 225.019 157.743 224.392C158.879 223.765 160.16 223.418 161.471 223.383C164.954 223.383 166.921 225.33 166.921 229.225V243.008H163.89V230.124H164.193ZM182.208 223.531C188.109 223.531 191.444 228.029 191.444 233.722V234.468H175.848C176.151 238.066 178.576 241.061 182.814 241.061C185.084 241.061 187.2 240.161 188.716 238.67L190.231 240.611C188.264 242.558 185.691 243.606 182.511 243.606C176.758 243.606 172.674 239.563 172.674 233.568C172.674 228.029 176.609 223.531 182.208 223.531ZM175.848 232.373H188.567C188.567 229.526 186.6 225.928 182.208 225.928C177.97 225.928 176.003 229.373 175.848 232.373ZM209.904 230.574C209.904 227.278 208.24 226.076 205.518 226.076C203.093 226.076 200.977 227.579 199.765 229.077V243.008H196.733V223.833H199.765V226.526C201.132 224.881 203.699 223.235 206.576 223.235C210.665 223.235 212.781 225.182 212.781 229.373V242.86H209.755V230.574H209.904ZM220.049 239.114V226.68H216.87V224.129H220.049V218.738H223.081V223.981H227.009V226.526H223.075V238.368C223.075 239.865 223.681 240.759 225.042 240.759C225.951 240.759 226.706 240.463 227.009 240.013L227.919 242.262C227.164 243.008 226.1 243.458 224.287 243.458C221.559 243.606 220.049 241.96 220.049 239.114ZM241.695 233.42C241.695 227.875 245.321 223.383 251.229 223.383C257.13 223.383 260.762 227.881 260.762 233.42C260.762 238.966 257.136 243.458 251.229 243.458C245.327 243.606 241.695 238.96 241.695 233.42ZM257.588 233.42C257.588 229.526 255.318 226.076 251.229 226.076C247.14 226.076 244.721 229.526 244.721 233.42C244.721 237.315 246.991 240.765 251.229 240.765C255.318 240.913 257.588 237.463 257.588 233.42ZM267.121 226.532H263.942V223.981H267.121V222.484C267.121 218.59 269.392 216.341 272.72 216.341C273.784 216.341 274.842 216.489 275.597 216.939L274.842 219.188C274.346 218.883 273.767 218.726 273.178 218.738C271.21 218.738 270.147 220.087 270.147 222.484V223.981H274.081V226.526H270.147V243.008H267.121V226.532ZM311.923 221.135L302.841 243.161H301.48L292.399 221.135V243.161H289.07V216.791H293.766L302.087 236.865L310.407 216.791H315.103V243.161H311.774V221.135H311.923ZM320.856 233.42C320.856 227.875 324.481 223.383 330.389 223.383C336.291 223.383 339.928 227.881 339.928 233.42C339.928 238.966 336.291 243.458 330.389 243.458C324.636 243.606 320.856 238.96 320.856 233.42ZM336.903 233.42C336.903 229.526 334.627 226.076 330.544 226.076C326.461 226.076 324.036 229.526 324.036 233.42C324.036 237.315 326.306 240.765 330.544 240.765C334.627 240.913 336.903 237.463 336.903 233.42ZM346.133 239.114V226.68H342.953V224.129H346.133V218.738H349.158V223.981H353.093V226.526H349.158V238.368C349.158 239.865 349.765 240.759 351.126 240.759C352.035 240.759 352.79 240.463 353.093 240.013L354.002 242.262C353.248 243.008 352.184 243.458 350.371 243.458C347.494 243.606 346.133 241.96 346.133 239.114ZM356.724 233.42C356.724 227.875 360.362 223.383 366.264 223.383C372.165 223.383 375.797 227.881 375.797 233.42C375.797 238.966 372.165 243.458 366.264 243.458C360.362 243.606 356.724 238.96 356.724 233.42ZM372.617 233.42C372.617 229.526 370.347 226.076 366.258 226.076C362.175 226.076 359.756 229.526 359.756 233.42C359.756 237.315 362.026 240.765 366.264 240.765C370.347 240.913 372.617 237.463 372.617 233.42ZM381.247 223.981H384.278V227.129C385.788 225.182 388.058 223.679 390.78 223.679V226.68C390.483 226.526 390.025 226.526 389.574 226.526C387.755 226.526 385.182 228.029 384.272 229.526V243.008H381.247V223.981ZM403.345 216.643H407.131L416.058 239.415L424.991 216.643H428.777L418.025 243.008H413.942L403.345 216.643ZM438.916 223.531C444.818 223.531 448.146 228.029 448.146 233.722V234.468H432.562C432.866 238.066 435.291 241.061 439.528 241.061C441.799 241.061 443.914 240.161 445.43 238.67L446.946 240.611C444.978 242.558 442.405 243.606 439.219 243.606C433.472 243.606 429.383 239.563 429.383 233.568C429.383 228.029 433.466 223.531 438.916 223.531ZM432.562 232.373H445.281C445.281 229.526 443.308 225.928 438.922 225.928C434.833 225.928 432.717 229.373 432.562 232.373ZM466.767 230.426C466.767 227.124 464.948 226.082 462.375 226.082C460.104 226.082 457.834 227.579 456.627 229.077V243.008H453.596V216.643H456.627V226.68C457.988 225.029 460.562 223.378 463.587 223.378C467.676 223.378 469.792 225.33 469.792 229.526V243.008H466.761L466.767 230.426ZM475.848 218.738C475.848 217.69 477.215 216.791 478.82 216.791C480.419 216.791 481.792 217.69 481.792 218.738C481.792 219.785 480.419 220.685 478.82 220.685C477.215 220.685 475.848 219.785 475.848 218.738ZM476.532 223.981H481.108V243.161H476.532V223.981ZM494.463 223.531C497.946 223.531 500.068 225.029 501.578 226.833L499.616 228.627C499.117 227.828 498.404 227.171 497.552 226.724C496.699 226.277 495.738 226.055 494.766 226.082C490.683 226.082 488.11 229.225 488.11 233.42C488.11 237.616 490.683 240.765 494.766 240.765C495.738 240.79 496.698 240.567 497.55 240.119C498.401 239.671 499.112 239.013 499.61 238.214L501.578 240.013C500.068 241.96 497.946 243.31 494.463 243.31C488.716 243.31 484.775 238.966 484.775 233.272C484.775 227.875 488.716 223.531 494.463 223.531ZM506.273 216.643H509.298V243.008H506.267L506.273 216.643ZM524.281 223.531C530.183 223.531 533.517 228.029 533.517 233.722V234.468H517.928C518.225 238.066 520.65 241.061 524.888 241.061C527.158 241.061 529.28 240.161 530.789 238.67L532.305 240.611C530.338 242.558 527.764 243.606 524.585 243.606C518.831 243.606 514.748 239.563 514.748 233.568C514.748 228.029 518.831 223.531 524.281 223.531ZM517.922 232.373H530.641C530.641 229.526 528.674 225.928 524.281 225.928C520.198 225.928 518.076 229.373 517.922 232.373ZM538.813 238.362C540.026 239.865 542.599 241.061 545.173 241.061C548.198 241.061 549.713 239.711 549.713 237.912C549.713 235.817 547.288 235.219 544.721 234.468C541.387 233.722 537.755 232.817 537.755 228.929C537.755 225.928 540.329 223.383 545.018 223.383C548.346 223.383 550.617 224.579 552.132 226.082L550.765 228.177C550.035 227.415 549.147 226.808 548.157 226.395C547.167 225.982 546.098 225.773 545.018 225.78C542.444 225.78 540.78 226.976 540.78 228.627C540.78 230.426 543.051 231.018 545.476 231.621C548.804 232.373 552.739 233.272 552.739 237.616C552.739 240.759 550.165 243.458 545.173 243.458C541.993 243.458 539.265 242.558 537.298 240.463L538.813 238.362ZM117.478 19.7838C117.478 20.4955 117.632 21.2071 117.781 21.7764C118.084 22.3457 118.393 22.9151 118.851 23.342C119.382 23.7857 120.001 24.1243 120.669 24.3384C121.424 24.623 122.185 24.623 123.094 24.623C124.01 24.623 124.764 24.4807 125.531 24.3384C126.211 24.2281 126.843 23.9314 127.35 23.4844C127.802 23.0574 128.105 22.6304 128.408 22.2034C128.717 21.7764 128.717 21.2071 128.717 20.6378C128.723 20.1717 128.616 19.7107 128.404 19.2909C128.193 18.8711 127.883 18.504 127.498 18.2182C126.624 17.5982 125.65 17.1176 124.616 16.7949C123.403 16.3679 122.185 16.0832 120.818 15.6563C119.522 15.2654 118.255 14.7899 117.026 14.233C115.808 13.6636 114.898 12.8097 114.138 11.8134C113.383 10.817 112.925 9.53608 112.925 7.82813C112.925 6.83182 113.228 5.83551 113.686 4.98153C114.138 3.98523 114.898 3.27358 115.659 2.56193C116.57 1.85218 117.632 1.28286 118.845 0.853977C121.381 -0.10281 124.202 -0.10281 126.738 0.853977C127.956 1.28097 128.865 1.85028 129.775 2.70426C130.536 3.41591 131.296 4.41222 131.748 5.40852C132.2 6.40483 132.509 7.54347 132.509 8.82443H128.111C128.111 8.11278 127.956 7.40114 127.802 6.83182C127.539 6.25739 127.18 5.7284 126.738 5.26619C126.261 4.82685 125.695 4.48753 125.074 4.26989C124.455 3.98523 123.701 3.98523 123.088 3.98523C122.334 3.98523 121.573 4.12756 120.812 4.26989C120.206 4.55455 119.6 4.8392 119.148 5.12386C118.69 5.55085 118.387 5.97784 118.078 6.40483C117.781 6.83182 117.781 7.40114 117.781 7.82813C117.774 8.2937 117.881 8.7544 118.091 9.17417C118.301 9.59393 118.61 9.96137 118.993 10.2477C119.748 10.817 120.658 11.244 121.876 11.671C123.094 12.098 124.307 12.525 125.674 12.8097C127.041 13.2366 128.253 13.6636 129.466 14.233C130.678 14.8023 131.593 15.6563 132.354 16.6526C133.18 17.8284 133.604 19.2211 133.567 20.6378C133.567 21.6341 133.264 22.6304 132.806 23.4844C132.354 24.3384 131.593 25.1923 130.833 25.904C129.875 26.635 128.799 27.2119 127.647 27.6119C126.429 28.0389 124.913 28.3236 123.397 28.3236C121.876 28.3236 120.36 28.0389 119.142 27.6119C117.956 27.217 116.87 26.5864 115.956 25.7616C115.085 25.0222 114.409 24.0955 113.983 23.0574C113.483 21.9323 113.224 20.7221 113.222 19.4991H117.472L117.478 19.7838ZM144.045 28.1812V4.12756H135.094V0.284659H157.412V4.12756H148.455V28.1812H144.045ZM156.193 28.1812L167.426 0.284659H171.373L182.606 28.1812H177.905L175.319 21.7764H163.325L160.746 28.1812H156.193ZM164.995 17.9335H173.958L169.4 6.54716L164.995 17.9335ZM190.35 28.1812V4.12756H181.393V0.284659H203.711V4.12756H194.754V28.1812H190.35ZM207.961 28.1812V0.284659H227.395V4.12756H212.359V11.9557H226.177V15.7986H212.359V24.3384H227.847V28.1812H207.961ZM250.622 27.3273C248.93 26.6007 247.388 25.5883 246.07 24.3384C244.703 23.0574 243.793 21.4918 243.033 19.7838C242.244 18.0302 241.832 16.1424 241.82 14.233C241.82 12.2403 242.272 10.3901 243.033 8.6821C243.793 6.97415 244.851 5.40852 246.064 4.12756C247.431 2.84659 248.798 1.85028 250.622 1.13864C252.293 0.426989 254.117 0 255.936 0C257.755 0 259.579 0.426989 261.249 1.13864C262.921 1.85218 264.439 2.84849 265.802 4.12756C267.169 5.40852 268.084 6.97415 268.839 8.6821C269.6 10.3901 270.057 12.2403 270.057 14.233C270.057 16.2256 269.6 18.0759 268.839 19.7838C268.096 21.4511 267.072 22.9899 265.808 24.3384C264.441 25.6193 263.074 26.6156 261.249 27.3273C259.585 28.0389 257.76 28.4659 255.936 28.4659C254.117 28.4659 252.447 28.0389 250.622 27.3273ZM259.734 23.769C260.946 23.1997 261.855 22.4881 262.765 21.6341C263.674 20.7801 264.286 19.6415 264.893 18.3605C265.499 17.0795 265.653 15.6563 265.653 14.233C265.653 12.8097 265.35 11.3864 264.893 10.1054C264.286 8.82443 263.68 7.6858 262.771 6.83182C261.86 5.99428 260.836 5.27635 259.728 4.69688C258.59 4.19054 257.344 3.9468 256.09 3.98523C254.872 3.98523 253.659 4.26989 252.447 4.69688C251.317 5.24061 250.29 5.9623 249.41 6.83182C248.495 7.6858 247.888 8.82443 247.282 10.1054C246.676 11.3864 246.521 12.8097 246.521 14.233C246.521 15.6563 246.83 17.0795 247.282 18.3605C247.888 19.6415 248.495 20.7801 249.41 21.6341C250.319 22.4881 251.383 23.1997 252.441 23.769C253.659 24.3384 254.878 24.4807 256.09 24.4807C257.303 24.4807 258.515 24.3384 259.734 23.769ZM275.216 28.1812V0.284659H294.045V4.12756H279.769V12.525H291.46V16.3679H279.769V28.1812H275.216ZM334.579 18.7875C334.276 19.6415 333.973 20.4955 333.509 21.3494C333.058 22.2034 332.606 22.9151 332 23.6267C331.394 24.3384 330.781 25.05 330.021 25.6193C329.266 26.1886 328.505 26.758 327.596 27.1849C326.665 27.596 325.698 27.9293 324.707 28.1812C323.649 28.4659 322.585 28.4659 321.522 28.4659C319.697 28.4659 317.878 28.0389 316.208 27.3273C314.516 26.6007 312.973 25.5883 311.655 24.3384C310.288 23.0574 309.379 21.4918 308.618 19.7838C307.828 18.0306 307.413 16.1428 307.4 14.233C307.4 12.2403 307.858 10.3901 308.618 8.6821C309.379 6.97415 310.437 5.40852 311.649 4.12756C313.016 2.84659 314.383 1.85028 316.208 1.13864C317.872 0.426989 319.697 0 321.522 0C322.585 0 323.649 0.14233 324.707 0.284659C325.622 0.569318 326.532 0.853977 327.441 1.28097C328.35 1.70795 329.111 2.13494 329.872 2.84659C330.633 3.41591 331.239 4.12756 331.845 4.8392C332.451 5.55085 332.909 6.40483 333.361 7.11648C333.813 7.82813 334.122 8.82443 334.431 9.67841H329.717C329.569 8.82443 329.111 8.11278 328.66 7.40114C328.202 6.68949 327.59 6.12017 326.989 5.55085C326.282 4.96148 325.451 4.52462 324.553 4.26989C323.625 3.97755 322.653 3.8333 321.676 3.8429C320.458 3.8429 319.239 4.12756 318.027 4.55455C316.899 5.09882 315.874 5.82048 314.996 6.68949C314.08 7.54347 313.474 8.6821 312.868 9.96307C312.262 11.244 312.107 12.6673 312.107 14.0906C312.107 15.5139 312.41 16.9372 312.868 18.2182C313.474 19.4991 314.08 20.4955 314.996 21.4918C315.905 22.4881 316.969 23.1997 318.027 23.6267C319.245 24.196 320.464 24.3384 321.676 24.3384C322.734 24.3384 323.798 24.196 324.707 23.9114C325.617 23.6267 326.377 23.1997 327.144 22.6304C327.899 22.0611 328.505 21.4918 328.963 20.7801C329.42 20.0685 329.872 19.3568 330.021 18.5028H334.579V18.7875ZM336.398 28.1812L347.631 0.284659H351.583L362.816 28.1812H358.109L355.53 21.7764H343.53L340.951 28.1812H336.398ZM345.052 17.9335H354.008L349.456 6.54716L345.052 17.9335ZM367.221 28.1812V0.284659H371.773V24.3384H385.895V28.1812H367.221ZM390.751 28.1812V0.284659H395.303V28.1812H390.751ZM403.351 28.1812V0.284659H422.173V4.12756H407.909V12.525H419.594V16.3679H407.903V28.1812H403.351ZM433.87 27.3273C432.175 26.6013 430.631 25.5889 429.311 24.3384C427.944 23.0574 427.035 21.4918 426.28 19.7838C425.489 18.0306 425.075 16.1428 425.062 14.233C425.062 12.2403 425.514 10.3901 426.274 8.6821C427.035 6.97415 428.099 5.40852 429.311 4.12756C430.678 2.84659 432.045 1.85028 433.864 1.13864C435.534 0.426989 437.359 0 439.178 0C440.996 0 442.821 0.426989 444.491 1.13864C446.163 1.85218 447.683 2.84849 449.05 4.12756C450.417 5.40852 451.326 6.97415 452.081 8.6821C452.841 10.3901 453.299 12.2403 453.299 14.233C453.299 16.2256 452.841 18.0759 452.087 19.7838C451.342 21.4515 450.316 22.9903 449.05 24.3384C447.683 25.6193 446.316 26.6156 444.491 27.3273C442.827 28.0389 441.002 28.4659 439.178 28.4659C437.359 28.4659 435.54 28.0389 433.87 27.3273ZM442.969 23.769C444.182 23.1997 445.097 22.4881 446.001 21.6341C446.916 20.7801 447.522 19.6415 448.128 18.3605C448.741 17.0795 448.889 15.6563 448.889 14.233C448.889 12.8097 448.586 11.3864 448.128 10.1054C447.522 8.82443 446.916 7.6858 446.007 6.83182C445.097 5.99468 444.076 5.27678 442.969 4.69688C441.906 4.12756 440.539 3.98523 439.326 3.98523C438.114 3.98523 436.895 4.26989 435.683 4.69688C434.553 5.24061 433.526 5.9623 432.646 6.83182C431.736 7.6858 431.13 8.82443 430.518 10.1054C429.906 11.3864 429.763 12.8097 429.763 14.233C429.763 15.6563 430.06 17.0795 430.518 18.3605C431.13 19.6415 431.736 20.7801 432.646 21.6341C433.555 22.4881 434.619 23.1997 435.677 23.769C436.895 24.3384 438.114 24.4807 439.326 24.4807C440.539 24.623 441.757 24.3384 442.969 23.769ZM459.367 28.1812V0.284659H470.755C472.122 0.284659 473.34 0.569318 474.398 0.996307C475.524 1.42225 476.555 2.05026 477.435 2.84659C478.196 3.55824 478.957 4.55455 479.409 5.55085C479.86 6.54716 480.169 7.6858 480.169 8.82443C480.169 10.3901 479.866 11.671 479.105 12.6673C478.499 13.6636 477.738 14.5176 476.829 15.0869C476.068 15.6563 474.856 16.2256 473.643 16.7949L480.776 28.3236H475.765L468.93 17.2219H463.771V28.3236H459.373L459.367 28.1812ZM463.926 13.379H470.761C471.516 13.379 472.128 13.2366 472.728 13.0943C473.855 12.5993 474.767 11.7438 475.308 10.6747C475.617 10.1054 475.617 9.53608 475.617 8.96676C475.617 8.25511 475.462 7.6858 475.314 7.11648C474.771 6.04702 473.857 5.19162 472.728 4.69688C472.122 4.41222 471.516 4.41222 470.755 4.41222H463.926V13.379ZM486.701 28.1812V0.284659H490.648L504.912 20.2108V0.284659H509.47V28.1812H505.524L491.254 8.25511V28.1812H486.701ZM517.363 28.1812V0.284659H521.922V28.1812H517.363ZM526.32 28.1812L537.553 0.284659H541.505L552.739 28.1812H548.031L545.452 21.7764H533.458L530.879 28.1812H526.32ZM534.974 17.9335H543.93L539.378 6.54716L534.974 17.9335Z" fill="black"/>
</svg>
