<svg xmlns="http://www.w3.org/2000/svg" version="1.1" viewBox="-5.0 -10.0 110.0 135.0">
 <path d="m17.098 62.488c-8.0977 4.7227-14.715 7.3789-14.781 7.4023-0.25781 0.10156-0.38281 0.39453-0.27734 0.64844 0.078126 0.19531 0.26563 0.3125 0.46484 0.3125 0.0625 0 0.125-0.011718 0.18359-0.035156 0.066406-0.027344 6.7461-2.707 14.914-7.4727 0.23828-0.14062 0.32031-0.44531 0.17969-0.68359-0.14062-0.23047-0.44531-0.3125-0.68359-0.17188z"/>
 <path d="m49.031 27.219c1.082-8.3477-1.8867-16.77-8.8164-25.043-0.17578-0.21094-0.49219-0.23828-0.70312-0.0625-0.21094 0.17969-0.23828 0.49219-0.0625 0.70312 6.7461 8.0469 9.6367 16.215 8.5938 24.27-1.332 10.285-8.8789 20.355-22.422 29.934-0.22656 0.16016-0.27734 0.47266-0.12109 0.69531 0.097656 0.13672 0.25391 0.21094 0.41016 0.21094 0.10156 0 0.19922-0.027343 0.28906-0.09375 13.781-9.7344 21.461-20.035 22.832-30.613z"/>
 <path d="m26.406 36.43c0-4.332-3.4414-7.8555-7.6758-7.8555-4.2305 0-7.6758 3.5234-7.6758 7.8555 0 4.1602 3.1758 7.5664 7.1758 7.832v17.84c0 0.27734 0.22266 0.5 0.5 0.5 0.27734 0 0.5-0.22266 0.5-0.5v-17.84c4-0.26953 7.1758-3.6719 7.1758-7.832zm-7.6758 6.8555c-3.6797 0-6.6758-3.0742-6.6758-6.8555s2.9922-6.8555 6.6758-6.8555c3.6797 0 6.6758 3.0742 6.6758 6.8555s-2.9922 6.8555-6.6758 6.8555z"/>
 <path d="m86.52 54.059c-0.25781-0.015625-0.51953 0.17578-0.54688 0.44922-2.2305 23.578-17.949 42.48-18.109 42.668-0.17969 0.21094-0.14844 0.52734 0.0625 0.70312 0.09375 0.082032 0.20703 0.12109 0.32031 0.12109 0.14062 0 0.28125-0.0625 0.38281-0.17969 0.16016-0.19141 16.074-19.32 18.34-43.219 0.027344-0.27344-0.17188-0.51562-0.44922-0.54297z"/>
 <path d="m85.316 38.906c0.046875 0.23828 0.25391 0.40625 0.48828 0.40625 0.03125 0 0.0625-0.003906 0.09375-0.007812 0.26953-0.050782 0.44922-0.3125 0.39844-0.58594-2.5859-13.738-10.523-26.059-23.586-36.609-0.21484-0.17188-0.52734-0.14062-0.70313 0.074219-0.17578 0.21484-0.14062 0.52734 0.074219 0.70312 12.875 10.398 20.691 22.516 23.234 36.02z"/>
 <path d="m92.621 75.367v-25.367c0-6.3555-6.0312-6.4297-6.0938-6.4297h-14.102c-0.27734 0-0.5 0.22266-0.5 0.5 0 3.4453 2.7383 6.25 6.1055 6.25 3.2031 0 5.832-2.5352 6.082-5.75h2.4102c0.20703 0 5.0938 0.082032 5.0938 5.4297v25.367c-3.0078 0.26172-5.3789 2.8477-5.3789 5.9922v13c0 0.27734 0.22266 0.5 0.5 0.5 0.27734 0 0.5-0.22266 0.5-0.5v-13c0-2.7656 2.1875-5.0195 4.8789-5.0195 2.6953 0 4.8828 2.25 4.8828 5.0156v13c0 0.27734 0.22266 0.5 0.5 0.5s0.5-0.22266 0.5-0.5v-13c0-3.1445-2.3711-5.7266-5.3789-5.9883zm-14.59-26.047c-2.6484 0-4.8086-2.0938-5.0586-4.75h10.117c-0.25 2.6602-2.4062 4.75-5.0586 4.75z"/>
 <path d="m38.645 81.191c-5.1328 4.0078-9.0469 6.207-9.0859 6.2305-0.24219 0.13672-0.32812 0.4375-0.19141 0.67969 0.089843 0.16406 0.26172 0.25781 0.4375 0.25781 0.082031 0 0.16406-0.019531 0.24219-0.0625 0.039063-0.023437 4.0195-2.2578 9.2148-6.3125 0.21875-0.17188 0.25781-0.48438 0.085937-0.70312-0.16797-0.21875-0.48438-0.26172-0.70312-0.089844z"/>
 <path d="m51.676 68.723c-2.2266 2.6641-4.75 5.2852-7.4961 7.7969-0.20313 0.1875-0.21875 0.50391-0.03125 0.70703 0.097656 0.10547 0.23437 0.16016 0.36719 0.16016 0.12109 0 0.24219-0.042969 0.33594-0.13281 2.7773-2.5391 5.332-5.1953 7.5859-7.8945 0.17578-0.21094 0.14844-0.52734-0.0625-0.70312-0.20703-0.17188-0.51953-0.14453-0.69922 0.066406z"/>
 <path d="m61.387 54.125c-0.25-0.10938-0.54688 0.003906-0.65625 0.25781-1.2109 2.7773-2.7305 5.5586-4.5156 8.2656-0.15234 0.23047-0.089844 0.53906 0.14062 0.69141 0.085937 0.058594 0.17969 0.082031 0.27344 0.082031 0.16016 0 0.32031-0.078125 0.41797-0.22656 1.8164-2.7539 3.3633-5.5859 4.5977-8.4141 0.10938-0.25391-0.003906-0.54688-0.25781-0.65625z"/>
 <path d="m64.953 35.93c-0.27734 0.003906-0.49609 0.23047-0.49219 0.50781 0.050781 3.4961-0.35156 7.0234-1.1953 10.48-0.066406 0.26953 0.097656 0.53906 0.36719 0.60547 0.039063 0.011718 0.078126 0.015624 0.11719 0.015624 0.22656 0 0.42969-0.15234 0.48438-0.38281 0.86719-3.5391 1.2773-7.1523 1.2266-10.734-0.003907-0.27734-0.24609-0.5-0.50781-0.49219z"/>
 <path d="m63.719 29.164c0.046875 0.23828 0.25391 0.40625 0.48828 0.40625 0.03125 0 0.0625-0.003906 0.09375-0.007812 0.26953-0.050781 0.44922-0.3125 0.39844-0.58594-0.70312-3.6953-1.9023-7.4453-3.5742-11.152-0.11328-0.25391-0.41016-0.36328-0.66016-0.25-0.25391 0.11328-0.36328 0.41016-0.25 0.66016 1.6367 3.6367 2.8125 7.3125 3.5039 10.93z"/>
 <path d="m56.973 12.051c0.09375 0.15625 0.26172 0.24219 0.42969 0.24219 0.089844 0 0.17578-0.023438 0.25781-0.070313 0.23828-0.14062 0.31641-0.44922 0.17578-0.6875-1.8555-3.1055-4.0781-6.2539-6.6094-9.3555-0.17578-0.21484-0.48828-0.24609-0.70312-0.070313-0.21484 0.17578-0.24609 0.48828-0.070313 0.70312 2.4961 3.0664 4.6914 6.1758 6.5195 9.2383z"/>
<text x="0.0" y="117.5" font-size="5.0" font-weight="bold" font-family="Arbeit Regular, Helvetica, Arial-Unicode, Arial, Sans-serif" fill="#000000">Created by Houda Mbarki</text><text x="0.0" y="122.5" font-size="5.0" font-weight="bold" font-family="Arbeit Regular, Helvetica, Arial-Unicode, Arial, Sans-serif" fill="#000000">from Noun Project</text></svg>