<svg width="280" height="280" viewBox="0 0 280 280" fill="none" xmlns="http://www.w3.org/2000/svg">
<path d="M44.6693 176.138C21.1253 189.869 1.88551 197.592 1.69361 197.66C0.94403 197.955 0.580593 198.807 0.887247 199.545C1.1144 200.113 1.65957 200.454 2.23877 200.454C2.42049 200.454 2.60221 200.42 2.77256 200.352C2.96563 200.272 22.3868 192.481 46.135 178.625C46.8278 178.216 47.0663 177.33 46.6574 176.637C46.2486 175.967 45.3621 175.729 44.6693 176.138Z" fill="#AC0000"/>
<path d="M137.514 73.5935C140.66 49.3225 132.029 24.8347 111.881 0.781C111.369 0.167692 110.449 0.0882014 109.836 0.599281C109.223 1.12173 109.143 2.03032 109.654 2.6436C129.269 26.0399 137.673 49.7887 134.641 73.2086C130.768 103.112 108.826 132.391 69.449 160.242C68.7903 160.707 68.6427 161.616 69.097 162.263C69.3809 162.661 69.8352 162.877 70.2895 162.877C70.5848 162.877 70.8687 162.797 71.13 162.604C111.198 134.301 133.528 104.352 137.514 73.5967L137.514 73.5935Z" fill="#AC0000"/>
<path d="M71.7324 100.374C71.7324 87.779 61.7265 77.5344 49.415 77.5344C37.1149 77.5344 27.0977 87.7787 27.0977 100.374C27.0977 112.47 36.3313 122.374 47.9613 123.146V175.016C47.9613 175.822 48.6087 176.469 49.415 176.469C50.2214 176.469 50.8688 175.822 50.8688 175.016V123.146C62.4988 122.362 71.7324 112.47 71.7324 100.374ZM49.415 120.307C38.7163 120.307 30.0052 111.368 30.0052 100.374C30.0052 89.3802 38.705 80.4419 49.415 80.4419C60.1137 80.4419 68.8249 89.3802 68.8249 100.374C68.8249 111.368 60.1251 120.307 49.415 120.307Z" fill="#AC0000"/>
<path d="M246.514 151.631C245.764 151.585 245.003 152.142 244.924 152.937C238.439 221.49 192.737 276.447 192.272 276.994C191.749 277.607 191.84 278.527 192.454 279.038C192.726 279.277 193.055 279.39 193.385 279.39C193.794 279.39 194.203 279.209 194.498 278.868C194.964 278.311 241.233 222.695 247.821 153.209C247.901 152.414 247.32 151.71 246.514 151.631Z" fill="#AC0000"/>
<path d="M243.013 107.573C243.149 108.266 243.751 108.754 244.433 108.754C244.524 108.754 244.614 108.743 244.705 108.731C245.489 108.584 246.011 107.823 245.864 107.028C238.345 67.0846 215.268 31.2613 177.288 0.587197C176.663 0.0874568 175.754 0.178345 175.243 0.802989C174.732 1.42764 174.834 2.33623 175.459 2.84731C212.893 33.0795 235.619 68.3101 243.013 107.573Z" fill="#AC0000"/>
<path d="M264.252 213.584V139.829C264.252 121.35 246.717 121.135 246.534 121.135H205.533C204.727 121.135 204.079 121.782 204.079 122.589C204.079 132.606 212.041 140.76 221.831 140.76C231.144 140.76 238.787 133.389 239.514 124.042H246.522C247.124 124.042 261.332 124.281 261.332 139.829V213.584C252.587 214.345 245.693 221.863 245.693 231.006V268.803C245.693 269.61 246.34 270.257 247.147 270.257C247.953 270.257 248.601 269.61 248.601 268.803V231.006C248.601 222.965 254.961 216.412 262.786 216.412C270.623 216.412 276.983 222.954 276.983 230.995V268.792C276.983 269.598 277.63 270.246 278.436 270.246C279.243 270.246 279.89 269.598 279.89 268.792V230.995C279.89 221.852 272.997 214.344 264.252 213.584ZM221.832 137.852C214.132 137.852 207.851 131.764 207.124 124.041H236.539C235.812 131.776 229.544 137.852 221.832 137.852Z" fill="#AC0000"/>
<path d="M107.317 230.517C92.3938 242.169 81.0135 248.564 80.9001 248.632C80.196 249.029 79.9461 249.904 80.3436 250.608C80.6048 251.085 81.1046 251.358 81.6156 251.358C81.8541 251.358 82.0926 251.301 82.3198 251.176C82.4334 251.108 94.0065 244.611 109.112 232.822C109.748 232.323 109.861 231.414 109.362 230.778C108.873 230.142 107.953 230.017 107.317 230.517Z" fill="#AC0000"/>
<path d="M145.205 194.266C138.731 202.012 131.394 209.633 123.41 216.936C122.82 217.481 122.774 218.401 123.319 218.991C123.603 219.298 124.001 219.457 124.387 219.457C124.739 219.457 125.091 219.332 125.364 219.071C133.439 211.688 140.866 203.966 147.42 196.118C147.931 195.504 147.851 194.584 147.238 194.073C146.636 193.574 145.727 193.653 145.205 194.266Z" fill="#AC0000"/>
<path d="M173.439 151.823C172.712 151.505 171.849 151.834 171.531 152.572C168.011 160.647 163.592 168.734 158.402 176.605C157.959 177.275 158.141 178.172 158.811 178.615C159.061 178.785 159.333 178.853 159.606 178.853C160.072 178.853 160.537 178.626 160.821 178.195C166.102 170.188 170.6 161.954 174.189 153.731C174.507 152.992 174.178 152.141 173.439 151.823Z" fill="#AC0000"/>
<path d="M183.808 98.9205C183.001 98.9319 182.365 99.5906 182.376 100.397C182.524 110.562 181.354 120.818 178.901 130.868C178.708 131.651 179.185 132.435 179.969 132.628C180.082 132.662 180.196 132.673 180.309 132.673C180.968 132.673 181.559 132.23 181.718 131.56C184.239 121.27 185.432 110.765 185.284 100.351C185.273 99.5449 184.568 98.8978 183.808 98.9205Z" fill="#AC0000"/>
<path d="M180.22 79.2481C180.356 79.9409 180.958 80.4293 181.64 80.4293C181.73 80.4293 181.821 80.418 181.912 80.4066C182.696 80.259 183.218 79.498 183.071 78.703C181.026 67.9589 177.54 57.0558 172.679 46.2786C172.349 45.5403 171.486 45.2223 170.759 45.5517C170.021 45.8811 169.703 46.7442 170.032 47.4711C174.791 58.0448 178.21 68.7303 180.22 79.2481Z" fill="#AC0000"/>
<path d="M160.606 29.4926C160.878 29.9469 161.367 30.1968 161.855 30.1968C162.116 30.1968 162.366 30.1287 162.605 29.9924C163.297 29.5835 163.525 28.6863 163.116 27.9935C157.721 18.9642 151.259 9.81026 143.899 0.792371C143.388 0.167724 142.479 0.0768651 141.855 0.587936C141.23 1.09902 141.139 2.00761 141.65 2.63226C148.907 11.5478 155.29 20.5884 160.606 29.4926Z" fill="#AC0000"/>
</svg>
