<svg width="219" height="87" viewBox="0 0 219 87" fill="none" xmlns="http://www.w3.org/2000/svg">
<g filter="url(#filter0_d_265_232)">
<path d="M55.097 44.84L51.3096 42.4728C86.5861 13.9153 108.236 6.89313 143.629 1.28436C121.426 7.14776 109.527 11.2383 91.0777 22.5887C109.667 15.9629 121.236 13.612 141.735 10.753C107.071 21.2581 89.1946 28.0839 65.5125 41.526C109.135 22.0989 136.341 15.9938 172.034 13.5936C134.42 20.9506 121.961 24.1541 92.9715 37.2651C119.771 27.1983 128.002 25.779 150.257 24.009C126.987 29.0048 112.409 32.6994 91.0777 42.4728C135.23 29.036 149.583 28.2124 175.822 26.8496C128.844 33.719 106.267 41.7002 68.8265 59.0429L82.556 44.3666L55.097 44.84Z" fill="url(#paint0_linear_265_232)"/>
<path d="M55.097 44.84L51.3096 42.4728C86.5861 13.9153 108.236 6.89313 143.629 1.28436C121.426 7.14776 109.527 11.2383 91.0777 22.5887C109.667 15.9629 121.236 13.612 141.735 10.753C107.071 21.2581 89.1946 28.0839 65.5125 41.526C109.135 22.0989 136.341 15.9938 172.034 13.5936C134.42 20.9506 121.961 24.1541 92.9715 37.2651C119.771 27.1983 128.002 25.779 150.257 24.009C126.987 29.0048 112.409 32.6994 91.0777 42.4728C135.23 29.036 149.583 28.2124 175.822 26.8496C128.844 33.719 106.267 41.7002 68.8265 59.0429L82.556 44.3666L55.097 44.84Z" stroke="white" stroke-width="1.5"/>
</g>
<path d="M175.362 25.3467L176.002 25.3614C177.478 25.4303 178.812 25.7424 179.983 26.3242L179.982 26.3252C181.324 26.982 182.382 27.939 183.123 29.1934H183.122C183.867 30.4465 184.22 31.9021 184.22 33.5215C184.22 35.1625 183.86 36.6248 183.089 37.8594L183.088 37.8614C182.515 38.7735 181.762 39.5173 180.847 40.0948L184.834 47.4131L185.64 48.8916H177.676L177.393 48.3633L173.736 41.5176H172.668V48.8916H165.461V25.3467H175.362ZM172.668 35.4141H174.236C174.938 35.4141 175.46 35.3224 175.835 35.1787C176.2 35.0349 176.425 34.8438 176.57 34.6241C176.713 34.4001 176.822 34.0553 176.823 33.5215C176.823 32.9886 176.713 32.6368 176.566 32.4024L176.563 32.3965C176.413 32.1539 176.185 31.9532 175.825 31.8067L175.815 31.8028C175.439 31.6446 174.924 31.544 174.236 31.544H172.668V35.4141Z" fill="black" stroke="white" stroke-width="2"/>
<path d="M157.59 25.3467L157.82 26.0274L165.089 47.5723L165.534 48.8916H157.811L157.591 48.1914L156.391 44.3682H150.418L149.221 48.1905L149.001 48.8916H141.278L141.723 47.5723L148.992 26.0274L149.222 25.3467H157.59ZM152.284 38.4121H154.521L153.401 34.8477L152.284 38.4121Z" fill="black" stroke="white" stroke-width="2"/>
<path d="M144.753 25.3467V31.5762H138.22V48.8916H131.087V31.5762H124.543V25.3467H144.753Z" fill="black" stroke="white" stroke-width="2"/>
<path d="M115.066 25.0522C116.847 25.0522 118.445 25.355 119.831 25.9965L119.83 25.9975C121.212 26.6268 122.32 27.529 123.114 28.7152C123.912 29.9089 124.308 31.2807 124.324 32.7953L124.334 33.8061H117.424L117.341 32.8969C117.293 32.3696 117.099 32.037 116.79 31.7982L116.779 31.7904L117.401 31.0072L116.779 31.7895C116.473 31.5468 115.945 31.3549 115.055 31.3549C114.461 31.3549 114.033 31.4334 113.736 31.5492C113.418 31.6732 113.256 31.814 113.17 31.932L113.165 31.9408L112.362 31.3441L113.164 31.9408C113.07 32.0668 113.018 32.2093 113.014 32.4027V32.4291C113.008 32.582 113.035 32.6724 113.067 32.7318C113.129 32.8323 113.229 32.9431 113.392 33.058C113.592 33.1865 113.851 33.3141 114.181 33.432C114.439 33.5241 114.728 33.6096 115.048 33.6879L115.38 33.7641L115.392 33.766V33.767L117.244 34.1869H117.243C118.363 34.4308 119.374 34.7604 120.266 35.183C121.168 35.6071 121.952 36.1247 122.597 36.7455H122.596C123.254 37.3711 123.758 38.0994 124.1 38.9252C124.443 39.7545 124.611 40.6629 124.619 41.6352V41.6479C124.611 43.1809 124.22 44.5537 123.408 45.7182C122.6 46.875 121.455 47.732 120.03 48.3119C118.61 48.8925 116.942 49.1654 115.055 49.1654C113.155 49.1654 111.452 48.8808 109.968 48.2826C108.461 47.6749 107.254 46.7341 106.389 45.4535C105.511 44.1525 105.094 42.5562 105.071 40.7299L105.058 39.7172H111.999L112.055 40.6566C112.088 41.2057 112.23 41.5932 112.429 41.8725C112.639 42.1672 112.934 42.4059 113.351 42.5795L113.52 42.643C113.927 42.7833 114.413 42.8627 114.992 42.8627C115.609 42.8627 116.075 42.7789 116.42 42.6459L116.424 42.644C116.794 42.5034 117.013 42.3332 117.143 42.1684C117.268 42.0108 117.329 41.8431 117.335 41.6332C117.329 41.4492 117.278 41.334 117.198 41.2397L117.19 41.2309C117.085 41.1046 116.865 40.9322 116.442 40.7582L116.434 40.7553L116.427 40.7523C115.996 40.5666 115.412 40.3819 114.661 40.2074H114.659L112.412 39.682C110.435 39.2287 108.796 38.4795 107.563 37.3832L107.56 37.3803C106.244 36.202 105.62 34.6158 105.628 32.7387C105.622 31.2159 106.036 29.8414 106.89 28.6557C107.73 27.49 108.879 26.6014 110.297 25.9779C111.72 25.3524 113.317 25.0522 115.066 25.0522Z" fill="black" stroke="white" stroke-width="2"/>
<path d="M98.4858 25.3467L98.7153 26.0274L105.985 47.5723L106.43 48.8916H98.7065L98.4868 48.1914L97.2866 44.3682H91.314L90.1167 48.1905L89.897 48.8916H82.1733L82.6187 47.5723L89.8882 26.0274L90.1177 25.3467H98.4858ZM93.1802 38.4121H95.4165L94.2964 34.8477L93.1802 38.4121Z" fill="black" stroke="white" stroke-width="2"/>
<path d="M89.3443 66.5259H84.7037V53.435H89.3827C90.6994 53.435 91.833 53.6971 92.7832 54.2212C93.7335 54.7411 94.4644 55.489 94.9757 56.4648C95.4913 57.4407 95.7492 58.6083 95.7492 59.9677C95.7492 61.3313 95.4913 62.5032 94.9757 63.4833C94.4644 64.4634 93.7293 65.2155 92.7705 65.7397C91.8159 66.2638 90.6739 66.5259 89.3443 66.5259ZM87.4715 64.1545H89.2293C90.0475 64.1545 90.7357 64.0096 91.2939 63.7198C91.8564 63.4258 92.2783 62.9719 92.5595 62.3583C92.845 61.7404 92.9878 60.9435 92.9878 59.9677C92.9878 59.0003 92.845 58.2099 92.5595 57.5962C92.2783 56.9826 91.8585 56.5309 91.3003 56.2411C90.7421 55.9513 90.0538 55.8064 89.2357 55.8064H87.4715V64.1545ZM97.7483 66.5259V56.7077H100.388V58.4208H100.49C100.669 57.8114 100.97 57.3512 101.392 57.0401C101.814 56.7248 102.299 56.5671 102.849 56.5671C102.985 56.5671 103.133 56.5756 103.29 56.5927C103.448 56.6097 103.586 56.6332 103.706 56.663V59.0792C103.578 59.0408 103.401 59.0067 103.175 58.9769C102.949 58.9471 102.743 58.9322 102.555 58.9322C102.155 58.9322 101.797 59.0195 101.481 59.1942C101.17 59.3647 100.923 59.6033 100.74 59.9101C100.561 60.217 100.471 60.5707 100.471 60.9712V66.5259H97.7483ZM105.114 66.5259V56.7077H107.837V66.5259H105.114ZM106.481 55.4421C106.077 55.4421 105.729 55.3079 105.439 55.0394C105.154 54.7667 105.011 54.4407 105.011 54.0614C105.011 53.6864 105.154 53.3647 105.439 53.0962C105.729 52.8235 106.077 52.6871 106.481 52.6871C106.886 52.6871 107.231 52.8235 107.517 53.0962C107.807 53.3647 107.952 53.6864 107.952 54.0614C107.952 54.4407 107.807 54.7667 107.517 55.0394C107.231 55.3079 106.886 55.4421 106.481 55.4421ZM119.171 56.7077L115.739 66.5259H112.67L109.238 56.7077H112.114L114.153 63.7326H114.256L116.288 56.7077H119.171ZM120.565 66.5259V56.7077H123.288V66.5259H120.565ZM121.933 55.4421C121.528 55.4421 121.18 55.3079 120.891 55.0394C120.605 54.7667 120.462 54.4407 120.462 54.0614C120.462 53.6864 120.605 53.3647 120.891 53.0962C121.18 52.8235 121.528 52.6871 121.933 52.6871C122.337 52.6871 122.683 52.8235 122.968 53.0962C123.258 53.3647 123.403 53.6864 123.403 54.0614C123.403 54.4407 123.258 54.7667 122.968 55.0394C122.683 55.3079 122.337 55.4421 121.933 55.4421ZM128.192 60.8498V66.5259H125.469V56.7077H128.064V58.44H128.179C128.397 57.8689 128.761 57.4172 129.272 57.0849C129.784 56.7482 130.404 56.5799 131.132 56.5799C131.814 56.5799 132.409 56.729 132.916 57.0273C133.423 57.3256 133.817 57.7518 134.098 58.3057C134.379 58.8555 134.52 59.5117 134.52 60.2745V66.5259H131.797V60.7603C131.801 60.1594 131.648 59.6907 131.337 59.354C131.026 59.0131 130.598 58.8427 130.052 58.8427C129.686 58.8427 129.362 58.9215 129.08 59.0792C128.803 59.2368 128.586 59.467 128.428 59.7695C128.275 60.0678 128.196 60.4279 128.192 60.8498ZM141.09 70.4123C140.207 70.4123 139.451 70.2908 138.82 70.0479C138.194 69.8093 137.695 69.4833 137.325 69.0699C136.954 68.6566 136.713 68.1921 136.602 67.6765L139.121 67.3377C139.197 67.5337 139.319 67.717 139.485 67.8874C139.651 68.0579 139.871 68.1942 140.144 68.2965C140.42 68.403 140.757 68.4563 141.153 68.4563C141.746 68.4563 142.234 68.3114 142.617 68.0216C143.005 67.7361 143.199 67.2567 143.199 66.5834V64.7873H143.084C142.965 65.06 142.786 65.3178 142.547 65.5607C142.308 65.8036 142.001 66.0018 141.626 66.1552C141.251 66.3086 140.804 66.3853 140.284 66.3853C139.547 66.3853 138.876 66.2148 138.271 65.8739C137.67 65.5288 137.19 65.0025 136.832 64.2951C136.479 63.5834 136.302 62.6843 136.302 61.5976C136.302 60.4854 136.483 59.5564 136.845 58.8107C137.207 58.065 137.689 57.5067 138.29 57.136C138.895 56.7653 139.558 56.5799 140.278 56.5799C140.827 56.5799 141.288 56.6736 141.658 56.8611C142.029 57.0444 142.327 57.2745 142.553 57.5515C142.783 57.8242 142.96 58.0927 143.084 58.3569H143.186V56.7077H145.89V66.6218C145.89 67.457 145.685 68.1559 145.276 68.7184C144.867 69.2809 144.3 69.7028 143.576 69.984C142.856 70.2695 142.027 70.4123 141.09 70.4123ZM141.147 64.3398C141.586 64.3398 141.957 64.2312 142.259 64.0138C142.566 63.7922 142.8 63.4769 142.962 63.0678C143.129 62.6545 143.212 62.1601 143.212 61.5849C143.212 61.0096 143.131 60.511 142.969 60.0891C142.807 59.663 142.572 59.3327 142.266 59.0984C141.959 58.864 141.586 58.7468 141.147 58.7468C140.7 58.7468 140.322 58.8682 140.016 59.1111C139.709 59.3498 139.477 59.6822 139.319 60.1083C139.161 60.5344 139.082 61.0266 139.082 61.5849C139.082 62.1516 139.161 62.6417 139.319 63.055C139.481 63.4641 139.713 63.7816 140.016 64.0074C140.322 64.229 140.7 64.3398 141.147 64.3398ZM159.376 57.1999C159.324 56.6843 159.105 56.2837 158.717 55.9982C158.329 55.7127 157.803 55.5699 157.138 55.5699C156.687 55.5699 156.305 55.6339 155.994 55.7617C155.683 55.8853 155.444 56.0579 155.278 56.2795C155.116 56.5011 155.035 56.7525 155.035 57.0337C155.027 57.2681 155.076 57.4726 155.182 57.6474C155.293 57.8221 155.444 57.9734 155.636 58.1012C155.828 58.2248 156.05 58.3334 156.301 58.4272C156.552 58.5167 156.821 58.5934 157.106 58.6573L158.283 58.9386C158.854 59.0664 159.378 59.2368 159.855 59.4499C160.332 59.663 160.746 59.9251 161.095 60.2361C161.444 60.5472 161.715 60.9137 161.907 61.3356C162.103 61.7574 162.203 62.2411 162.207 62.7866C162.203 63.5877 161.998 64.2823 161.594 64.8704C161.193 65.4542 160.614 65.908 159.855 66.2319C159.101 66.5515 158.191 66.7113 157.126 66.7113C156.069 66.7113 155.148 66.5493 154.364 66.2255C153.584 65.9016 152.975 65.4222 152.536 64.7873C152.101 64.1481 151.873 63.3576 151.852 62.4158H154.53C154.56 62.8547 154.686 63.2212 154.908 63.5153C155.133 63.805 155.434 64.0245 155.809 64.1736C156.188 64.3185 156.616 64.391 157.094 64.391C157.562 64.391 157.969 64.3228 158.314 64.1864C158.664 64.0501 158.935 63.8604 159.126 63.6175C159.318 63.3746 159.414 63.0955 159.414 62.7802C159.414 62.4861 159.327 62.239 159.152 62.0387C158.981 61.8384 158.73 61.668 158.398 61.5273C158.069 61.3867 157.667 61.2589 157.189 61.1438L155.764 60.7859C154.66 60.5174 153.789 60.0976 153.15 59.5266C152.511 58.9556 152.193 58.1864 152.197 57.2191C152.193 56.4265 152.404 55.734 152.83 55.1417C153.261 54.5493 153.851 54.087 154.601 53.7546C155.351 53.4222 156.203 53.256 157.158 53.256C158.129 53.256 158.977 53.4222 159.702 53.7546C160.43 54.087 160.997 54.5493 161.402 55.1417C161.807 55.734 162.015 56.4201 162.028 57.1999H159.376ZM168.454 66.7177C167.448 66.7177 166.583 66.5046 165.859 66.0785C165.139 65.6481 164.585 65.0515 164.197 64.2887C163.813 63.5259 163.621 62.6481 163.621 61.6552C163.621 60.6495 163.815 59.7674 164.203 59.0089C164.595 58.2461 165.151 57.6516 165.871 57.2255C166.592 56.7951 167.448 56.5799 168.441 56.5799C169.298 56.5799 170.048 56.7354 170.691 57.0465C171.335 57.3576 171.844 57.7944 172.219 58.3569C172.594 58.9194 172.8 59.5799 172.839 60.3384H170.269C170.197 59.8484 170.005 59.4542 169.694 59.1559C169.387 58.8533 168.984 58.702 168.486 58.702C168.064 58.702 167.695 58.8171 167.38 59.0472C167.069 59.2731 166.826 59.6033 166.651 60.038C166.477 60.4726 166.389 60.9989 166.389 61.6168C166.389 62.2432 166.474 62.7759 166.645 63.2148C166.82 63.6538 167.065 63.9883 167.38 64.2184C167.695 64.4485 168.064 64.5636 168.486 64.5636C168.797 64.5636 169.076 64.4996 169.323 64.3718C169.575 64.2439 169.781 64.0586 169.943 63.8157C170.109 63.5685 170.218 63.2724 170.269 62.9272H172.839C172.796 63.6772 172.592 64.3377 172.225 64.9087C171.863 65.4755 171.362 65.9187 170.723 66.2383C170.084 66.5579 169.327 66.7177 168.454 66.7177ZM177.305 60.8498V66.5259H174.582V53.435H177.229V58.44H177.344C177.565 57.8604 177.923 57.4066 178.417 57.0785C178.912 56.7461 179.532 56.5799 180.278 56.5799C180.959 56.5799 181.554 56.729 182.061 57.0273C182.572 57.3214 182.969 57.7454 183.25 58.2993C183.535 58.8491 183.676 59.5074 183.672 60.2745V66.5259H180.949V60.7603C180.953 60.1552 180.8 59.6843 180.489 59.3476C180.182 59.011 179.751 58.8427 179.197 58.8427C178.827 58.8427 178.498 58.9215 178.213 59.0792C177.932 59.2368 177.71 59.467 177.548 59.7695C177.39 60.0678 177.31 60.4279 177.305 60.8498ZM190.251 66.7177C189.258 66.7177 188.399 66.5067 187.675 66.0849C186.955 65.6587 186.398 65.0664 186.006 64.3079C185.614 63.5451 185.418 62.6609 185.418 61.6552C185.418 60.641 185.614 59.7546 186.006 58.9961C186.398 58.2333 186.955 57.641 187.675 57.2191C188.399 56.793 189.258 56.5799 190.251 56.5799C191.244 56.5799 192.1 56.793 192.82 57.2191C193.545 57.641 194.103 58.2333 194.495 58.9961C194.887 59.7546 195.083 60.641 195.083 61.6552C195.083 62.6609 194.887 63.5451 194.495 64.3079C194.103 65.0664 193.545 65.6587 192.82 66.0849C192.1 66.5067 191.244 66.7177 190.251 66.7177ZM190.264 64.6083C190.715 64.6083 191.092 64.4805 191.395 64.2248C191.697 63.9648 191.925 63.6111 192.079 63.1637C192.237 62.7163 192.315 62.207 192.315 61.636C192.315 61.065 192.237 60.5557 192.079 60.1083C191.925 59.6609 191.697 59.3072 191.395 59.0472C191.092 58.7873 190.715 58.6573 190.264 58.6573C189.808 58.6573 189.424 58.7873 189.113 59.0472C188.806 59.3072 188.574 59.6609 188.416 60.1083C188.263 60.5557 188.186 61.065 188.186 61.636C188.186 62.207 188.263 62.7163 188.416 63.1637C188.574 63.6111 188.806 63.9648 189.113 64.2248C189.424 64.4805 189.808 64.6083 190.264 64.6083ZM201.29 66.7177C200.297 66.7177 199.438 66.5067 198.714 66.0849C197.994 65.6587 197.438 65.0664 197.045 64.3079C196.653 63.5451 196.457 62.6609 196.457 61.6552C196.457 60.641 196.653 59.7546 197.045 58.9961C197.438 58.2333 197.994 57.641 198.714 57.2191C199.438 56.793 200.297 56.5799 201.29 56.5799C202.283 56.5799 203.139 56.793 203.859 57.2191C204.584 57.641 205.142 58.2333 205.534 58.9961C205.926 59.7546 206.122 60.641 206.122 61.6552C206.122 62.6609 205.926 63.5451 205.534 64.3079C205.142 65.0664 204.584 65.6587 203.859 66.0849C203.139 66.5067 202.283 66.7177 201.29 66.7177ZM201.303 64.6083C201.754 64.6083 202.131 64.4805 202.434 64.2248C202.737 63.9648 202.965 63.6111 203.118 63.1637C203.276 62.7163 203.354 62.207 203.354 61.636C203.354 61.065 203.276 60.5557 203.118 60.1083C202.965 59.6609 202.737 59.3072 202.434 59.0472C202.131 58.7873 201.754 58.6573 201.303 58.6573C200.847 58.6573 200.463 58.7873 200.152 59.0472C199.845 59.3072 199.613 59.6609 199.455 60.1083C199.302 60.5557 199.225 61.065 199.225 61.636C199.225 62.207 199.302 62.7163 199.455 63.1637C199.613 63.6111 199.845 63.9648 200.152 64.2248C200.463 64.4805 200.847 64.6083 201.303 64.6083ZM210.616 53.435V66.5259H207.893V53.435H210.616Z" fill="white"/>
<path d="M34.0562 36.7577L51.0252 48.7704L74.2818 47.0387L76.1394 46.8999L74.8958 48.2871L63.0401 61.5101L72.9965 72.3712L74.3338 73.8297L72.3664 73.6243L45.4231 70.8089L28.3279 81.0961L27.3184 81.7031L27.1953 80.5316L25.3583 63.0405L2.68621 57.9869L2.68475 56.5236L31.5124 50.0133L32.8765 37.2905L33.0131 36.0199L34.0562 36.7577Z" fill="#DB0D06" stroke="white" stroke-width="1.5"/>
<path d="M35.2628 40.857L47.856 53.4502L68.9947 49.8521L52.3536 61.5459L66.7459 70.5411L43.3584 65.144L31.6647 75.9382L33.9135 61.5459L11.4255 57.4981L36.1623 55.699L35.2628 40.857Z" fill="#F7FA4C"/>
<defs>
<filter id="filter0_d_265_232" x="46.0203" y="0.54361" width="133.91" height="67.1798" filterUnits="userSpaceOnUse" color-interpolation-filters="sRGB">
<feFlood flood-opacity="0" result="BackgroundImageFix"/>
<feColorMatrix in="SourceAlpha" type="matrix" values="0 0 0 0 0 0 0 0 0 0 0 0 0 0 0 0 0 0 127 0" result="hardAlpha"/>
<feOffset dy="4"/>
<feGaussianBlur stdDeviation="2"/>
<feComposite in2="hardAlpha" operator="out"/>
<feColorMatrix type="matrix" values="0 0 0 0 0 0 0 0 0 0 0 0 0 0 0 0 0 0 0.25 0"/>
<feBlend mode="normal" in2="BackgroundImageFix" result="effect1_dropShadow_265_232"/>
<feBlend mode="normal" in="SourceGraphic" in2="effect1_dropShadow_265_232" result="shape"/>
</filter>
<linearGradient id="paint0_linear_265_232" x1="59.9848" y1="54.1188" x2="150.257" y2="-11.9717" gradientUnits="userSpaceOnUse">
<stop stop-color="#D5261A"/>
<stop offset="0.293269" stop-color="#F26D34"/>
<stop offset="0.596154" stop-color="#FBFE57"/>
</linearGradient>
</defs>
</svg>
