<svg width="188" height="87" viewBox="0 0 188 87" fill="none" xmlns="http://www.w3.org/2000/svg">
<path d="M34.8076 37.1833L51.7038 49.1434L74.871 47.4183L77.3475 47.2341L75.6897 49.083L63.9854 62.1376L73.788 72.8314L75.5712 74.7763L72.9468 74.5016L46.0883 71.6955L29.0647 81.9388L27.7185 82.7488L27.5547 81.1868L25.7352 63.8746L3.23884 58.86L3.23722 56.909L31.8915 50.4379L33.2359 37.8928L33.4177 36.1987L34.8076 37.1833Z" fill="#DB0D06" stroke="white" stroke-width="2"/>
<path d="M35.8699 41.4863L48.4632 54.0795L69.6019 50.4814L52.9608 62.1752L67.3531 71.1704L43.9656 65.7732L32.2719 76.5675L34.5207 62.1752L12.0327 58.1273L36.7695 56.3283L35.8699 41.4863Z" fill="#F7FA4C"/>
<path d="M56.4193 44.96L52.6318 42.5928C87.9084 14.0354 109.558 7.01315 144.951 1.40438C122.748 7.26778 110.849 11.3584 92.4 22.7088C110.989 16.0829 122.559 13.7321 143.057 10.873C108.393 21.3781 90.5169 28.2039 66.8348 41.646C110.457 22.2189 137.663 16.1138 173.357 13.7136C135.743 21.0706 123.283 24.2741 94.2937 37.3851C121.094 27.3183 129.324 25.8991 151.579 24.1291C128.309 29.1249 113.732 32.8194 92.4 42.5928C136.553 29.1561 150.905 28.3325 177.144 26.9696C130.166 33.839 107.589 41.8202 70.1488 59.1629L83.8783 44.4866L56.4193 44.96Z" fill="url(#paint0_linear_355_161)" stroke="white" stroke-width="1.8"/>
<path d="M169.16 24.4892C170.867 24.4892 172.406 24.7968 173.74 25.4579L173.989 25.5849C175.214 26.2347 176.188 27.1512 176.885 28.329C177.632 29.5851 177.983 31.0397 177.983 32.6464C177.983 34.2735 177.626 35.735 176.852 36.9745L176.85 36.9775C176.308 37.8405 175.605 38.5517 174.759 39.1142L178.557 46.0839L179.5 47.8124H171.297L170.967 47.1943L167.46 40.6298H166.732V47.8124H159.322V24.4892H169.16ZM166.732 34.2958H168.063C168.733 34.2958 169.216 34.207 169.552 34.0781C169.877 33.9494 170.062 33.7859 170.177 33.6083C170.289 33.4292 170.388 33.1342 170.388 32.6464C170.388 32.1535 170.287 31.8494 170.168 31.6601L170.164 31.6533C170.041 31.4557 169.854 31.2861 169.538 31.1572L169.526 31.1523V31.1513C169.191 31.0102 168.716 30.915 168.063 30.915H166.732V34.2958Z" fill="black" stroke="white" stroke-width="2.33766"/>
<path d="M151.99 24.4892L152.259 25.2841L159.34 46.2695L159.86 47.8124H151.923L151.666 46.9941L150.539 43.4062H145.009L143.885 46.9931L143.628 47.8124H135.69L136.211 46.2695L143.291 25.2841L143.56 24.4892H151.99ZM146.948 37.2158H148.596L147.771 34.5888L146.948 37.2158Z" fill="black" stroke="white" stroke-width="2.33766"/>
<path d="M140.542 24.4892V30.9462H134.179V47.8124H126.841V30.9462H120.467V24.4892H140.542Z" fill="black" stroke="white" stroke-width="2.33766"/>
<path d="M112.431 24.2023C114.184 24.2023 115.766 24.5011 117.146 25.1378L117.146 25.1369C118.525 25.7633 119.635 26.6663 120.432 27.8566C121.233 29.0538 121.628 30.4281 121.644 31.9377L121.655 33.1183H114.652C115.732 33.3571 116.711 33.6774 117.58 34.089L117.91 34.2511C118.665 34.6388 119.332 35.0998 119.896 35.6418L120.138 35.882C120.683 36.4546 121.11 37.1072 121.411 37.8351C121.756 38.6691 121.923 39.5788 121.931 40.547V40.5627C121.923 42.0896 121.533 43.4667 120.716 44.6378C119.905 45.8004 118.757 46.6578 117.339 47.2345L117.338 47.2336C115.926 47.8105 114.276 48.0792 112.421 48.0793C110.552 48.0793 108.867 47.7991 107.394 47.2052C105.892 46.6 104.684 45.6596 103.818 44.3771C102.936 43.0709 102.524 41.4769 102.501 39.6701L102.486 38.4865H108.528C107.137 38.0353 105.947 37.4001 104.994 36.5529L104.991 36.55C103.662 35.3599 103.036 33.7588 103.044 31.883C103.038 30.3628 103.452 28.9836 104.31 27.7931C105.15 26.6261 106.299 25.7407 107.708 25.1212C109.123 24.4994 110.705 24.2023 112.431 24.2023ZM109.693 39.5841C109.724 40.091 109.854 40.4318 110.022 40.6681C110.204 40.923 110.461 41.1337 110.838 41.2902C111.237 41.4532 111.736 41.55 112.359 41.55C112.944 41.5499 113.373 41.4703 113.681 41.3517L113.686 41.3498C114.021 41.2223 114.201 41.0755 114.302 40.9484C114.396 40.8292 114.442 40.7071 114.447 40.5461C114.442 40.4129 114.406 40.3459 114.359 40.2912L114.351 40.2804C114.275 40.1902 114.093 40.0375 113.698 39.8752L113.688 39.8722L113.68 39.8683C113.274 39.6936 112.718 39.5172 111.992 39.3488H111.991L109.798 38.8361V38.8351C109.747 38.8234 109.696 38.8111 109.646 38.799L109.693 39.5841ZM112.421 30.7306C111.857 30.7306 111.465 30.8061 111.206 30.9074C110.923 31.018 110.8 31.1353 110.743 31.213L110.735 31.2228C110.669 31.3114 110.631 31.4107 110.628 31.5607V31.5753L110.627 31.591C110.622 31.7014 110.641 31.7546 110.654 31.7804C110.7 31.8518 110.776 31.9399 110.913 32.0363C111.092 32.1503 111.329 32.2666 111.636 32.3761C111.88 32.4633 112.154 32.5444 112.461 32.6193L112.778 32.6925L112.785 32.6935L112.792 32.6955L114.547 33.0939L114.454 32.0558C114.412 31.5898 114.245 31.3179 113.991 31.1222L113.984 31.1173L113.979 31.1125C113.728 30.9135 113.264 30.7307 112.421 30.7306Z" fill="black" stroke="white" stroke-width="2.33766"/>
<path d="M95.561 24.4892L95.8296 25.2841L102.911 46.2695L103.431 47.8124H95.4937L95.2368 46.9941L94.1099 43.4062H88.5796L87.4556 46.9931L87.1987 47.8124H79.2612L79.7817 46.2695L86.8618 25.2841L87.1304 24.4892H95.561ZM90.519 37.2158H92.1665L91.3413 34.5888L90.519 37.2158Z" fill="black" stroke="white" stroke-width="2.33766"/>
<path d="M86.9817 59.5324H83.5041V50.124H86.9771C87.9357 50.124 88.7611 50.3123 89.4532 50.689C90.1485 51.0627 90.6844 51.6017 91.0611 52.3061C91.4378 53.0074 91.6262 53.8466 91.6262 54.8236C91.6262 55.8036 91.4378 56.6459 91.0611 57.3503C90.6875 58.0547 90.1531 58.5952 89.4578 58.9719C88.7626 59.3456 87.9372 59.5324 86.9817 59.5324ZM85.7781 57.5938H86.8944C87.4212 57.5938 87.8668 57.5049 88.2312 57.3273C88.5988 57.1466 88.8759 56.8541 89.0628 56.4499C89.2526 56.0425 89.3476 55.5004 89.3476 54.8236C89.3476 54.1468 89.2526 53.6077 89.0628 53.2065C88.8729 52.8022 88.5926 52.5113 88.2221 52.3337C87.8545 52.153 87.4013 52.0626 86.8622 52.0626H85.7781V57.5938ZM93.2126 59.5324V52.4761H95.3947V53.7624H95.4682C95.5968 53.2969 95.8066 52.9508 96.0976 52.7242C96.3885 52.4945 96.727 52.3796 97.1129 52.3796C97.217 52.3796 97.3242 52.3873 97.4344 52.4026C97.5447 52.4148 97.6473 52.4347 97.7422 52.4623V54.4147C97.635 54.378 97.4942 54.3489 97.3196 54.3274C97.1481 54.306 96.9949 54.2953 96.8602 54.2953C96.5937 54.2953 96.3533 54.355 96.1389 54.4745C95.9276 54.5908 95.7607 54.7547 95.6382 54.966C95.5187 55.1743 95.459 55.4193 95.459 55.701V59.5324H93.2126ZM98.9163 59.5324V52.4761H101.163V59.5324H98.9163ZM100.042 51.6538C99.7264 51.6538 99.4553 51.5496 99.2287 51.3414C99.0021 51.13 98.8887 50.8758 98.8887 50.5788C98.8887 50.2848 99.0021 50.0336 99.2287 49.8254C99.4553 49.614 99.7264 49.5084 100.042 49.5084C100.36 49.5084 100.631 49.614 100.855 49.8254C101.082 50.0336 101.195 50.2848 101.195 50.5788C101.195 50.8758 101.082 51.13 100.855 51.3414C100.631 51.5496 100.36 51.6538 100.042 51.6538ZM109.696 52.4761L107.275 59.5324H104.703L102.286 52.4761H104.652L105.952 57.3365H106.026L107.33 52.4761H109.696ZM110.816 59.5324V52.4761H113.063V59.5324H110.816ZM111.942 51.6538C111.627 51.6538 111.355 51.5496 111.129 51.3414C110.902 51.13 110.789 50.8758 110.789 50.5788C110.789 50.2848 110.902 50.0336 111.129 49.8254C111.355 49.614 111.627 49.5084 111.942 49.5084C112.261 49.5084 112.532 49.614 112.755 49.8254C112.982 50.0336 113.095 50.2848 113.095 50.5788C113.095 50.8758 112.982 51.13 112.755 51.3414C112.532 51.5496 112.261 51.6538 111.942 51.6538ZM116.998 55.5081V59.5324H114.752V52.4761H116.888V53.7716H116.966C117.122 53.3397 117.388 53.0013 117.765 52.7563C118.142 52.5082 118.591 52.3842 119.111 52.3842C119.607 52.3842 120.038 52.496 120.402 52.7196C120.77 52.9401 121.054 53.2494 121.257 53.6475C121.462 54.0426 121.563 54.5051 121.56 55.0349V59.5324H119.313V55.4759C119.316 55.0839 119.217 54.7777 119.015 54.5571C118.816 54.3366 118.538 54.2264 118.183 54.2264C117.947 54.2264 117.739 54.2784 117.558 54.3826C117.381 54.4836 117.243 54.6291 117.145 54.819C117.05 55.0089 117.001 55.2386 116.998 55.5081ZM126.499 62.3255C125.828 62.3255 125.254 62.2321 124.776 62.0453C124.298 61.8585 123.923 61.6028 123.65 61.2781C123.378 60.9535 123.214 60.586 123.159 60.1756L125.286 60.0561C125.326 60.2001 125.399 60.3256 125.506 60.4328C125.617 60.54 125.759 60.6227 125.934 60.6809C126.111 60.7391 126.319 60.7682 126.558 60.7682C126.935 60.7682 127.246 60.6763 127.491 60.4925C127.739 60.3119 127.863 59.9949 127.863 59.5416V58.3012H127.785C127.696 58.5187 127.561 58.7132 127.381 58.8847C127.2 59.0562 126.975 59.1909 126.705 59.2889C126.439 59.3869 126.133 59.4359 125.787 59.4359C125.272 59.4359 124.8 59.3165 124.372 59.0776C123.946 58.8357 123.604 58.462 123.347 57.9567C123.093 57.4483 122.966 56.7944 122.966 55.9951C122.966 55.1712 123.098 54.4928 123.361 53.9599C123.624 53.424 123.969 53.0274 124.395 52.7701C124.823 52.5128 125.284 52.3842 125.777 52.3842C126.148 52.3842 126.465 52.4485 126.728 52.5771C126.995 52.7027 127.214 52.865 127.385 53.0641C127.557 53.2632 127.687 53.4699 127.776 53.6843H127.84V52.4761H130.077V59.56C130.077 60.1572 129.927 60.661 129.627 61.0714C129.327 61.4818 128.907 61.7926 128.368 62.004C127.829 62.2183 127.206 62.3255 126.499 62.3255ZM126.568 57.8005C126.84 57.8005 127.073 57.7285 127.266 57.5846C127.459 57.4406 127.607 57.2339 127.711 56.9644C127.816 56.6949 127.868 56.3718 127.868 55.9951C127.868 55.6122 127.816 55.283 127.711 55.0074C127.61 54.7287 127.462 54.5143 127.266 54.3642C127.073 54.2141 126.84 54.1391 126.568 54.1391C126.289 54.1391 126.053 54.2157 125.86 54.3688C125.667 54.5219 125.52 54.7378 125.419 55.0165C125.321 55.2922 125.272 55.6184 125.272 55.9951C125.272 56.3718 125.323 56.6949 125.424 56.9644C125.525 57.2339 125.67 57.4406 125.86 57.5846C126.053 57.7285 126.289 57.8005 126.568 57.8005ZM139.892 52.9447C139.861 52.6078 139.725 52.3459 139.483 52.1591C139.244 51.9692 138.903 51.8743 138.458 51.8743C138.164 51.8743 137.919 51.9126 137.723 51.9891C137.527 52.0657 137.38 52.1713 137.282 52.3061C137.184 52.4378 137.134 52.5894 137.131 52.7609C137.125 52.9018 137.152 53.0258 137.214 53.133C137.278 53.2402 137.37 53.3351 137.489 53.4178C137.612 53.4975 137.759 53.5679 137.93 53.6292C138.102 53.6904 138.295 53.744 138.509 53.79L139.318 53.9737C139.783 54.0748 140.193 54.2095 140.549 54.378C140.907 54.5464 141.207 54.747 141.449 54.9798C141.694 55.2126 141.879 55.4805 142.005 55.7837C142.131 56.0869 142.195 56.4269 142.198 56.8036C142.195 57.3977 142.045 57.9077 141.748 58.3334C141.451 58.7591 141.023 59.0853 140.466 59.3119C139.912 59.5385 139.243 59.6519 138.458 59.6519C137.671 59.6519 136.985 59.5339 136.4 59.2981C135.815 59.0623 135.361 58.704 135.036 58.2231C134.711 57.7423 134.544 57.1344 134.535 56.3993H136.713C136.731 56.7025 136.812 56.9552 136.956 57.1573C137.1 57.3595 137.298 57.5126 137.549 57.6167C137.803 57.7209 138.097 57.7729 138.431 57.7729C138.737 57.7729 138.998 57.7316 139.212 57.6489C139.429 57.5662 139.596 57.4513 139.713 57.3043C139.829 57.1573 139.889 56.9889 139.892 56.799C139.889 56.6214 139.834 56.4698 139.726 56.3442C139.619 56.2156 139.454 56.1053 139.23 56.0134C139.01 55.9185 138.728 55.8312 138.385 55.7516L137.402 55.5219C136.587 55.3351 135.946 55.0334 135.477 54.6169C135.008 54.1973 134.776 53.6307 134.779 52.9171C134.776 52.3352 134.932 51.8253 135.247 51.3873C135.563 50.9494 135.999 50.6079 136.557 50.3629C137.114 50.1178 137.749 49.9953 138.463 49.9953C139.192 49.9953 139.824 50.1194 140.36 50.3674C140.899 50.6125 141.317 50.957 141.615 51.4011C141.912 51.8452 142.063 52.3597 142.069 52.9447H139.892ZM146.899 59.6656C146.155 59.6656 145.516 59.5125 144.983 59.2062C144.454 58.9 144.046 58.4743 143.761 57.9291C143.477 57.3809 143.334 56.7469 143.334 56.0272C143.334 55.3044 143.477 54.6705 143.761 54.1253C144.049 53.5771 144.458 53.1499 144.988 52.8436C145.521 52.5373 146.156 52.3842 146.894 52.3842C147.547 52.3842 148.115 52.5021 148.599 52.7379C149.086 52.9738 149.466 53.3076 149.738 53.7394C150.014 54.1682 150.159 54.672 150.175 55.2508H148.075C148.032 54.8894 147.91 54.6061 147.708 54.4009C147.509 54.1958 147.248 54.0932 146.927 54.0932C146.666 54.0932 146.438 54.1667 146.242 54.3137C146.046 54.4576 145.893 54.672 145.783 54.9568C145.676 55.2386 145.622 55.5877 145.622 56.0042C145.622 56.4208 145.676 56.773 145.783 57.0609C145.893 57.3457 146.046 57.5616 146.242 57.7086C146.438 57.8525 146.666 57.9245 146.927 57.9245C147.135 57.9245 147.319 57.8801 147.478 57.7913C147.64 57.7025 147.773 57.5723 147.878 57.4008C147.982 57.2262 148.048 57.0149 148.075 56.7668H150.175C150.153 57.3487 150.008 57.8571 149.738 58.292C149.472 58.7269 149.097 59.0654 148.613 59.3073C148.132 59.5462 147.561 59.6656 146.899 59.6656ZM153.829 55.5081V59.5324H151.583V50.124H153.756V53.7716H153.834C153.993 53.3367 154.254 52.9967 154.615 52.7517C154.979 52.5067 155.425 52.3842 155.952 52.3842C156.448 52.3842 156.88 52.4945 157.247 52.715C157.615 52.9324 157.9 53.2402 158.102 53.6384C158.307 54.0365 158.408 54.502 158.405 55.0349V59.5324H156.159V55.4759C156.162 55.0839 156.064 54.7777 155.865 54.5571C155.665 54.3366 155.385 54.2264 155.024 54.2264C154.788 54.2264 154.58 54.2784 154.399 54.3826C154.221 54.4836 154.082 54.6291 153.981 54.819C153.883 55.0089 153.832 55.2386 153.829 55.5081ZM163.36 59.6656C162.619 59.6656 161.982 59.514 161.449 59.2108C160.919 58.9046 160.51 58.4789 160.222 57.9337C159.937 57.3855 159.795 56.75 159.795 56.0272C159.795 55.3014 159.937 54.6659 160.222 54.1207C160.51 53.5725 160.919 53.1468 161.449 52.8436C161.982 52.5373 162.619 52.3842 163.36 52.3842C164.101 52.3842 164.737 52.5373 165.266 52.8436C165.799 53.1468 166.208 53.5725 166.493 54.1207C166.781 54.6659 166.925 55.3014 166.925 56.0272C166.925 56.75 166.781 57.3855 166.493 57.9337C166.208 58.4789 165.799 58.9046 165.266 59.2108C164.737 59.514 164.101 59.6656 163.36 59.6656ZM163.374 57.9705C163.643 57.9705 163.871 57.8878 164.058 57.7224C164.245 57.557 164.387 57.3273 164.485 57.0333C164.586 56.7393 164.637 56.3993 164.637 56.0134C164.637 55.6214 164.586 55.2784 164.485 54.9844C164.387 54.6904 164.245 54.4607 164.058 54.2953C163.871 54.1299 163.643 54.0472 163.374 54.0472C163.095 54.0472 162.859 54.1299 162.666 54.2953C162.476 54.4607 162.331 54.6904 162.23 54.9844C162.132 55.2784 162.083 55.6214 162.083 56.0134C162.083 56.3993 162.132 56.7393 162.23 57.0333C162.331 57.3273 162.476 57.557 162.666 57.7224C162.859 57.8878 163.095 57.9705 163.374 57.9705ZM171.628 59.6656C170.887 59.6656 170.25 59.514 169.717 59.2108C169.187 58.9046 168.778 58.4789 168.491 57.9337C168.206 57.3855 168.063 56.75 168.063 56.0272C168.063 55.3014 168.206 54.6659 168.491 54.1207C168.778 53.5725 169.187 53.1468 169.717 52.8436C170.25 52.5373 170.887 52.3842 171.628 52.3842C172.369 52.3842 173.005 52.5373 173.535 52.8436C174.068 53.1468 174.476 53.5725 174.761 54.1207C175.049 54.6659 175.193 55.3014 175.193 56.0272C175.193 56.75 175.049 57.3855 174.761 57.9337C174.476 58.4789 174.068 58.9046 173.535 59.2108C173.005 59.514 172.369 59.6656 171.628 59.6656ZM171.642 57.9705C171.912 57.9705 172.14 57.8878 172.326 57.7224C172.513 57.557 172.656 57.3273 172.754 57.0333C172.855 56.7393 172.905 56.3993 172.905 56.0134C172.905 55.6214 172.855 55.2784 172.754 54.9844C172.656 54.6904 172.513 54.4607 172.326 54.2953C172.14 54.1299 171.912 54.0472 171.642 54.0472C171.363 54.0472 171.127 54.1299 170.935 54.2953C170.745 54.4607 170.599 54.6904 170.498 54.9844C170.4 55.2784 170.351 55.6214 170.351 56.0134C170.351 56.3993 170.4 56.7393 170.498 57.0333C170.599 57.3273 170.745 57.557 170.935 57.7224C171.127 57.8878 171.363 57.9705 171.642 57.9705ZM178.849 50.124V59.5324H176.603V50.124H178.849Z" fill="white"/>
<defs>
<linearGradient id="paint0_linear_355_161" x1="61.3071" y1="54.2388" x2="151.579" y2="-11.8517" gradientUnits="userSpaceOnUse">
<stop stop-color="#D5261A"/>
<stop offset="0.293269" stop-color="#F26D34"/>
<stop offset="0.596154" stop-color="#FBFE57"/>
</linearGradient>
</defs>
</svg>
