<svg width="220" height="87" viewBox="0 0 220 87" fill="none" xmlns="http://www.w3.org/2000/svg">
<g filter="url(#filter0_d_265_232)">
<path d="M56.1515 44.999L52.364 42.6318C87.6406 14.0743 109.29 7.05213 144.683 1.44336C122.481 7.30676 110.582 11.3973 92.1322 22.7477C110.721 16.1219 122.291 13.771 142.789 10.912C108.125 21.4171 90.2491 28.2429 66.5669 41.685C110.189 22.2579 137.396 16.1528 173.089 13.7526C135.475 21.1096 123.016 24.313 94.0259 37.4241C120.826 27.3573 129.056 25.938 151.311 24.168C128.041 29.1638 113.464 32.8583 92.1322 42.6318C136.285 29.195 150.638 28.3714 176.876 27.0086C129.898 33.878 107.321 41.8592 69.8809 59.2019L83.6104 44.5256L56.1515 44.999Z" fill="url(#paint0_linear_265_232)"/>
<path d="M56.1515 44.999L52.364 42.6318C87.6406 14.0743 109.29 7.05213 144.683 1.44336C122.481 7.30676 110.582 11.3973 92.1322 22.7477C110.721 16.1219 122.291 13.771 142.789 10.912C108.125 21.4171 90.2491 28.2429 66.5669 41.685C110.189 22.2579 137.396 16.1528 173.089 13.7526C135.475 21.1096 123.016 24.313 94.0259 37.4241C120.826 27.3573 129.056 25.938 151.311 24.168C128.041 29.1638 113.464 32.8583 92.1322 42.6318C136.285 29.195 150.638 28.3714 176.876 27.0086C129.898 33.878 107.321 41.8592 69.8809 59.2019L83.6104 44.5256L56.1515 44.999Z" stroke="white" stroke-width="1.5"/>
</g>
<path d="M176.416 25.3055C178.169 25.3056 179.749 25.6218 181.118 26.3006C182.496 26.9733 183.585 27.9579 184.348 29.2479C185.115 30.5375 185.474 32.0309 185.474 33.6805C185.474 35.3509 185.108 36.8513 184.314 38.1239L184.312 38.1268C183.755 39.0128 183.034 39.7427 182.165 40.3202L186.065 47.4764L187.031 49.2508H178.611L178.272 48.6161L174.67 41.8758H173.923V49.2508H166.316V25.3055H176.416ZM173.923 35.3739H175.29C175.978 35.3739 176.474 35.2825 176.819 35.1502C177.15 35.0192 177.338 34.8524 177.457 34.6717C177.574 34.4883 177.678 34.1851 177.678 33.6805C177.678 33.1743 177.574 32.8621 177.451 32.6678L177.447 32.66C177.321 32.4573 177.128 32.2835 176.804 32.1512L176.791 32.1463V32.1444C176.447 31.9997 175.96 31.9032 175.29 31.9032H173.923V35.3739Z" fill="black" stroke="white" stroke-width="2.4"/>
<path d="M158.788 25.3055L159.064 26.1219L166.333 47.6668L166.867 49.2508H158.719L158.454 48.41L157.298 44.7274H151.62L150.467 48.41L150.203 49.2508H142.054L142.588 47.6668L149.857 26.1219L150.133 25.3055H158.788ZM153.612 38.3719H155.303L154.456 35.6747L153.612 38.3719Z" fill="black" stroke="white" stroke-width="2.4"/>
<path d="M146.008 25.3055V31.9344H139.475V49.2508H131.942V31.9344H125.398V25.3055H146.008Z" fill="black" stroke="white" stroke-width="2.4"/>
<path d="M116.121 25.011C117.924 25.011 119.552 25.3177 120.969 25.9738L120.968 25.9748C122.38 26.6178 123.518 27.5428 124.334 28.7629C125.157 29.992 125.562 31.4026 125.579 32.9524L125.591 34.1653H118.404C119.511 34.4103 120.515 34.7391 121.407 35.1613L121.746 35.3274C122.521 35.7252 123.204 36.199 123.784 36.7551C124.463 37.4002 124.986 38.153 125.339 39.007C125.694 39.8634 125.864 40.7979 125.873 41.7922V41.8078C125.864 43.3754 125.465 44.7891 124.626 45.9914C123.794 47.185 122.615 48.0654 121.159 48.6574L121.158 48.6565C119.708 49.2487 118.014 49.5246 116.11 49.5246C114.19 49.5246 112.46 49.237 110.948 48.6272C109.407 48.0058 108.167 47.0405 107.278 45.7238C106.372 44.3828 105.948 42.7459 105.925 40.8908L105.911 39.676H112.113C110.685 39.2128 109.463 38.5612 108.485 37.6916L108.482 37.6887C107.117 36.4669 106.475 34.8226 106.483 32.8967C106.477 31.3358 106.902 29.9198 107.783 28.6975C108.646 27.4995 109.824 26.5903 111.271 25.9543C112.724 25.3158 114.349 25.011 116.121 25.011ZM113.31 40.8039C113.342 41.324 113.474 41.6737 113.647 41.9162C113.833 42.1774 114.097 42.3934 114.482 42.5539L114.64 42.6135C115.022 42.7452 115.485 42.8215 116.046 42.8215C116.646 42.8215 117.087 42.7401 117.403 42.6184L117.409 42.6154C117.752 42.4847 117.937 42.3338 118.041 42.2033C118.137 42.0809 118.184 41.9558 118.19 41.7903C118.184 41.6538 118.148 41.5846 118.1 41.5285L118.096 41.5237L118.091 41.5178C118.014 41.4251 117.826 41.2695 117.42 41.1028L117.403 41.0949C116.986 40.9155 116.415 40.7346 115.67 40.5617H115.668L113.417 40.0354V40.0344C113.364 40.0224 113.312 40.0097 113.26 39.9973L113.31 40.8039ZM116.11 31.7141C115.531 31.7141 115.129 31.7907 114.863 31.8947C114.572 32.0082 114.445 32.1283 114.387 32.2082L114.379 32.219C114.312 32.3099 114.272 32.4116 114.269 32.5656V32.5813L114.268 32.5959C114.263 32.7126 114.284 32.7674 114.297 32.7932C114.344 32.8658 114.422 32.9544 114.56 33.052C114.744 33.1694 114.987 33.2896 115.303 33.4026C115.554 33.4921 115.836 33.5756 116.151 33.6526L116.477 33.7278L116.484 33.7287L116.492 33.7307L118.293 34.1399L118.197 33.0735C118.153 32.5952 117.982 32.3163 117.722 32.1154L117.708 32.1057C117.451 31.9015 116.975 31.7141 116.11 31.7141Z" fill="black" stroke="white" stroke-width="2.4"/>
<path d="M99.6841 25.3055L99.9595 26.1219L107.229 47.6668L107.763 49.2508H99.6147L99.3501 48.41L98.1938 44.7274H92.5161L91.3628 48.41L91.0991 49.2508H82.9497L83.4839 47.6668L90.7524 26.1219L91.0288 25.3055H99.6841ZM94.5073 38.3719H96.1987L95.3521 35.6747L94.5073 38.3719Z" fill="black" stroke="white" stroke-width="2.4"/>
<path d="M90.399 66.6849H85.7584V53.594H90.4374C91.7541 53.594 92.8877 53.8561 93.8379 54.3802C94.7882 54.9001 95.519 55.648 96.0304 56.6238C96.546 57.5997 96.8038 58.7673 96.8038 60.1267C96.8038 61.4903 96.546 62.6622 96.0304 63.6423C95.519 64.6224 94.784 65.3745 93.8252 65.8987C92.8706 66.4228 91.7286 66.6849 90.399 66.6849ZM88.5261 64.3135H90.284C91.1021 64.3135 91.7903 64.1686 92.3486 63.8788C92.9111 63.5848 93.333 63.1309 93.6142 62.5173C93.8997 61.8994 94.0425 61.1025 94.0425 60.1267C94.0425 59.1593 93.8997 58.3689 93.6142 57.7552C93.333 57.1416 92.9132 56.6899 92.355 56.4001C91.7967 56.1103 91.1085 55.9654 90.2904 55.9654H88.5261V64.3135ZM98.803 66.6849V56.8667H101.443V58.5798H101.545C101.724 57.9704 102.025 57.5102 102.446 57.1991C102.868 56.8838 103.354 56.7261 103.904 56.7261C104.04 56.7261 104.187 56.7346 104.345 56.7517C104.503 56.7687 104.641 56.7922 104.76 56.822V59.2382C104.633 59.1998 104.456 59.1657 104.23 59.1359C104.004 59.1061 103.797 59.0912 103.61 59.0912C103.209 59.0912 102.851 59.1785 102.536 59.3532C102.225 59.5237 101.978 59.7623 101.794 60.0691C101.615 60.376 101.526 60.7297 101.526 61.1302V66.6849H98.803ZM106.168 66.6849V56.8667H108.891V66.6849H106.168ZM107.536 55.6011C107.131 55.6011 106.784 55.4669 106.494 55.1984C106.209 54.9257 106.066 54.5997 106.066 54.2204C106.066 53.8454 106.209 53.5237 106.494 53.2552C106.784 52.9825 107.131 52.8461 107.536 52.8461C107.941 52.8461 108.286 52.9825 108.572 53.2552C108.861 53.5237 109.006 53.8454 109.006 54.2204C109.006 54.5997 108.861 54.9257 108.572 55.1984C108.286 55.4669 107.941 55.6011 107.536 55.6011ZM120.226 56.8667L116.793 66.6849H113.725L110.293 56.8667H113.169L115.208 63.8916H115.31L117.343 56.8667H120.226ZM121.619 66.6849V56.8667H124.342V66.6849H121.619ZM122.987 55.6011C122.582 55.6011 122.235 55.4669 121.945 55.1984C121.66 54.9257 121.517 54.5997 121.517 54.2204C121.517 53.8454 121.66 53.5237 121.945 53.2552C122.235 52.9825 122.582 52.8461 122.987 52.8461C123.392 52.8461 123.737 52.9825 124.023 53.2552C124.313 53.5237 124.457 53.8454 124.457 54.2204C124.457 54.5997 124.313 54.9257 124.023 55.1984C123.737 55.4669 123.392 55.6011 122.987 55.6011ZM129.247 61.0088V66.6849H126.524V56.8667H129.119V58.599H129.234C129.451 58.0279 129.816 57.5762 130.327 57.2439C130.838 56.9072 131.458 56.7389 132.187 56.7389C132.869 56.7389 133.463 56.888 133.97 57.1863C134.477 57.4846 134.872 57.9108 135.153 58.4647C135.434 59.0145 135.575 59.6707 135.575 60.4335V66.6849H132.852V60.9193C132.856 60.3184 132.703 59.8497 132.392 59.513C132.08 59.1721 131.652 59.0017 131.107 59.0017C130.74 59.0017 130.416 59.0805 130.135 59.2382C129.858 59.3958 129.641 59.626 129.483 59.9285C129.33 60.2268 129.251 60.5869 129.247 61.0088ZM142.144 70.5713C141.262 70.5713 140.506 70.4498 139.875 70.2069C139.249 69.9683 138.75 69.6423 138.379 69.2289C138.009 68.8156 137.768 68.3511 137.657 67.8355L140.175 67.4967C140.252 67.6927 140.374 67.876 140.54 68.0464C140.706 68.2169 140.925 68.3532 141.198 68.4555C141.475 68.562 141.812 68.6153 142.208 68.6153C142.8 68.6153 143.288 68.4704 143.672 68.1806C144.06 67.8951 144.254 67.4157 144.254 66.7424V64.9463H144.139C144.019 65.219 143.84 65.4768 143.602 65.7197C143.363 65.9626 143.056 66.1608 142.681 66.3142C142.306 66.4676 141.859 66.5443 141.339 66.5443C140.602 66.5443 139.93 66.3738 139.325 66.0329C138.724 65.6877 138.245 65.1615 137.887 64.4541C137.533 63.7424 137.357 62.8433 137.357 61.7566C137.357 60.6444 137.538 59.7154 137.9 58.9697C138.262 58.224 138.744 57.6657 139.345 57.295C139.95 56.9243 140.612 56.7389 141.332 56.7389C141.882 56.7389 142.342 56.8326 142.713 57.0201C143.084 57.2034 143.382 57.4335 143.608 57.7105C143.838 57.9832 144.015 58.2517 144.139 58.5159H144.241V56.8667H146.945V66.7808C146.945 67.616 146.74 68.3149 146.331 68.8774C145.922 69.4399 145.355 69.8618 144.631 70.143C143.911 70.4285 143.082 70.5713 142.144 70.5713ZM142.202 64.4988C142.641 64.4988 143.011 64.3902 143.314 64.1728C143.621 63.9512 143.855 63.6359 144.017 63.2268C144.183 62.8135 144.266 62.3191 144.266 61.7439C144.266 61.1686 144.185 60.67 144.023 60.2481C143.862 59.822 143.627 59.4917 143.32 59.2573C143.014 59.023 142.641 58.9058 142.202 58.9058C141.754 58.9058 141.377 59.0272 141.07 59.2701C140.764 59.5088 140.531 59.8412 140.374 60.2673C140.216 60.6934 140.137 61.1856 140.137 61.7439C140.137 62.3106 140.216 62.8007 140.374 63.214C140.536 63.6231 140.768 63.9406 141.07 64.1664C141.377 64.388 141.754 64.4988 142.202 64.4988ZM160.43 57.3589C160.379 56.8433 160.16 56.4427 159.772 56.1572C159.384 55.8717 158.858 55.7289 158.193 55.7289C157.741 55.7289 157.36 55.7929 157.049 55.9207C156.738 56.0443 156.499 56.2169 156.333 56.4385C156.171 56.66 156.09 56.9115 156.09 57.1927C156.082 57.4271 156.131 57.6316 156.237 57.8064C156.348 57.9811 156.499 58.1323 156.691 58.2602C156.883 58.3838 157.104 58.4924 157.356 58.5862C157.607 58.6757 157.876 58.7524 158.161 58.8163L159.337 59.0975C159.908 59.2254 160.432 59.3958 160.91 59.6089C161.387 59.822 161.8 60.0841 162.15 60.3951C162.499 60.7062 162.77 61.0727 162.962 61.4946C163.158 61.9164 163.258 62.4001 163.262 62.9456C163.258 63.7467 163.053 64.4413 162.648 65.0294C162.248 65.6132 161.668 66.067 160.91 66.3909C160.155 66.7105 159.246 66.8703 158.18 66.8703C157.123 66.8703 156.203 66.7083 155.419 66.3845C154.639 66.0606 154.03 65.5812 153.591 64.9463C153.156 64.3071 152.928 63.5166 152.907 62.5748H155.585C155.615 63.0137 155.741 63.3802 155.962 63.6743C156.188 63.964 156.489 64.1835 156.864 64.3326C157.243 64.4775 157.671 64.55 158.148 64.55C158.617 64.55 159.024 64.4818 159.369 64.3454C159.719 64.2091 159.989 64.0194 160.181 63.7765C160.373 63.5336 160.469 63.2545 160.469 62.9392C160.469 62.6451 160.381 62.398 160.207 62.1977C160.036 61.9974 159.785 61.827 159.452 61.6863C159.124 61.5457 158.721 61.4179 158.244 61.3028L156.819 60.9448C155.715 60.6764 154.844 60.2566 154.204 59.6856C153.565 59.1146 153.248 58.3454 153.252 57.3781C153.248 56.5855 153.459 55.893 153.885 55.3007C154.315 54.7083 154.905 54.246 155.655 53.9136C156.405 53.5812 157.258 53.415 158.212 53.415C159.184 53.415 160.032 53.5812 160.756 53.9136C161.485 54.246 162.052 54.7083 162.457 55.3007C162.861 55.893 163.07 56.5791 163.083 57.3589H160.43ZM169.509 66.8767C168.503 66.8767 167.638 66.6636 166.913 66.2375C166.193 65.8071 165.639 65.2105 165.251 64.4477C164.868 63.6849 164.676 62.8071 164.676 61.8142C164.676 60.8085 164.87 59.9264 165.258 59.1679C165.65 58.4051 166.206 57.8106 166.926 57.3845C167.646 56.9541 168.503 56.7389 169.496 56.7389C170.352 56.7389 171.102 56.8944 171.746 57.2055C172.389 57.5166 172.898 57.9534 173.273 58.5159C173.648 59.0784 173.855 59.7389 173.894 60.4974H171.324C171.251 60.0073 171.06 59.6132 170.749 59.3149C170.442 59.0123 170.039 58.861 169.541 58.861C169.119 58.861 168.75 58.9761 168.435 59.2062C168.124 59.4321 167.881 59.7623 167.706 60.197C167.531 60.6316 167.444 61.1579 167.444 61.7758C167.444 62.4022 167.529 62.9349 167.7 63.3738C167.874 63.8127 168.119 64.1473 168.435 64.3774C168.75 64.6075 169.119 64.7225 169.541 64.7225C169.852 64.7225 170.131 64.6586 170.378 64.5308C170.629 64.4029 170.836 64.2176 170.998 63.9747C171.164 63.7275 171.273 63.4314 171.324 63.0862H173.894C173.851 63.8362 173.646 64.4967 173.28 65.0677C172.918 65.6345 172.417 66.0777 171.778 66.3973C171.139 66.7169 170.382 66.8767 169.509 66.8767ZM178.36 61.0088V66.6849H175.637V53.594H178.283V58.599H178.398C178.62 58.0194 178.978 57.5656 179.472 57.2375C179.966 56.9051 180.587 56.7389 181.332 56.7389C182.014 56.7389 182.609 56.888 183.116 57.1863C183.627 57.4804 184.023 57.9044 184.305 58.4583C184.59 59.0081 184.731 59.6664 184.726 60.4335V66.6849H182.003V60.9193C182.008 60.3142 181.854 59.8433 181.543 59.5066C181.236 59.17 180.806 59.0017 180.252 59.0017C179.881 59.0017 179.553 59.0805 179.268 59.2382C178.986 59.3958 178.765 59.626 178.603 59.9285C178.445 60.2268 178.364 60.5869 178.36 61.0088ZM191.305 66.8767C190.313 66.8767 189.454 66.6657 188.729 66.2439C188.009 65.8177 187.453 65.2254 187.061 64.4669C186.669 63.7041 186.473 62.8198 186.473 61.8142C186.473 60.8 186.669 59.9136 187.061 59.1551C187.453 58.3923 188.009 57.8 188.729 57.3781C189.454 56.952 190.313 56.7389 191.305 56.7389C192.298 56.7389 193.155 56.952 193.875 57.3781C194.599 57.8 195.158 58.3923 195.55 59.1551C195.942 59.9136 196.138 60.8 196.138 61.8142C196.138 62.8198 195.942 63.7041 195.55 64.4669C195.158 65.2254 194.599 65.8177 193.875 66.2439C193.155 66.6657 192.298 66.8767 191.305 66.8767ZM191.318 64.7673C191.77 64.7673 192.147 64.6395 192.45 64.3838C192.752 64.1238 192.98 63.7701 193.134 63.3227C193.291 62.8752 193.37 62.366 193.37 61.795C193.37 61.224 193.291 60.7147 193.134 60.2673C192.98 59.8198 192.752 59.4662 192.45 59.2062C192.147 58.9463 191.77 58.8163 191.318 58.8163C190.862 58.8163 190.479 58.9463 190.168 59.2062C189.861 59.4662 189.629 59.8198 189.471 60.2673C189.318 60.7147 189.241 61.224 189.241 61.795C189.241 62.366 189.318 62.8752 189.471 63.3227C189.629 63.7701 189.861 64.1238 190.168 64.3838C190.479 64.6395 190.862 64.7673 191.318 64.7673ZM202.345 66.8767C201.352 66.8767 200.493 66.6657 199.769 66.2439C199.048 65.8177 198.492 65.2254 198.1 64.4669C197.708 63.7041 197.512 62.8198 197.512 61.8142C197.512 60.8 197.708 59.9136 198.1 59.1551C198.492 58.3923 199.048 57.8 199.769 57.3781C200.493 56.952 201.352 56.7389 202.345 56.7389C203.337 56.7389 204.194 56.952 204.914 57.3781C205.639 57.8 206.197 58.3923 206.589 59.1551C206.981 59.9136 207.177 60.8 207.177 61.8142C207.177 62.8198 206.981 63.7041 206.589 64.4669C206.197 65.2254 205.639 65.8177 204.914 66.2439C204.194 66.6657 203.337 66.8767 202.345 66.8767ZM202.357 64.7673C202.809 64.7673 203.186 64.6395 203.489 64.3838C203.791 64.1238 204.019 63.7701 204.173 63.3227C204.33 62.8752 204.409 62.366 204.409 61.795C204.409 61.224 204.33 60.7147 204.173 60.2673C204.019 59.8198 203.791 59.4662 203.489 59.2062C203.186 58.9463 202.809 58.8163 202.357 58.8163C201.901 58.8163 201.518 58.9463 201.207 59.2062C200.9 59.4662 200.668 59.8198 200.51 60.2673C200.357 60.7147 200.28 61.224 200.28 61.795C200.28 62.366 200.357 62.8752 200.51 63.3227C200.668 63.7701 200.9 64.1238 201.207 64.3838C201.518 64.6395 201.901 64.7673 202.357 64.7673ZM211.67 53.594V66.6849H208.947V53.594H211.67Z" fill="white"/>
<path d="M34.921 36.8348L51.8619 48.8274L75.0819 47.0973L77.1872 46.9408L75.7776 48.5123L63.9817 61.6679L73.8773 72.4629L75.3929 74.1156L73.1623 73.8823L46.2537 71.0707L29.1867 81.34L28.0427 82.029L27.9027 80.7005L26.0727 63.2807L3.47177 58.2431L3.46939 56.5845L32.2286 50.0905L33.5846 37.4382L33.7386 35.9984L34.921 36.8348Z" fill="#DB0D06" stroke="white" stroke-width="1.7"/>
<path d="M36.0699 41.0159L48.6632 53.6092L69.8018 50.0111L53.1607 61.7049L67.553 70.7L44.1656 65.3029L32.4718 76.0971L34.7206 61.7049L12.2327 57.657L36.9694 55.858L36.0699 41.0159Z" fill="#F7FA4C"/>
<defs>
<filter id="filter0_d_265_232" x="47.0747" y="0.702606" width="133.91" height="67.1798" filterUnits="userSpaceOnUse" color-interpolation-filters="sRGB">
<feFlood flood-opacity="0" result="BackgroundImageFix"/>
<feColorMatrix in="SourceAlpha" type="matrix" values="0 0 0 0 0 0 0 0 0 0 0 0 0 0 0 0 0 0 127 0" result="hardAlpha"/>
<feOffset dy="4"/>
<feGaussianBlur stdDeviation="2"/>
<feComposite in2="hardAlpha" operator="out"/>
<feColorMatrix type="matrix" values="0 0 0 0 0 0 0 0 0 0 0 0 0 0 0 0 0 0 0.25 0"/>
<feBlend mode="normal" in2="BackgroundImageFix" result="effect1_dropShadow_265_232"/>
<feBlend mode="normal" in="SourceGraphic" in2="effect1_dropShadow_265_232" result="shape"/>
</filter>
<linearGradient id="paint0_linear_265_232" x1="61.0392" y1="54.2778" x2="151.311" y2="-11.8127" gradientUnits="userSpaceOnUse">
<stop stop-color="#D5261A"/>
<stop offset="0.293269" stop-color="#F26D34"/>
<stop offset="0.596154" stop-color="#FBFE57"/>
</linearGradient>
</defs>
</svg>
