<svg width="178" height="87" viewBox="0 0 178 87" fill="none" xmlns="http://www.w3.org/2000/svg">
<path d="M34.9253 37.3924L51.8214 49.3525L74.9886 47.6274L77.4652 47.4432L75.8074 49.292L64.103 62.3467L73.9057 73.0405L75.6888 74.9854L73.0645 74.7107L46.206 71.9046L29.1824 82.1479L27.8362 82.9579L27.6724 81.3959L25.8528 64.0837L3.35652 59.0691L3.35489 57.1181L32.0092 50.6469L33.3536 38.1019L33.5353 36.4078L34.9253 37.3924Z" fill="#DB0D06" stroke="white" stroke-width="2"/>
<path d="M35.9876 41.6953L48.5809 54.2886L69.7196 50.6905L53.0785 62.3843L67.4708 71.3794L44.0833 65.9823L32.3896 76.7766L34.6383 62.3843L12.1504 58.3364L36.8871 56.5374L35.9876 41.6953Z" fill="#F7FA4C"/>
<path d="M56.537 45.1691L52.7495 42.8019C88.0261 14.2445 109.676 7.22224 145.068 1.61347C122.866 7.47687 110.967 11.5675 92.5177 22.9178C111.107 16.292 122.676 13.9412 143.175 11.0821C108.511 21.5872 90.6346 28.413 66.9524 41.8551C110.575 22.428 137.781 16.3229 173.474 13.9227C135.86 21.2797 123.401 24.4832 94.4114 37.5942C121.211 27.5274 129.442 26.1081 151.697 24.3381C128.426 29.334 113.849 33.0285 92.5177 42.8019C136.67 29.3651 151.023 28.5415 177.262 27.1787C130.284 34.0481 107.707 42.0293 70.2664 59.372L83.9959 44.6957L56.537 45.1691Z" fill="url(#paint0_linear_354_322)" stroke="white" stroke-width="1.8"/>
<defs>
<linearGradient id="paint0_linear_354_322" x1="61.4247" y1="54.4479" x2="151.697" y2="-11.6426" gradientUnits="userSpaceOnUse">
<stop stop-color="#D5261A"/>
<stop offset="0.293269" stop-color="#F26D34"/>
<stop offset="0.596154" stop-color="#FBFE57"/>
</linearGradient>
</defs>
</svg>
