<svg width="202" height="79" viewBox="0 0 202 79" fill="none" xmlns="http://www.w3.org/2000/svg">
<g filter="url(#filter0_d_214_291)">
<path d="M46.4736 44.4457L42.6861 42.0786C77.9627 13.5211 99.612 6.49888 135.005 0.890106C112.803 6.75351 100.904 10.8441 82.4543 22.1945C101.043 15.5687 112.613 13.2178 133.111 10.3587C98.447 20.8638 80.5712 27.6896 56.8891 41.1317C100.512 21.7047 127.718 15.5995 163.411 13.1993C125.797 20.5563 113.338 23.7598 84.348 36.8708C111.148 26.8041 119.378 25.3848 141.633 23.6148C118.363 28.6106 103.786 32.3051 82.4543 42.0786C126.607 28.6418 140.96 27.8182 167.198 26.4554C120.221 33.3247 97.643 41.3059 60.2031 58.6487L73.9326 43.9723L46.4736 44.4457Z" fill="url(#paint0_linear_214_291)"/>
</g>
<path d="M30.3769 36.8708L43.633 50.1269L65.8842 46.3395L48.3673 58.6487L63.5171 68.1173L38.8987 62.4361L26.5895 73.7984L28.9567 58.6487L5.2851 54.3878L31.3238 52.4941L30.3769 36.8708Z" fill="#F7FA4C"/>
<path d="M5.1968 54.88L28.3863 59.0534L26.0958 73.7216L25.8744 75.1397L26.929 74.1661L39.0441 62.982L63.4044 68.6048L63.7815 67.6929L49.2702 58.6235L66.1714 46.7487L65.9998 46.3336L68.7955 46.1245L57.3164 58.9296L57.0138 59.2672L57.32 59.6013L66.8448 69.9919L40.9653 67.2875L40.7981 67.2705L40.6556 67.3572L24.0173 77.3674L22.2056 60.1214L22.1678 59.7641L21.8172 59.6857L0.79313 54.9991L5.2432 53.9944L5.1968 54.88ZM46.1845 47.6945L46.3319 47.7984L46.5106 47.785L68.7955 46.1245L43.804 49.5896L29.6887 36.0178L46.1845 47.6945ZM29.8304 36.1179L29.8783 36.9011L30.7948 52.0305L5.9262 53.8397L27.9728 48.862L28.3217 48.7841L28.36 48.4279L29.6887 36.0178L29.8304 36.1179Z" fill="#DB0D06"/>
<path d="M68.7955 46.1245L65.9998 46.3336L66.1714 46.7487L49.2702 58.6235L63.7815 67.6929L63.4044 68.6048L39.0441 62.982L26.929 74.1661L25.8744 75.1397L26.0958 73.7216L28.3863 59.0534L5.1968 54.88L5.2432 53.9944L0.79313 54.9991L21.8172 59.6857L22.1678 59.7641L22.2056 60.1214L24.0173 77.3674L40.6556 67.3572L40.7981 67.2705L40.9653 67.2875L66.8448 69.9919L57.32 59.6013L57.0138 59.2672L57.3164 58.9296L68.7955 46.1245ZM68.7955 46.1245L46.5106 47.785L46.3319 47.7984L46.1845 47.6945L29.6887 36.0178M68.7955 46.1245L43.804 49.5896L29.6887 36.0178M29.6887 36.0178L28.36 48.4279L28.3217 48.7841L27.9728 48.862L5.9262 53.8397L30.7948 52.0305L29.8783 36.9011L29.8304 36.1179L29.6887 36.0178Z" stroke="#DA2215"/>
<path d="M159.497 27.1735C161.041 27.1736 162.402 27.4517 163.563 28.028C164.732 28.5985 165.644 29.4269 166.284 30.5095L166.4 30.7136C166.962 31.7464 167.236 32.9411 167.236 34.2819C167.236 35.7313 166.919 36.9971 166.259 38.0544L166.258 38.0563C165.697 38.9491 164.935 39.6564 163.986 40.1813L167.853 47.28L168.256 48.0192H161.881L161.741 47.7546L158.253 41.2263H156.596V48.0192H150.799V27.1735H159.497ZM156.596 36.447H158.46C159.143 36.447 159.679 36.3582 160.088 36.2009C160.497 36.0396 160.78 35.8097 160.967 35.5212C161.153 35.2293 161.265 34.8274 161.265 34.2819C161.265 33.7351 161.152 33.3273 160.963 33.027L160.961 33.0241C160.771 32.7167 160.487 32.478 160.083 32.3132L160.078 32.3112C159.666 32.1376 159.132 32.0397 158.46 32.0397H156.596V36.447Z" fill="black" stroke="white"/>
<path d="M142.825 27.1735L142.94 27.5134L149.637 47.3591L149.859 48.0192H143.641L143.53 47.6686L142.332 43.8522H136.213L135.018 47.6686L134.907 48.0192H128.688L128.911 47.3591L135.607 27.5134L135.722 27.1735H142.825ZM137.668 39.2087H140.874L139.269 34.0964L137.668 39.2087Z" fill="black" stroke="white"/>
<path d="M130.882 27.1735V32.069H124.865V48.0192H119.136V32.069H113.109V27.1735H130.882Z" fill="black" stroke="white"/>
<path d="M103.958 26.9022C105.551 26.9022 106.96 27.1733 108.169 27.7332C109.381 28.2842 110.338 29.0681 111.021 30.0897C111.707 31.1147 112.05 32.2967 112.064 33.618L112.07 34.1229H106.514L106.473 33.6688C106.42 33.0803 106.191 32.6617 105.803 32.3622L105.797 32.3573C105.414 32.053 104.821 31.8651 103.948 31.8651C103.367 31.8651 102.917 31.9414 102.58 32.0731C102.232 32.2088 102.009 32.3813 101.872 32.5702L101.869 32.575C101.727 32.7651 101.652 32.9827 101.647 33.245V33.2577C101.638 33.4735 101.68 33.6386 101.755 33.7713C101.848 33.9226 101.985 34.0684 102.18 34.2049C102.398 34.3461 102.67 34.4782 103.001 34.5965C103.255 34.6869 103.535 34.7694 103.842 34.8446L104.159 34.9178L104.166 34.9188L105.871 35.3065C106.88 35.5259 107.78 35.8204 108.569 36.1942C109.365 36.5686 110.047 37.0207 110.603 37.5555C111.168 38.0928 111.599 38.7153 111.891 39.4207C112.184 40.1276 112.329 40.9095 112.335 41.7586V41.7655C112.329 43.105 111.989 44.2834 111.296 45.2762C110.606 46.2653 109.621 47.0089 108.371 47.5174L108.37 47.5164C107.125 48.0249 105.647 48.2713 103.948 48.2713C102.239 48.2713 100.725 48.0156 99.419 47.4891C98.102 46.9578 97.059 46.141 96.314 45.037C95.562 43.9228 95.193 42.5387 95.172 40.9168L95.167 40.41H100.736L100.764 40.8797C100.799 41.4468 100.948 41.885 101.186 42.2196C101.43 42.5617 101.768 42.8282 102.218 43.0155C102.683 43.2058 103.237 43.3075 103.89 43.3075C104.494 43.3074 104.978 43.2261 105.357 43.0799L105.359 43.0789C105.753 42.9289 106.024 42.7328 106.202 42.5086C106.376 42.2884 106.464 42.0427 106.47 41.7547C106.464 41.4902 106.385 41.2871 106.242 41.119L106.238 41.1141C106.082 40.927 105.813 40.734 105.385 40.5584L105.378 40.5555C104.95 40.3711 104.387 40.1951 103.68 40.0311L101.605 39.5467C99.832 39.1399 98.395 38.4737 97.327 37.5243L97.326 37.5233C96.216 36.5296 95.679 35.19 95.686 33.5633C95.68 32.2407 96.038 31.0611 96.769 30.0457C97.493 29.0408 98.488 28.2675 99.735 27.7196C100.984 27.1705 102.395 26.9022 103.958 26.9022Z" fill="black" stroke="white"/>
<path d="M88.383 27.1735L88.4983 27.5134L95.195 47.3591L95.417 48.0192H89.1985L89.0881 47.6686L87.8899 43.8522H81.7707L80.5754 47.6686L80.4651 48.0192H74.2463L74.469 47.3591L81.1653 27.5134L81.2795 27.1735H88.383ZM83.2258 39.2087H86.4319L84.8264 34.0964L83.2258 39.2087Z" fill="black" stroke="white"/>
<path d="M80.721 66.1317H76.0804V53.0407H80.7594C82.0761 53.0407 83.2096 53.3028 84.1599 53.827C85.1102 54.3469 85.841 55.0947 86.3524 56.0706C86.868 57.0464 87.1258 58.214 87.1258 59.5734C87.1258 60.9371 86.868 62.1089 86.3524 63.089C85.841 64.0692 85.1059 64.8213 84.1471 65.3454C83.1926 65.8696 82.0506 66.1317 80.721 66.1317ZM78.8481 63.7602H80.6059C81.4241 63.7602 82.1123 63.6153 82.6706 63.3255C83.2331 63.0315 83.655 62.5777 83.9362 61.964C84.2217 61.3461 84.3645 60.5493 84.3645 59.5734C84.3645 58.6061 84.2217 57.8156 83.9362 57.202C83.655 56.5883 83.2352 56.1366 82.677 55.8469C82.1187 55.5571 81.4305 55.4122 80.6123 55.4122H78.8481V63.7602ZM89.1249 66.1317V56.3135H91.7649V58.0265H91.8671C92.0461 57.4172 92.3465 56.9569 92.7684 56.6459C93.1903 56.3305 93.6761 56.1728 94.2258 56.1728C94.3622 56.1728 94.5092 56.1814 94.6669 56.1984C94.8245 56.2155 94.963 56.2389 95.082 56.2687V58.6849C94.9545 58.6466 94.7776 58.6125 94.5518 58.5826C94.3259 58.5528 94.1193 58.5379 93.9318 58.5379C93.5312 58.5379 93.1732 58.6253 92.8579 58.8C92.5468 58.9704 92.2997 59.2091 92.1164 59.5159C91.9374 59.8227 91.848 60.1764 91.848 60.577V66.1317H89.1249ZM96.49 66.1317V56.3135H99.213V66.1317H96.49ZM97.858 55.0478C97.453 55.0478 97.106 54.9136 96.816 54.6451C96.531 54.3724 96.388 54.0464 96.388 53.6672C96.388 53.2922 96.531 52.9704 96.816 52.702C97.106 52.4292 97.453 52.2929 97.858 52.2929C98.263 52.2929 98.608 52.4292 98.894 52.702C99.183 52.9704 99.328 53.2922 99.328 53.6672C99.328 54.0464 99.183 54.3724 98.894 54.6451C98.608 54.9136 98.263 55.0478 97.858 55.0478ZM110.548 56.3135L107.115 66.1317H104.047L100.615 56.3135H103.491L105.53 63.3383H105.632L107.665 56.3135H110.548ZM111.941 66.1317V56.3135H114.664V66.1317H111.941ZM113.309 55.0478C112.904 55.0478 112.557 54.9136 112.267 54.6451C111.982 54.3724 111.839 54.0464 111.839 53.6672C111.839 53.2922 111.982 52.9704 112.267 52.702C112.557 52.4292 112.904 52.2929 113.309 52.2929C113.714 52.2929 114.059 52.4292 114.345 52.702C114.635 52.9704 114.779 53.2922 114.779 53.6672C114.779 54.0464 114.635 54.3724 114.345 54.6451C114.059 54.9136 113.714 55.0478 113.309 55.0478ZM119.569 60.4555V66.1317H116.846V56.3135H119.441V58.0457H119.556C119.773 57.4747 120.138 57.023 120.649 56.6906C121.16 56.354 121.78 56.1856 122.509 56.1856C123.191 56.1856 123.785 56.3348 124.292 56.6331C124.799 56.9314 125.194 57.3575 125.475 57.9115C125.756 58.4612 125.897 59.1174 125.897 59.8802V66.1317H123.174V60.366C123.178 59.7652 123.025 59.2964 122.714 58.9598C122.402 58.6189 121.974 58.4484 121.429 58.4484C121.062 58.4484 120.738 58.5272 120.457 58.6849C120.18 58.8426 119.963 59.0727 119.805 59.3753C119.652 59.6736 119.573 60.0336 119.569 60.4555ZM132.466 70.018C131.584 70.018 130.828 69.8966 130.197 69.6537C129.571 69.415 129.072 69.089 128.701 68.6757C128.331 68.2623 128.09 67.7978 127.979 67.2822L130.497 66.9434C130.574 67.1395 130.696 67.3227 130.862 67.4932C131.028 67.6636 131.247 67.8 131.52 67.9022C131.797 68.0088 132.134 68.0621 132.53 68.0621C133.122 68.0621 133.61 67.9172 133.994 67.6274C134.382 67.3419 134.576 66.8625 134.576 66.1892V64.393H134.461C134.341 64.6657 134.162 64.9236 133.924 65.1665C133.685 65.4094 133.378 65.6075 133.003 65.7609C132.628 65.9143 132.181 65.991 131.661 65.991C130.924 65.991 130.252 65.8206 129.647 65.4797C129.046 65.1345 128.567 64.6082 128.209 63.9008C127.855 63.1892 127.679 62.29 127.679 61.2034C127.679 60.0912 127.86 59.1622 128.222 58.4165C128.584 57.6707 129.066 57.1125 129.666 56.7417C130.272 56.371 130.934 56.1856 131.654 56.1856C132.204 56.1856 132.664 56.2794 133.035 56.4669C133.406 56.6501 133.704 56.8802 133.93 57.1572C134.16 57.4299 134.337 57.6984 134.461 57.9626H134.563V56.3135H137.267V66.2275C137.267 67.0628 137.062 67.7616 136.653 68.3241C136.244 68.8866 135.677 69.3085 134.953 69.5897C134.233 69.8753 133.404 70.018 132.466 70.018ZM132.524 63.9456C132.963 63.9456 133.333 63.8369 133.636 63.6196C133.943 63.398 134.177 63.0826 134.339 62.6736C134.505 62.2602 134.588 61.7659 134.588 61.1906C134.588 60.6153 134.507 60.1167 134.345 59.6949C134.184 59.2687 133.949 58.9385 133.642 58.7041C133.336 58.4697 132.963 58.3525 132.524 58.3525C132.076 58.3525 131.699 58.474 131.392 58.7169C131.086 58.9555 130.853 59.2879 130.696 59.714C130.538 60.1402 130.459 60.6324 130.459 61.1906C130.459 61.7574 130.538 62.2474 130.696 62.6608C130.858 63.0699 131.09 63.3873 131.392 63.6132C131.699 63.8348 132.076 63.9456 132.524 63.9456ZM150.752 56.8057C150.701 56.29 150.482 55.8895 150.094 55.604C149.706 55.3184 149.18 55.1757 148.515 55.1757C148.063 55.1757 147.682 55.2396 147.371 55.3674C147.06 55.491 146.821 55.6636 146.655 55.8852C146.493 56.1068 146.412 56.3582 146.412 56.6395C146.404 56.8738 146.453 57.0784 146.559 57.2531C146.67 57.4278 146.821 57.5791 147.013 57.7069C147.205 57.8305 147.426 57.9392 147.678 58.0329C147.929 58.1224 148.198 58.1991 148.483 58.263L149.659 58.5443C150.23 58.6721 150.754 58.8426 151.232 59.0557C151.709 59.2687 152.122 59.5308 152.472 59.8419C152.821 60.153 153.092 60.5194 153.284 60.9413C153.48 61.3632 153.58 61.8469 153.584 62.3923C153.58 63.1934 153.375 63.888 152.97 64.4761C152.57 65.0599 151.99 65.5138 151.232 65.8376C150.477 66.1572 149.568 66.317 148.502 66.317C147.445 66.317 146.525 66.1551 145.741 65.8312C144.961 65.5074 144.352 65.028 143.913 64.393C143.478 63.7538 143.25 62.9633 143.229 62.0216H145.907C145.937 62.4605 146.063 62.827 146.284 63.121C146.51 63.4108 146.81 63.6302 147.185 63.7794C147.565 63.9243 147.993 63.9967 148.47 63.9967C148.939 63.9967 149.346 63.9285 149.691 63.7922C150.041 63.6558 150.311 63.4662 150.503 63.2233C150.695 62.9804 150.791 62.7013 150.791 62.3859C150.791 62.0919 150.703 61.8447 150.529 61.6444C150.358 61.4442 150.107 61.2737 149.774 61.1331C149.446 60.9924 149.043 60.8646 148.566 60.7496L147.141 60.3916C146.037 60.1231 145.166 59.7034 144.526 59.1324C143.887 58.5613 143.57 57.7922 143.574 56.8248C143.57 56.0322 143.781 55.3397 144.207 54.7474C144.637 54.1551 145.227 53.6927 145.977 53.3603C146.727 53.028 147.58 52.8618 148.534 52.8618C149.506 52.8618 150.354 53.028 151.078 53.3603C151.807 53.6927 152.374 54.1551 152.779 54.7474C153.183 55.3397 153.392 56.0258 153.405 56.8057H150.752ZM159.831 66.3234C158.825 66.3234 157.96 66.1103 157.235 65.6842C156.515 65.2538 155.961 64.6572 155.573 63.8944C155.19 63.1317 154.998 62.2538 154.998 61.2609C154.998 60.2552 155.192 59.3731 155.58 58.6146C155.972 57.8518 156.528 57.2574 157.248 56.8312C157.968 56.4008 158.825 56.1856 159.818 56.1856C160.674 56.1856 161.424 56.3412 162.068 56.6522C162.711 56.9633 163.22 57.4001 163.595 57.9626C163.97 58.5251 164.177 59.1856 164.216 59.9442H161.646C161.573 59.4541 161.382 59.0599 161.071 58.7616C160.764 58.4591 160.361 58.3078 159.863 58.3078C159.441 58.3078 159.072 58.4228 158.757 58.653C158.446 58.8788 158.203 59.2091 158.028 59.6437C157.853 60.0784 157.766 60.6047 157.766 61.2226C157.766 61.849 157.851 62.3817 158.022 62.8206C158.196 63.2595 158.441 63.594 158.757 63.8241C159.072 64.0542 159.441 64.1693 159.863 64.1693C160.174 64.1693 160.453 64.1054 160.7 63.9775C160.951 63.8497 161.158 63.6643 161.32 63.4214C161.486 63.1743 161.595 62.8781 161.646 62.5329H164.216C164.173 63.2829 163.968 63.9434 163.602 64.5145C163.24 65.0812 162.739 65.5244 162.1 65.844C161.461 66.1636 160.704 66.3234 159.831 66.3234ZM168.682 60.4555V66.1317H165.959V53.0407H168.605V58.0457H168.72C168.942 57.4662 169.3 57.0123 169.794 56.6842C170.288 56.3518 170.909 56.1856 171.654 56.1856C172.336 56.1856 172.931 56.3348 173.438 56.6331C173.949 56.9271 174.345 57.3511 174.627 57.9051C174.912 58.4548 175.053 59.1132 175.048 59.8802V66.1317H172.325V60.366C172.33 59.7609 172.176 59.29 171.865 58.9534C171.558 58.6167 171.128 58.4484 170.574 58.4484C170.203 58.4484 169.875 58.5272 169.59 58.6849C169.308 58.8426 169.087 59.0727 168.925 59.3753C168.767 59.6736 168.686 60.0336 168.682 60.4555ZM181.627 66.3234C180.635 66.3234 179.776 66.1125 179.051 65.6906C178.331 65.2645 177.775 64.6721 177.383 63.9136C176.991 63.1508 176.795 62.2666 176.795 61.2609C176.795 60.2467 176.991 59.3603 177.383 58.6018C177.775 57.839 178.331 57.2467 179.051 56.8248C179.776 56.3987 180.635 56.1856 181.627 56.1856C182.62 56.1856 183.477 56.3987 184.197 56.8248C184.921 57.2467 185.48 57.839 185.872 58.6018C186.264 59.3603 186.46 60.2467 186.46 61.2609C186.46 62.2666 186.264 63.1508 185.872 63.9136C185.48 64.6721 184.921 65.2645 184.197 65.6906C183.477 66.1125 182.62 66.3234 181.627 66.3234ZM181.64 64.214C182.092 64.214 182.469 64.0862 182.772 63.8305C183.074 63.5706 183.302 63.2169 183.456 62.7694C183.613 62.322 183.692 61.8128 183.692 61.2417C183.692 60.6707 183.613 60.1615 183.456 59.714C183.302 59.2666 183.074 58.9129 182.772 58.653C182.469 58.393 182.092 58.263 181.64 58.263C181.184 58.263 180.801 58.393 180.49 58.653C180.183 58.9129 179.951 59.2666 179.793 59.714C179.64 60.1615 179.563 60.6707 179.563 61.2417C179.563 61.8128 179.64 62.322 179.793 62.7694C179.951 63.2169 180.183 63.5706 180.49 63.8305C180.801 64.0862 181.184 64.214 181.64 64.214ZM192.666 66.3234C191.674 66.3234 190.815 66.1125 190.091 65.6906C189.37 65.2645 188.814 64.6721 188.422 63.9136C188.03 63.1508 187.834 62.2666 187.834 61.2609C187.834 60.2467 188.03 59.3603 188.422 58.6018C188.814 57.839 189.37 57.2467 190.091 56.8248C190.815 56.3987 191.674 56.1856 192.666 56.1856C193.659 56.1856 194.516 56.3987 195.236 56.8248C195.961 57.2467 196.519 57.839 196.911 58.6018C197.303 59.3603 197.499 60.2467 197.499 61.2609C197.499 62.2666 197.303 63.1508 196.911 63.9136C196.519 64.6721 195.961 65.2645 195.236 65.6906C194.516 66.1125 193.659 66.3234 192.666 66.3234ZM192.679 64.214C193.131 64.214 193.508 64.0862 193.811 63.8305C194.113 63.5706 194.341 63.2169 194.495 62.7694C194.652 62.322 194.731 61.8128 194.731 61.2417C194.731 60.6707 194.652 60.1615 194.495 59.714C194.341 59.2666 194.113 58.9129 193.811 58.653C193.508 58.393 193.131 58.263 192.679 58.263C192.223 58.263 191.84 58.393 191.529 58.653C191.222 58.9129 190.99 59.2666 190.832 59.714C190.679 60.1615 190.602 60.6707 190.602 61.2417C190.602 61.8128 190.679 62.322 190.832 62.7694C190.99 63.2169 191.222 63.5706 191.529 63.8305C191.84 64.0862 192.223 64.214 192.679 64.214ZM201.992 53.0407V66.1317H199.269V53.0407H201.992Z" fill="black"/>
<defs>
<filter id="filter0_d_214_291" x="38.6861" y="0.890106" width="132.512" height="65.7586" filterUnits="userSpaceOnUse" color-interpolation-filters="sRGB">
<feFlood flood-opacity="0" result="BackgroundImageFix"/>
<feColorMatrix in="SourceAlpha" type="matrix" values="0 0 0 0 0 0 0 0 0 0 0 0 0 0 0 0 0 0 127 0" result="hardAlpha"/>
<feOffset dy="4"/>
<feGaussianBlur stdDeviation="2"/>
<feComposite in2="hardAlpha" operator="out"/>
<feColorMatrix type="matrix" values="0 0 0 0 0 0 0 0 0 0 0 0 0 0 0 0 0 0 0.25 0"/>
<feBlend mode="normal" in2="BackgroundImageFix" result="effect1_dropShadow_214_291"/>
<feBlend mode="normal" in="SourceGraphic" in2="effect1_dropShadow_214_291" result="shape"/>
</filter>
<linearGradient id="paint0_linear_214_291" x1="51.3614" y1="53.7245" x2="141.633" y2="-12.3659" gradientUnits="userSpaceOnUse">
<stop stop-color="#D5261A"/>
<stop offset="0.293269" stop-color="#F26D34"/>
<stop offset="0.596154" stop-color="#FBFE57"/>
</linearGradient>
</defs>
</svg>
