<svg xmlns="http://www.w3.org/2000/svg" version="1.1" viewBox="-5.0 -10.0 110.0 135.0">
 <path d="m95.785 13.57c0.27344-0.015624 0.48438-0.25391 0.46875-0.52734-0.015625-0.27734-0.25781-0.48438-0.52734-0.46875-7.2305 0.42578-12.453 3.3281-15.52 8.625-12.375 21.367 13.738 74.281 14.859 76.523 0.085938 0.17578 0.26172 0.27734 0.44531 0.27734 0.074219 0 0.15234-0.015625 0.22266-0.054688 0.24609-0.12109 0.34766-0.42187 0.22656-0.67187-0.26953-0.54688-26.992-54.672-14.891-75.582 2.8906-4.9844 7.8398-7.7188 14.715-8.1211z"/>
 <path d="m17.695 43.781c0.054688 0.019531 0.10938 0.027344 0.16406 0.027344 0.20703 0 0.40234-0.12891 0.47266-0.33594 15.414-44.824 75.09-40.355 75.688-40.309 0.27734 0.027344 0.51953-0.17969 0.53906-0.45703 0.023437-0.27344-0.17969-0.51562-0.45703-0.53906-0.15234-0.011719-15.402-1.2227-32.371 3.1914-15.707 4.0859-36.152 13.961-44.348 37.789-0.089843 0.26172 0.050782 0.54297 0.3125 0.63281z"/>
 <path d="m59.07 76.031c-0.6875-0.6875-1.6055-1.0664-2.5781-1.0664-2.0117 0-3.6445 1.6367-3.6445 3.6445 0.003906 2.0078 1.6367 3.6445 3.6445 3.6445 0.97656 0 1.8906-0.37891 2.582-1.0703 0.6875-0.6875 1.0664-1.6055 1.0625-2.5742 0-0.97266-0.37891-1.8867-1.0664-2.5781zm-0.70703 4.4492c-0.5 0.5-1.1641 0.77734-1.8711 0.77734-1.457 0-2.6445-1.1875-2.6445-2.6445 0-1.4609 1.1875-2.6445 2.6445-2.6445 0.70703 0 1.3711 0.27344 1.8711 0.77344s0.77344 1.1641 0.77344 1.8711c0.003906 0.70312-0.27344 1.3672-0.77344 1.8672z"/>
 <path d="m44.48 74.949-20.531 0.003906h-0.003907c-0.97656 0-1.8945 0.37891-2.5859 1.0703-0.69141 0.69141-1.0703 1.6094-1.0703 2.5898 0 2.0156 1.6406 3.6602 3.6602 3.6602h20.531c2.0156 0 3.6562-1.6406 3.6602-3.6602 0-2.0195-1.6445-3.6641-3.6602-3.6641zm0 6.3203h-20.531c-1.4688 0-2.6602-1.1953-2.6602-2.6602 0-0.71094 0.27734-1.3789 0.77734-1.8789 0.50391-0.50391 1.168-0.77734 1.8789-0.77734l20.531-0.003906c1.4648 0 2.6602 1.1914 2.6602 2.6602 0.003906 1.4688-1.1914 2.6602-2.6562 2.6602z"/>
 <path d="m13.719 67.285c0.011719 0.03125 0.035156 0.054688 0.054688 0.078125 0.019531 0.027344 0.03125 0.054688 0.054687 0.078125 0.089844 0.09375 0.21484 0.14844 0.35547 0.14844h41.199c0.14063 0 0.26563-0.058594 0.35547-0.14844 0.023438-0.023437 0.035157-0.050781 0.050781-0.078125 0.019532-0.027343 0.039063-0.050781 0.054688-0.082031 0.039062-0.089844 0.039062-0.19141 0.019531-0.29297-0.007812-0.03125-0.007812-0.066406-0.019531-0.097656l-5.2461-12.492c-0.027344-0.0625-0.0625-0.11719-0.10938-0.16406-0.015625-0.015625-0.03125-0.019531-0.046875-0.03125-0.035156-0.027344-0.070312-0.058594-0.11328-0.074219-0.027344-0.011718-0.058594-0.011718-0.089844-0.019531-0.035156-0.007813-0.066406-0.019531-0.10156-0.019531h-30.703c-0.066406 0-0.13281 0.011718-0.19141 0.039062-0.023438 0.011719-0.042969 0.027344-0.0625 0.039063-0.03125 0.019531-0.066407 0.035156-0.097657 0.066406-0.046875 0.046875-0.085937 0.10156-0.10938 0.16016l-5.2461 12.496c-0.027343 0.058594-0.039062 0.125-0.039062 0.19531-0.007812 0.074218 0.003906 0.14062 0.03125 0.19922zm6.0391-12.188h30.039l4.8281 11.496h-39.695z"/>
 <path d="m10.484 76.031c-0.6875 0.6875-1.0664 1.6055-1.0664 2.5781s0.37891 1.8906 1.0664 2.5781 1.6016 1.0664 2.5742 1.0664h0.003906c0.97266 0 1.8867-0.37891 2.5742-1.0664s1.0664-1.6055 1.0664-2.5781-0.37891-1.8906-1.0664-2.5781c-1.3711-1.375-3.7734-1.375-5.1523 0zm4.4492 4.4492c-0.5 0.5-1.1641 0.77344-1.8711 0.77344h-0.003906c-0.70703 0-1.3672-0.27344-1.8672-0.77344s-0.77344-1.1641-0.77344-1.8711 0.27344-1.3711 0.77344-1.8711c1-1 2.7422-0.99609 3.7422 0 0.5 0.5 0.77344 1.1641 0.77344 1.8711 0.003907 0.70703-0.27344 1.3711-0.77344 1.8711z"/>
 <path d="m63.363 62.699h-3.3789c-1.9922-5.1484-5.3594-12.668-8.0508-12.668h-34.312c-2.6875 0-6.0586 7.5156-8.0508 12.668h-3.3789-0.003906c-1.3477 0-2.4453 1.0977-2.4453 2.4453 0 1.3477 1.0977 2.4453 2.4492 2.4453h1.4023c-3.0664 5.2266-3.0469 16.117 0.03125 20.152l-0.14453 4.2695c0 2.4102 0 4.9023 4.0312 4.9023s4.0312-2.4922 4.0312-4.8984l0.011719-3.5117h38.297l0.011719 3.6758c0 2.4102 0 4.9023 4.0312 4.9023 4.0273 0 4.0273-2.4922 4.0273-4.918l-0.14453-4.2422c3.2266-3.875 3.3008-15.02 0.18359-20.328h1.4062c1.3516 0 2.4453-1.0977 2.4453-2.4453 0-1.3477-1.1016-2.4453-2.4492-2.4492zm-58.617 2.4492c0-0.79688 0.64844-1.4453 1.4453-1.4453h2.9961c-0.45703 1.2148-0.8125 2.2305-1.043 2.8945h-1.9531c-0.79688-0.003906-1.4453-0.65234-1.4453-1.4492zm6.7656 30.773c-3.0312 0-3.0312-1.4688-3.0312-3.8867l0.12109-3.5273h5.9531l-0.011719 3.5117c0 2.4297 0 3.9023-3.0312 3.9023zm46.383 0.16406c-3.0312 0-3.0312-1.4688-3.0312-3.9023l-0.011719-3.6758h5.9453l0.125 3.6758c0 2.4297 0 3.9023-3.0273 3.9023zm2.9297-8.5781h-52.09c-3.3242-3.4336-3.2539-15.484 0.17578-20.113 0.011719-0.015625 0.015625-0.035156 0.023438-0.050781 0.015625-0.023438 0.03125-0.046875 0.039062-0.074219 0.003906-0.003906 0.007813-0.007812 0.007813-0.011719 0.39844-1.1719 0.86719-2.4766 1.3867-3.8164 0.019531-0.035156 0.03125-0.070312 0.042968-0.10938 2.25-5.8047 5.3633-12.297 7.2148-12.297h34.312c1.8516 0 4.9648 6.4922 7.2148 12.297 0.011718 0.039063 0.023437 0.074219 0.042968 0.10938 0.51953 1.3438 0.98828 2.6445 1.3867 3.8164 0.003907 0.003907 0.007813 0.007813 0.007813 0.011719 0.011718 0.027344 0.027344 0.050781 0.039062 0.078125 0.007813 0.015625 0.011719 0.035156 0.023438 0.050782 3.4258 4.625 3.4961 16.676 0.17188 20.109zm2.5391-20.914h-1.957c-0.22656-0.66406-0.58594-1.6797-1.043-2.8945h2.9961c0.79688 0 1.4453 0.64844 1.4492 1.4453 0.003906 0.80078-0.64844 1.4492-1.4453 1.4492z"/>
 <path d="m55.172 28.309c-3.7031 5.9023-5.5195 11.078-5.5391 11.129-0.089843 0.26172 0.046876 0.54688 0.30859 0.63672 0.054688 0.019531 0.10938 0.027343 0.16406 0.027343 0.20703 0 0.39844-0.12891 0.47266-0.33594 0.019531-0.050781 1.8008-5.1211 5.4414-10.926 0.14453-0.23438 0.074219-0.54297-0.15625-0.6875-0.23438-0.14844-0.54688-0.078125-0.69141 0.15625z"/>
 <path d="m71.512 12.617c-3.6406 1.7227-7.1094 4.3359-10.312 7.7656-0.1875 0.20313-0.17969 0.51953 0.023437 0.70703 0.097656 0.089844 0.21875 0.13281 0.33984 0.13281 0.13281 0 0.26562-0.054687 0.36328-0.16016 3.1172-3.3398 6.4844-5.8789 10.008-7.543 0.25-0.11719 0.35547-0.41797 0.23828-0.66406-0.11328-0.25-0.41406-0.35547-0.66016-0.23828z"/>
<text x="0.0" y="117.5" font-size="5.0" font-weight="bold" font-family="Arbeit Regular, Helvetica, Arial-Unicode, Arial, Sans-serif" fill="#000000">Created by Houda Mbarki</text><text x="0.0" y="122.5" font-size="5.0" font-weight="bold" font-family="Arbeit Regular, Helvetica, Arial-Unicode, Arial, Sans-serif" fill="#000000">from Noun Project</text></svg>