<svg width="269" height="284" viewBox="0 0 269 284" fill="none" xmlns="http://www.w3.org/2000/svg">
<path d="M287.249 87.4021C286.949 87.3098 277.033 84.4273 260.533 80.8413C260.407 80.7952 260.28 80.7721 260.141 80.7606C251.551 78.8927 241.197 76.8519 229.494 74.8917C229.275 74.7995 229.033 74.7418 228.779 74.7764C222.115 73.6695 215.035 72.5972 207.575 71.6172V48.6493C218.114 47.8884 226.461 39.0908 226.461 28.3563C226.461 17.126 217.329 7.99426 206.099 7.99426C198.42 7.99426 191.445 12.4218 187.997 19.0862C184.619 12.5139 177.781 7.99426 169.883 7.99426C158.653 7.99426 149.521 17.1263 149.521 28.3563C149.521 39.0908 157.869 47.8884 168.407 48.6493V67.6855C144.898 66.1059 119.589 65.8522 94.0715 68.0775V54.3105H109.579C109.775 54.3105 109.96 54.2759 110.144 54.1952C110.294 54.1375 110.421 54.0337 110.536 53.93C110.56 53.9069 110.594 53.8954 110.617 53.8723C110.756 53.7339 110.871 53.5725 110.94 53.3881C111.009 53.2036 111.055 53.0191 111.055 52.8231C111.055 52.7885 111.032 52.7539 111.032 52.7193C111.021 52.5694 110.998 52.408 110.94 52.2696C110.882 52.1197 110.779 51.9929 110.675 51.8661C110.652 51.843 110.64 51.8084 110.629 51.7854L60.4615 1.07499C60.4615 1.07499 60.4499 1.07499 60.4499 1.06345C60.4499 1.06345 60.4499 1.05193 60.4384 1.05193C60.3577 0.982746 60.2655 0.936622 60.1848 0.878973C60.104 0.832852 60.0349 0.763673 59.9542 0.729082C59.8619 0.694491 59.7697 0.694491 59.6659 0.671432C59.5852 0.671432 59.5045 0.636841 59.4122 0.636841C59.32 0.636841 59.2393 0.671432 59.147 0.682961C59.0548 0.706023 58.951 0.706023 58.8588 0.740611C58.7781 0.775202 58.7089 0.844381 58.6282 0.890505C58.5475 0.948155 58.4437 0.982746 58.3745 1.06345C58.3745 1.06345 58.3745 1.07499 58.363 1.07499C58.363 1.07499 58.3515 1.07499 58.3515 1.08652L8.16059 51.7733C8.13753 51.7963 8.126 51.8309 8.11447 51.854C8.0107 51.9693 7.91846 52.1076 7.84928 52.2575C7.79163 52.4074 7.76857 52.5573 7.75704 52.7072C7.75704 52.7418 7.73398 52.7764 7.73398 52.8225C7.73398 53.0185 7.76857 53.203 7.84928 53.3875C7.92999 53.572 8.03376 53.7334 8.17214 53.8718C8.1952 53.8948 8.22979 53.9063 8.25285 53.9294C8.36815 54.0332 8.50651 54.1254 8.64486 54.1946C8.82935 54.2638 9.01383 54.3099 9.20985 54.3099L24.7178 54.2984V81.1288C16.716 83.6078 8.92147 86.4097 1.54219 89.4881C0.792725 89.7994 0.435302 90.6641 0.746619 91.4136C0.977221 91.9786 1.53065 92.3244 2.10718 92.3244C2.29166 92.3244 2.48769 92.2899 2.67217 92.2092C9.69399 89.2805 17.1078 86.6286 24.7179 84.2419V95.9103C24.7179 96.7289 25.3751 97.3862 26.1938 97.3862H92.619C93.4377 97.3862 94.0949 96.7289 94.0949 95.9103V71.0168C139.593 67.0272 184.526 70.9476 219.519 76.2628C143.374 89.0727 104.783 103.947 98.3601 122.903C93.2985 137.857 107.573 152.916 122.7 168.861C138.139 185.13 154.098 201.953 149.277 218.937C143.651 238.803 110.064 256.651 46.6019 273.496C45.8178 273.704 45.3451 274.511 45.5526 275.295C45.7256 275.964 46.3252 276.39 46.9824 276.39C47.1092 276.39 47.236 276.379 47.3629 276.344C112.808 258.98 146.095 240.991 152.113 219.73C157.383 201.132 140.837 183.699 124.833 166.818C110.339 151.54 96.6532 137.106 101.15 123.844C107.422 105.327 147.973 90.6726 228.732 77.7353C237.679 79.2342 245.843 80.7676 253.026 82.2549C197.808 94.8457 171.715 106.826 168.719 120.869C165.894 134.117 183.524 147.135 203.921 162.217C229.022 180.757 257.48 201.776 259.357 229.415C260.499 246.076 251.897 263.094 233.057 281.463C232.469 282.028 232.457 282.973 233.022 283.55C233.334 283.85 233.714 283.999 234.095 283.999C234.464 283.999 234.844 283.861 235.121 283.584C254.618 264.583 263.508 246.803 262.309 229.232C260.326 200.233 231.292 178.775 205.671 159.855C186.082 145.396 169.179 132.897 171.6 121.506C174.39 108.408 202.478 96.405 259.956 83.7448C276.295 87.3075 286.107 90.1556 286.406 90.2477C286.545 90.2938 286.683 90.3054 286.821 90.3054C287.455 90.3054 288.044 89.8903 288.24 89.2446C288.482 88.4606 288.033 87.6442 287.249 87.4021ZM27.6725 52.8228C27.6725 52.0042 27.0153 51.3469 26.1966 51.3469H12.741L59.4134 4.21107L106.077 51.3469H92.6328C91.8142 51.3469 91.157 52.0042 91.157 52.8228V94.4478H27.6716L27.6725 52.8228ZM206.112 10.9439C215.717 10.9439 223.523 18.7497 223.523 28.3543C223.523 37.9589 215.717 45.7647 206.112 45.7647C198.583 45.7647 191.827 40.7952 189.543 33.6579C190.005 31.963 190.27 30.1873 190.27 28.354C190.27 26.5207 190.005 24.7449 189.543 23.0501C191.838 15.9128 198.583 10.9439 206.112 10.9439ZM152.497 28.3543C152.497 18.7497 160.303 10.9439 169.908 10.9439C179.512 10.9439 187.318 18.7497 187.318 28.3543C187.318 37.9589 179.512 45.7647 169.908 45.7647C160.303 45.7647 152.497 37.9589 152.497 28.3543ZM171.384 48.6473C178.647 48.1169 184.851 43.7932 188.021 37.6359C191.238 43.8623 197.557 48.0708 204.648 48.601V71.2231C194.167 69.8857 183.006 68.7326 171.394 67.891L171.384 48.6473Z" fill="#AC0000"/>
</svg>
