<svg xmlns="http://www.w3.org/2000/svg" version="1.1" viewBox="-5.0 -10.0 110.0 135.0">
 <path d="m98.371 31.395c-0.10156-0.03125-3.4609-1.0078-9.0508-2.2227-0.042968-0.015625-0.085937-0.023437-0.13281-0.027344-2.9102-0.63281-6.418-1.3242-10.383-1.9883-0.074219-0.03125-0.15625-0.050781-0.24219-0.039062-2.2578-0.375-4.6562-0.73828-7.1836-1.0703v-7.7812c3.5703-0.25781 6.3984-3.2383 6.3984-6.875 0-3.8047-3.0938-6.8984-6.8984-6.8984-2.6016 0-4.9648 1.5-6.1328 3.7578-1.1445-2.2266-3.4609-3.7578-6.1367-3.7578-3.8047 0-6.8984 3.0938-6.8984 6.8984 0 3.6367 2.8281 6.6172 6.3984 6.875v6.4492c-7.9648-0.53516-16.539-0.62109-25.184 0.13281v-4.6641h5.2539c0.066406 0 0.12891-0.011719 0.19141-0.039063 0.050781-0.019531 0.09375-0.054687 0.13281-0.089843 0.007813-0.007813 0.019532-0.011719 0.027344-0.019532 0.046875-0.046875 0.085938-0.10156 0.10938-0.16406s0.039063-0.125 0.039063-0.19141c0-0.011719-0.007813-0.023438-0.007813-0.035157-0.003906-0.050781-0.011719-0.10547-0.03125-0.15234-0.019531-0.050782-0.054687-0.09375-0.089844-0.13672-0.007812-0.007813-0.011719-0.019531-0.015625-0.027344l-16.996-17.18s-0.003906 0-0.003906-0.003907c0 0 0-0.003906-0.003906-0.003906-0.027344-0.023437-0.058594-0.039063-0.085938-0.058594-0.027343-0.015625-0.050781-0.039062-0.078124-0.050781-0.03125-0.011719-0.0625-0.011719-0.097657-0.019531-0.027343 0-0.054687-0.011719-0.085937-0.011719s-0.058594 0.011719-0.089844 0.015625c-0.03125 0.007813-0.066406 0.007813-0.097656 0.019531-0.027344 0.011719-0.050782 0.035156-0.078125 0.050782-0.027344 0.019531-0.0625 0.03125-0.085938 0.058593 0 0 0 0.003907-0.003906 0.003907 0 0-0.003906 0-0.003906 0.003906l-17.004 17.172c-0.007812 0.007812-0.011718 0.019531-0.015624 0.027343-0.035157 0.039063-0.066407 0.085938-0.089844 0.13672-0.019532 0.050781-0.027344 0.10156-0.03125 0.15234 0 0.011719-0.007813 0.023437-0.007813 0.039063 0 0.066406 0.011719 0.12891 0.039063 0.19141s0.0625 0.11719 0.10938 0.16406c0.007812 0.007813 0.019531 0.011719 0.027343 0.019532 0.039063 0.035156 0.085938 0.066406 0.13281 0.089843 0.0625 0.023438 0.125 0.039063 0.19141 0.039063l5.2539-0.003906v9.0898c-2.7109 0.83984-5.3516 1.7891-7.8516 2.832-0.25391 0.10547-0.375 0.39844-0.26953 0.65234 0.078125 0.19141 0.26562 0.30859 0.46094 0.30859 0.0625 0 0.12891-0.011719 0.19141-0.039062 2.3789-0.99219 4.8906-1.8906 7.4688-2.6992v3.9531c0 0.27734 0.22266 0.5 0.5 0.5h22.504c0.27734 0 0.5-0.22266 0.5-0.5v-8.4336c15.414-1.3516 30.637-0.023438 42.492 1.7773-25.797 4.3398-38.871 9.3789-41.047 15.801-1.7148 5.0664 3.1211 10.168 8.2461 15.57 5.2305 5.5117 10.637 11.211 9.0039 16.965-1.9062 6.7305-13.285 12.777-34.785 18.484-0.26562 0.070313-0.42578 0.34375-0.35547 0.60938 0.058594 0.22656 0.26172 0.37109 0.48438 0.37109 0.042969 0 0.085938-0.003906 0.12891-0.015625 22.172-5.8828 33.449-11.977 35.488-19.18 1.7852-6.3008-3.8203-12.207-9.2422-17.926-4.9102-5.1758-9.5469-10.066-8.0234-14.559 2.125-6.2734 15.863-11.238 43.223-15.621 3.0312 0.50781 5.7969 1.0273 8.2305 1.5312-18.707 4.2656-27.547 8.3242-28.562 13.082-0.95703 4.4883 5.0156 8.8984 11.926 14.008 8.5039 6.2812 18.145 13.402 18.781 22.766 0.38672 5.6445-2.5273 11.41-8.9102 17.633-0.19922 0.19141-0.20312 0.51172-0.011719 0.70703 0.10547 0.10156 0.23438 0.15234 0.36328 0.15234 0.125 0 0.25391-0.046875 0.34766-0.14062 6.6055-6.4375 9.6172-12.461 9.2109-18.414-0.67188-9.8242-10.508-17.094-19.188-23.504-6.6367-4.8984-12.363-9.1328-11.543-12.992 0.94531-4.4375 10.461-8.5039 29.934-12.793 5.5352 1.207 8.8594 2.1719 8.9609 2.2031 0.046874 0.015625 0.09375 0.019531 0.14062 0.019531 0.21484 0 0.41406-0.14062 0.48047-0.35938 0.082031-0.26562-0.070312-0.54297-0.33594-0.625zm-87.941-11.715c0-0.27734-0.22266-0.5-0.5-0.5h-4.5586l15.812-15.969 15.809 15.969h-4.5547c-0.27734 0-0.5 0.22266-0.5 0.5v14.102h-21.508zm60.453-14.188c3.2539 0 5.8984 2.6445 5.8984 5.8984s-2.6445 5.8984-5.8984 5.8984c-2.5508 0-4.8398-1.6836-5.6133-4.1016 0.15625-0.57422 0.24609-1.1758 0.24609-1.7969s-0.089844-1.2227-0.24609-1.7969c0.77734-2.418 3.0625-4.1016 5.6133-4.1016zm-18.164 5.8984c0-3.2539 2.6445-5.8984 5.8984-5.8984 3.2539 0 5.8984 2.6445 5.8984 5.8984s-2.6445 5.8984-5.8984 5.8984c-3.2539 0-5.8984-2.6445-5.8984-5.8984zm6.3984 6.875c2.4609-0.17969 4.5625-1.6445 5.6367-3.7305 1.0898 2.1094 3.2305 3.5352 5.6328 3.7148v7.6641c-3.5508-0.45312-7.332-0.84375-11.266-1.1289z"/>
<text x="0.0" y="117.5" font-size="5.0" font-weight="bold" font-family="Arbeit Regular, Helvetica, Arial-Unicode, Arial, Sans-serif" fill="#000000">Created by Houda Mbarki</text><text x="0.0" y="122.5" font-size="5.0" font-weight="bold" font-family="Arbeit Regular, Helvetica, Arial-Unicode, Arial, Sans-serif" fill="#000000">from Noun Project</text></svg>