<svg width="264" height="247" viewBox="0 0 264 247" fill="none" xmlns="http://www.w3.org/2000/svg">
<path d="M261.806 29.9684C262.584 29.9283 263.184 29.3165 263.139 28.6145C263.095 27.9025 262.406 27.3709 261.64 27.4111C241.08 28.5042 226.23 35.9555 217.509 49.5547C182.321 104.412 256.573 240.262 259.76 246.018C260.005 246.469 260.504 246.73 261.026 246.73C261.237 246.73 261.46 246.69 261.66 246.59C262.359 246.279 262.648 245.506 262.304 244.865C261.537 243.461 185.553 104.501 219.962 50.8173C228.181 38.0204 242.254 31.0002 261.803 29.9674L261.806 29.9684Z" fill="#AC0000"/>
<path d="M39.7599 107.531C39.9154 107.581 40.0709 107.601 40.2264 107.601C40.8151 107.601 41.3704 107.27 41.5704 106.739C85.3996 -8.3412 255.086 3.1324 256.787 3.2505C257.575 3.3207 258.264 2.78917 258.32 2.07713C258.386 1.37511 257.809 0.753344 257.02 0.693164C256.587 0.663077 213.225 -2.44597 164.974 8.88669C120.312 19.3767 62.1771 44.7298 38.872 105.905C38.6165 106.577 39.0157 107.3 39.7599 107.531Z" fill="#AC0000"/>
<path d="M157.408 190.329C155.453 188.564 152.843 187.591 150.078 187.591C144.357 187.591 139.715 191.793 139.715 196.948C139.726 202.103 144.369 206.305 150.078 206.305C152.854 206.305 155.453 205.332 157.419 203.557C159.374 201.792 160.452 199.435 160.441 196.948C160.441 194.451 159.363 192.104 157.408 190.329ZM155.398 201.752C153.976 203.035 152.088 203.747 150.078 203.747C145.935 203.747 142.558 200.699 142.558 196.958C142.558 193.207 145.935 190.168 150.078 190.168C152.088 190.168 153.976 190.87 155.398 192.154C156.82 193.438 157.597 195.143 157.597 196.958C157.608 198.763 156.82 200.468 155.398 201.752Z" fill="#AC0000"/>
<path d="M115.922 187.551L57.543 187.561H57.5318C54.755 187.561 52.1449 188.534 50.1789 190.309C48.2129 192.084 47.1356 194.441 47.1356 196.958C47.1356 202.133 51.8006 206.355 57.5432 206.355H115.922C121.654 206.355 126.319 202.143 126.33 196.958C126.33 191.773 121.654 187.551 115.922 187.551ZM115.922 203.778H57.543C53.3665 203.778 49.9788 200.709 49.9788 196.948C49.9788 195.123 50.7674 193.408 52.1891 192.124C53.622 190.831 55.5103 190.129 57.5317 190.129L115.911 190.119C120.076 190.119 123.475 193.177 123.475 196.948C123.486 200.719 120.087 203.778 115.922 203.778Z" fill="#AC0000"/>
<path d="M28.4543 167.875C28.4876 167.955 28.5542 168.015 28.6098 168.075C28.6653 168.146 28.6986 168.216 28.7653 168.276C29.0207 168.517 29.3762 168.657 29.776 168.657H146.924C147.324 168.657 147.679 168.507 147.935 168.276C148.001 168.216 148.035 168.146 148.079 168.075C148.135 168.005 148.19 167.945 148.235 167.865C148.346 167.634 148.346 167.373 148.29 167.113C148.268 167.032 148.268 166.942 148.235 166.862L133.318 134.79C133.24 134.63 133.14 134.489 133.007 134.369C132.962 134.329 132.918 134.319 132.873 134.289C132.773 134.219 132.673 134.138 132.551 134.098C132.473 134.068 132.385 134.068 132.296 134.048C132.196 134.028 132.107 133.998 132.007 133.998H44.704C44.5151 133.998 44.3263 134.028 44.1597 134.098C44.0931 134.128 44.0375 134.169 43.982 134.199C43.8931 134.249 43.7932 134.289 43.7043 134.369C43.571 134.489 43.4599 134.63 43.3933 134.78L28.4762 166.862C28.3984 167.013 28.3651 167.183 28.3651 167.364C28.3429 167.554 28.3765 167.724 28.4543 167.875ZM45.6263 136.584H131.041L144.77 166.098H31.8983L45.6263 136.584Z" fill="#AC0000"/>
<path d="M19.2557 190.329C17.3008 192.094 16.2234 194.451 16.2234 196.948C16.2234 199.445 17.3008 201.802 19.2557 203.567C21.2105 205.332 23.8098 206.305 26.5753 206.305H26.5864C29.3522 206.305 31.9512 205.332 33.9061 203.567C35.861 201.802 36.9384 199.445 36.9384 196.948C36.9384 194.451 35.8609 192.094 33.9061 190.329C30.0074 186.799 23.1765 186.799 19.2557 190.329ZM31.9068 201.752C30.4851 203.036 28.5967 203.738 26.5864 203.738H26.5753C24.5649 203.738 22.6877 203.036 21.266 201.752C19.8442 200.468 19.0667 198.763 19.0667 196.948C19.0667 195.133 19.8442 193.428 21.266 192.145C24.1094 189.577 29.0633 189.587 31.9068 192.145C33.3285 193.428 34.1061 195.133 34.1061 196.948C34.1172 198.764 33.3286 200.468 31.9068 201.752Z" fill="#AC0000"/>
<path d="M169.615 156.101H160.008C154.343 142.883 144.768 123.577 137.115 123.577H39.5503C31.9085 123.577 22.3229 142.872 16.6581 156.101H7.05033H7.03922C3.20708 156.101 0.0860901 158.919 0.0860901 162.379C0.0860901 165.839 3.20737 168.657 7.05031 168.657H11.0377C2.3185 182.075 2.37394 210.035 11.1266 220.394L10.7156 231.356C10.7156 237.544 10.7156 243.942 22.1782 243.942C33.6408 243.942 33.6408 237.543 33.6408 231.366L33.6741 222.35H142.57L142.604 231.787C142.604 237.975 142.604 244.373 154.066 244.373C165.518 244.373 165.518 237.975 165.518 231.747L165.107 220.855C174.282 210.907 174.493 182.293 165.629 168.666H169.627C173.471 168.666 176.58 165.848 176.58 162.388C176.58 158.928 173.447 156.111 169.615 156.101ZM2.93981 162.389C2.93981 160.343 4.78363 158.678 7.04948 158.678H15.5688C14.2692 161.797 13.2585 164.404 12.6031 166.109H7.04948C4.78357 166.099 2.93981 164.434 2.93981 162.389ZM22.1776 241.394C13.5585 241.394 13.5585 237.623 13.5585 231.416L13.9028 222.36H30.8302L30.7969 231.376C30.7969 237.614 30.7967 241.394 22.1776 241.394ZM154.066 241.816C145.447 241.816 145.447 238.045 145.447 231.797L145.414 222.36H162.319L162.674 231.797C162.674 238.035 162.674 241.816 154.066 241.816ZM162.397 219.792H14.2804C4.82816 210.977 5.02805 180.039 14.7802 168.155C14.8136 168.115 14.8247 168.065 14.8469 168.024C14.8913 167.964 14.9357 167.904 14.958 167.834C14.9691 167.824 14.9802 167.814 14.9802 167.804C16.1131 164.795 17.446 161.445 18.9232 158.006C18.9787 157.915 19.0121 157.825 19.0454 157.725C25.4432 142.822 34.2958 126.154 39.5604 126.154H137.126C142.39 126.154 151.243 142.822 157.641 157.725C157.674 157.825 157.707 157.915 157.763 158.006C159.24 161.456 160.573 164.795 161.706 167.804C161.717 167.814 161.728 167.824 161.728 167.834C161.761 167.904 161.806 167.964 161.839 168.034C161.861 168.075 161.872 168.125 161.906 168.165C171.647 180.039 171.849 210.979 162.397 219.792ZM169.617 166.098H164.052C163.408 164.393 162.386 161.786 161.086 158.667H169.605C171.871 158.667 173.715 160.332 173.726 162.378C173.737 164.434 171.882 166.098 169.617 166.098Z" fill="#AC0000"/>
<path d="M146.325 67.8089C135.795 82.9624 130.63 96.2503 130.574 96.3813C130.319 97.0532 130.708 97.7853 131.452 98.016C131.607 98.0661 131.763 98.0862 131.918 98.0862C132.507 98.0862 133.051 97.7552 133.262 97.2237C133.318 97.0933 138.383 84.0759 148.735 69.1725C149.146 68.5708 148.946 67.7785 148.29 67.4075C147.624 67.0264 146.736 67.2072 146.325 67.8089Z" fill="#AC0000"/>
<path d="M192.787 27.5214C182.435 31.9442 172.571 38.6533 163.465 47.4586C162.932 47.9801 162.954 48.7925 163.532 49.2738C163.809 49.5045 164.154 49.6148 164.498 49.6148C164.876 49.6148 165.253 49.4744 165.531 49.2036C174.395 40.6291 183.969 34.1103 193.988 29.8379C194.699 29.537 194.999 28.7648 194.666 28.133C194.344 27.4912 193.487 27.2205 192.787 27.5214Z" fill="#AC0000"/>
</svg>
