<svg width="478" height="465" viewBox="0 0 478 465" fill="none" xmlns="http://www.w3.org/2000/svg">
<path d="M272.332 421.097V215.975H305.641C306.593 215.975 307.447 215.446 307.875 214.633L361.404 109.048C361.754 108.368 361.754 107.574 361.404 106.913L307.875 1.34727C307.447 0.534627 306.593 0.00549316 305.641 0.00549316H198.587C197.635 0.00549316 196.78 0.534675 196.353 1.34727L142.843 106.913C142.494 107.593 142.494 108.387 142.843 109.048L196.373 214.614C196.8 215.445 197.655 215.956 198.607 215.956H227.488V422.534C208.143 429.583 194.702 444.607 194.702 462.032C194.702 463.374 195.81 464.451 197.188 464.451H307.082C308.461 464.451 309.568 463.374 309.568 462.032C309.549 443.322 294.027 427.352 272.332 421.097ZM147.835 107.986L200.142 4.83911H304.089L356.395 107.986L304.109 211.113H200.142L147.835 107.986ZM232.461 215.951H267.362V419.849C262.507 418.828 257.399 418.224 252.135 418.224C245.221 418.224 238.617 419.206 232.461 420.926V215.951ZM229.353 426.99C229.547 427.047 229.761 427.103 229.975 427.103C230.81 427.103 231.509 426.669 231.956 426.064C238.171 424.136 244.988 423.059 252.135 423.059C279.968 423.059 302.732 439.236 304.422 459.59L199.834 459.609C201.019 445.227 212.747 432.962 229.353 426.99Z" fill="#AC0000"/>
<path d="M252.115 178.839C284.298 178.839 310.478 149.206 310.478 112.79C310.478 95.8946 304.787 80.4923 295.523 68.8134C295.387 68.511 295.212 68.2275 294.94 67.9818C294.882 67.944 294.824 67.9251 294.785 67.8873C284.122 54.9229 268.953 46.7399 252.114 46.7399C219.931 46.7399 193.752 76.3727 193.752 112.788C193.752 129.419 199.248 144.595 208.26 156.217C208.396 156.52 208.571 156.803 208.843 157.049C208.901 157.087 208.959 157.106 208.998 157.143C219.68 170.429 235.024 178.839 252.115 178.839ZM252.115 174.001C237.102 174.001 223.565 166.838 213.854 155.385L293.019 73.497C300.808 84.1368 305.508 97.8381 305.508 112.768C305.508 146.521 281.558 174.001 252.115 174.001ZM252.115 51.5552C266.877 51.5552 280.258 58.4721 289.931 69.6034L210.785 151.472C203.249 140.908 198.704 127.433 198.704 112.768C198.723 79.0153 222.672 51.5552 252.115 51.5552Z" fill="#AC0000"/>
<path d="M430.858 421.097V184.924C457.855 175.191 477.491 146.541 477.491 112.77C477.491 71.0231 447.503 37.0646 410.641 37.0646C390.325 37.0646 371.35 47.3454 358.588 65.2421C357.811 66.3382 358.083 67.8501 359.209 68.6061C360.336 69.362 361.87 69.0974 362.666 68.0013C374.494 51.4084 391.974 41.9026 410.62 41.9026C444.764 41.9215 472.518 73.7087 472.518 112.77C472.518 151.852 444.763 183.637 410.64 183.637C392.732 183.637 375.719 174.755 363.949 159.258C363.133 158.181 361.56 157.954 360.472 158.748C359.365 159.541 359.132 161.053 359.948 162.13C372.669 178.874 391.14 188.456 410.638 188.456C415.882 188.456 420.971 187.7 425.865 186.396V419.83C421.01 418.81 415.902 418.205 410.638 418.205C403.724 418.205 397.12 419.188 390.964 420.908L390.983 213.536C390.983 212.194 389.876 211.117 388.497 211.117C387.118 211.117 386.011 212.194 386.011 213.536V422.533C366.666 429.582 353.226 444.607 353.226 462.031C353.226 463.373 354.333 464.45 355.712 464.45H465.605C466.984 464.45 468.091 463.373 468.091 462.031C468.072 443.322 452.572 427.352 430.858 421.097ZM387.876 426.993C388.071 427.05 388.284 427.107 388.498 427.107C389.333 427.107 390.032 426.672 390.479 426.067C396.694 424.14 403.511 423.062 410.659 423.062C438.491 423.062 461.255 439.24 462.965 459.593L358.357 459.612C359.542 445.23 371.27 432.965 387.876 426.993Z" fill="#AC0000"/>
<path d="M444.978 128.286C446.357 128.286 447.465 127.209 447.465 125.867V89.5439C447.465 88.2021 446.357 87.1249 444.978 87.1249H378.069C376.69 87.1249 375.583 88.2021 375.583 89.5439V125.867C375.583 127.209 376.69 128.286 378.069 128.286H444.978ZM380.555 91.9629H442.492V123.448H380.555V91.9629Z" fill="#AC0000"/>
<path d="M87.4541 25.2301C86.619 23.567 83.8222 23.567 83.0064 25.2301L0.42469 188.039C0.0362441 188.795 0.0945121 189.683 0.541226 190.382C0.987935 191.082 1.80369 191.516 2.65825 191.516H100.45V419.827C95.5941 418.807 90.4861 418.202 85.2226 418.202C78.3084 418.202 71.7044 419.185 65.548 420.904V213.532C65.548 212.191 64.4409 211.113 63.0619 211.113C61.6829 211.113 60.5759 212.191 60.5759 213.532V422.53C41.2314 429.579 27.7908 444.603 27.7908 462.028C27.7908 463.37 28.8979 464.447 30.2768 464.447H140.17C141.549 464.447 142.656 463.37 142.656 462.028C142.656 443.318 127.157 427.349 105.443 421.094V191.535H167.788C168.643 191.535 169.439 191.1 169.905 190.401C170.352 189.683 170.41 188.795 170.022 188.058L87.4541 25.2301ZM137.503 459.611H32.9151C34.1193 445.229 45.8311 432.965 62.437 426.993C62.6312 427.049 62.8448 427.106 63.0585 427.106C63.8937 427.106 64.5928 426.671 65.0396 426.067C71.2547 424.139 78.072 423.062 85.2194 423.062C113.032 423.081 135.813 439.258 137.503 459.611ZM6.65738 186.699L85.2217 31.7711L163.786 186.699H6.65738Z" fill="#AC0000"/>
<path d="M82.7306 72.5327V138.131C82.7306 139.473 83.8377 140.55 85.2166 140.55C86.5956 140.55 87.7027 139.473 87.7027 138.131V72.5327C87.7027 71.1909 86.5956 70.1136 85.2166 70.1136C83.8377 70.1136 82.7306 71.1909 82.7306 72.5327Z" fill="#AC0000"/>
<path d="M85.2166 148.315C83.8377 148.315 82.7306 149.392 82.7306 150.734V162.848C82.7306 164.19 83.8377 165.267 85.2166 165.267C86.5956 165.267 87.7027 164.19 87.7027 162.848V150.734C87.7027 149.392 86.5956 148.315 85.2166 148.315Z" fill="#AC0000"/>
</svg>
